SplineFontDB: 3.0
FontName: NeutonCursive
FullName: Neuton Cursive
FamilyName: Neuton Cursive
Weight: Regular
Copyright: Created by Brian M Zick, with FontForge 2.0 (http://fontforge.sf.net)
UComments: "2010-5-9: Created." 
Version: 1.0
ItalicAngle: 0
UnderlinePosition: -220
UnderlineWidth: 110
Ascent: 1580
Descent: 468
LayerCount: 3
Layer: 0 0 "Back"  1
Layer: 1 0 "Fore"  0
Layer: 2 0 "Board"  0
NeedsXUIDChange: 1
XUID: [1021 453 1782528420 15912843]
FSType: 0
OS2Version: 0
OS2_WeightWidthSlopeOnly: 0
OS2_UseTypoMetrics: 1
CreationTime: 1273463161
ModificationTime: 1297267451
PfmFamily: 17
TTFWeight: 500
TTFWidth: 5
LineGap: 184
VLineGap: 184
OS2TypoAscent: 0
OS2TypoAOffset: 1
OS2TypoDescent: 0
OS2TypoDOffset: 1
OS2TypoLinegap: 184
OS2WinAscent: 0
OS2WinAOffset: 1
OS2WinDescent: 0
OS2WinDOffset: 1
HheadAscent: 0
HheadAOffset: 1
HheadDescent: 0
HheadDOffset: 1
OS2Vendor: 'PfEd'
Lookup: 4 0 1 "'liga' Standard Ligatures in Latin lookup 0"  {"'liga' Standard Ligatures in Latin lookup 0-1"  "'liga' Standard Ligatures in Latin lookup 0-2"  } ['liga' ('DFLT' <'dflt' > 'latn' <'dflt' > ) ]
MarkAttachClasses: 1
DEI: 91125
LangName: 1033 
Encoding: UnicodeBmp
UnicodeInterp: none
NameList: Adobe Glyph List
DisplaySize: -24
AntiAlias: 1
FitToEm: 1
WinInfo: 57 19 4
BeginPrivate: 3
BlueValues 37 [-42 0 1064 1095 1288 1364 1506 1542]
OtherBlues 11 [-460 -442]
BlueFuzz 1 1
EndPrivate
Grid
-2048 1504 m 0
 4096 1504 l 0
  Named: "cap" 
-2048 1080 m 0
 4096 1080 l 0
  Named: "x" 
EndSplineSet
BeginChars: 65536 418

StartChar: A
Encoding: 65 65 0
Width: 1548
InSpiro: 1
Flags: HMW
HStem: 0 90<548.41 570 940.384 987.914> 524 122<640.41 1066.41> 1496 40G<959.122 1157.8>
DStem2: 219.2 156 383.308 150 0.482831 0.875713<73.9822 494.826 632.472 632.472> 1150.44 1536 961.536 1252 0.180854 -0.98351<245.152 860.126 983.404 1358.83>
LayerCount: 3
Back
SplineSet
1304 1344 m 1
 1027 1354 l 1
 1052 1446 l 1
 1178.04 1471.12 1305.75 1487.83 1434 1496 c 0
 1556.5 1503.8 1679.5 1503.8 1802 1496 c 1
 1777 1404 l 1
 1530 1338 l 1
 1392 156 l 1
 1645 98 l 1
 1620 0 l 1
 862 0 l 1
 887 95 l 1
 1154 136 l 1
 1304 1344 l 1
  Spiro
    1304 1344 v
    1027 1354 v
    1052 1446 v
    1434 1496 o
    1802 1496 v
    1777 1404 v
    1530 1338 v
    1392 156 v
    1645 98 v
    1620 0 v
    862 0 v
    887 95 v
    1154 136 v
    1353.9 1344 z
  EndSpiro
EndSplineSet
Fore
SplineSet
1215.94 514.804 m 1
 688.355 538.912 l 1
 705.329 655.023 l 1
 1230.25 592.007 l 1
 1215.94 514.804 l 1
  Spiro
    1215.94 514.804 v
    688.355 538.912 v
    705.329 655.024 v
    1230.25 592.007 v
    540 828 z
  EndSpiro
951 1498 m 1
 1147 1536 l 1
 1400 150 l 1
 1609 98 l 1
 1586 0 l 1
 892 0 l 1
 922 96 l 1
 1158 132 l 1
 974 1282 l 1
 968 1282 l 1
 930.079 1141.05 887.718 1001.29 841 863 c 0
 795.573 728.534 746.009 595.413 690 465 c 0
 638.352 344.741 580.259 225.3 495 126 c 0
 461.406 86.874 423.509 50.9444 379.623 23.8641 c 0
 335.736 -3.21618 285.538 -21.2089 234 -23 c 0
 164.61 -25.4115 94.2605 3.22429 48 55 c 0
 15.7274 91.1202 -4.56873 137.766 -9 186 c 1
 47.2735 195.662 102.617 210.743 156 231 c 0
 258.331 269.831 353.288 328.073 434 402 c 0
 592.237 546.934 687.234 747.497 761 949 c 0
 801.95 1060.86 838.542 1174.26 877 1287 c 0
 901.063 1357.54 925.672 1427.9 951 1498 c 1
  Spiro
    951 1498 v
    1147 1536 v
    1400 150 v
    1609 98 v
    1586 0 v
    892 0 v
    922 96 v
    1158 132 v
    974 1282 v
    968 1282 v
    841 863 c
    690 465 c
    495 126 c
    234 -23 c
    48 55 c
    -9 186 v
    156 231 o
    434 402 o
    761 949 o
    877 1287 o
    907 1498 z
  EndSpiro
EndSplineSet
Layer: 2
SplineSet
188.416 247.475 m 0
 316.097 314.539 410.135 433.049 477.224 560.716 c 0
 554.076 706.959 600.335 869.891 606.001 1035 c 0
 608.513 1108.21 603.11 1181.69 589.918 1253.74 c 1
 582.618 1259 l 1
 -334.316 356.944 l 1
 -385.507 395.594 -435.129 436.321 -483.019 478.992 c 0
 -553.68 541.951 -620.568 609.146 -683.204 680.093 c 1
 -648.041 768.164 l 1
 -402.241 652.528 l 1
 582.5 1587.06 l 1
 704.186 1454.9 l 1
 715.282 1382.02 722.381 1308.52 725.493 1234.86 c 0
 733.421 1047.24 714.803 859.014 677.93 674.879 c 0
 643.102 500.959 591.644 328.416 502.421 175.119 c 0
 463.521 108.285 414.534 44.0029 346.11 7.97461 c 0
 295.703 -18.5684 236.193 -28.2441 180.426 -16.6064 c 0
 124.658 -4.9668 73.6309 27.5889 39.0469 72.8584 c 0
 13.0332 106.909 -3.81445 147.885 -9.35352 190.376 c 1
 59.5215 195.794 127.253 215.349 188.416 247.475 c 0
  Spiro
    188.416 247.475 c
    477.224 560.716 c
    606 1035 c
    589.917 1253.74 v
    582.618 1259 v
    -334.317 356.944 v
    -483.019 478.992 o
    -683.205 680.093 v
    -648.041 768.164 v
    -402.242 652.528 v
    582.499 1587.06 v
    704.185 1454.9 v
    725.493 1234.86 o
    677.929 674.879 c
    502.42 175.119 c
    346.11 7.97409 o
    39.0466 72.8582 o
    -9.35372 190.376 v
    1164 1242 z
  EndSpiro
EndSplineSet
EndChar

StartChar: B
Encoding: 66 66 1
Width: 1366
InSpiro: 1
Flags: HMW
HStem: 0 116<496 943.094> 0 90<56 110.784> 732 102<624 1019.97> 1374 92<306 357.644> 1418 104<724.156 1021.58>
VStem: 1148 244<340.198 623.636 1059.85 1301.93>
DStem2: 270 146 496 116 0.173525 0.984829<9.67171 635.068 738.99 1210.01>
LayerCount: 3
Back
SplineSet
848.438 732 m 2xa4
 578.438 732 l 1
 491.949 116 l 1
 737.949 116 l 2
 1015.95 116 1137.45 302 1131.52 472 c 0
 1126.84 606 1034.44 732 848.438 732 c 2xa4
1039.23 824 m 1
 1037.57 814 l 1
 1257.99 802 1369.09 656 1374.19 510 c 0
 1382.29 278 1150 0 614 0 c 2xac
 28 0 l 1
 52.8574 90 l 1
 264.901 146 l 1
 431.276 1338 l 1
 230.019 1374 l 1
 254.807 1466 l 1x74
 433.898 1492 644.851 1522 858.851 1522 c 0x2c
 1196.85 1522 1335.95 1376 1341.61 1214 c 0
 1346.01 1088 1276.36 906 1039.23 824 c 1
674.762 1410 m 1
 594.876 834 l 1
 846.876 834 l 2
 1010.88 834 1110.34 964 1103.63 1156 c 0
 1099.09 1286 1022.48 1418 772.482 1418 c 0
 742.482 1418 708.552 1416 674.762 1410 c 1
EndSplineSet
Fore
SplineSet
-12 0 m 1x64
 13 90 l 1
 266 156 l 1
 423 1280 l 1
 153 1302 l 1
 178 1394 l 1
 277.784 1422.98 378.449 1449 480 1471 c 0
 602.48 1497.54 726.685 1519.69 852 1521 c 0
 912.564 1521.64 973.43 1516.95 1032.34 1502.88 c 0
 1091.25 1488.81 1148.33 1465.05 1197 1429 c 0
 1233.79 1401.76 1265.57 1367.45 1288.23 1327.67 c 0
 1310.9 1287.9 1324.18 1242.74 1326 1197 c 0
 1328.47 1134.78 1309.44 1072.53 1276 1020 c 0
 1241.81 966.284 1193.64 922.303 1140 888 c 0
 1093.6 858.327 1042.83 835.562 990 820 c 1
 990 812 l 1
 1017.82 808.106 1045.3 801.748 1072 793 c 0
 1119.4 777.466 1164.42 754.365 1204 724 c 0
 1253.56 685.98 1294.39 636.197 1319.73 579.108 c 0
 1345.08 522.02 1354.46 457.885 1346 396 c 0
 1335.35 318.07 1296.54 245.238 1241.97 188.596 c 0
 1187.4 131.954 1118.23 90.6944 1045 62 c 0
 972.742 33.6878 896.158 17.3343 819 9 c 0
 707.884 -3.00237 595.763 1.3687e-14 484 0 c 2
 -12 0 l 1x64
  Spiro
    -12 0 v
    13 90 v
    266 156 v
    423 1280 v
    153 1302 v
    178 1394 v
    480 1471 o
    852 1521 o
    1197 1429 o
    1326 1197 o
    1276 1020 o
    1140 888 o
    990 820 v
    990 812 v
    1072 793 o
    1204 724 o
    1346 396 o
    1045 62 o
    819 9 o
    484 0 [
    28 0 z
  EndSpiro
548 844 m 1
 596.999 836.748 646.47 832.523 696 832 c 0
 760.82 831.316 826.349 836.969 888 857 c 0
 939.797 873.829 988.592 901.399 1026.73 940.276 c 0
 1064.87 979.154 1091.76 1029.33 1101 1083 c 0
 1108.99 1129.41 1103.74 1177.99 1086.28 1221.73 c 0
 1068.83 1265.47 1039.41 1304.13 1003 1334 c 0
 940.035 1385.65 858.262 1410.65 777 1416 c 0
 736.285 1418.68 695.269 1416.58 655 1410 c 1
 492 126 l 1
 570.331 117.15 649.171 112.808 728 113 c 0
 773.863 113.112 819.948 114.838 864.968 123.596 c 0
 909.987 132.354 953.93 148.424 992 174 c 0
 1031.25 200.37 1063.81 236.829 1084.62 279.291 c 0
 1105.43 321.753 1114.41 369.837 1111 417 c 0
 1105.79 488.903 1071.43 557.48 1020 608 c 0
 968.392 658.696 901.394 691.555 832 712 c 0
 782.503 726.583 731.391 735.351 680 740 c 0
 630.816 744.449 581.291 745.045 532 742 c 1
 548 844 l 1
  Spiro
    548 844 v
    696 832 o
    888 857 o
    1101 1083 o
    1003 1334 o
    777 1416 o
    655 1410 v
    492 126 v
    728 113 c
    992 174 o
    1111 417 o
    1020 608 o
    832 712 o
    680 740 o
    532 742 v
    858 834 z
  EndSpiro
EndSplineSet
Layer: 2
SplineSet
661 1397 m 5x6c
 502 130 l 5
 724 86 l 5
 700 0 l 5
 -10 0 l 5
 10 89 l 5
 268 154 l 5
 421 1284 l 5
 154 1301 l 5
 170 1394 l 5
 260.287 1424.01 352.115 1449.39 445 1470 c 4
 591.734 1502.56 741.939 1526.53 892 1518 c 4
 978.083 1513.11 1064.82 1495.74 1140.67 1454.74 c 4
 1216.51 1413.73 1279.7 1347.09 1309 1266 c 4
 1329.11 1210.35 1333.17 1149.23 1322.16 1091.09 c 4
 1311.14 1032.96 1285.53 978.051 1251 930 c 4
 1206.55 868.15 1148 817.293 1084 776 c 4
 1027.24 739.378 965.865 710 902 688 c 5
 902 684 l 5
 1068 393 l 6
 1095.11 345.482 1123.5 298.452 1158 256 c 4
 1185.25 222.472 1216.63 191.687 1254 170 c 4
 1289.82 149.211 1330.47 138.532 1371 130 c 6
 1466 110 l 5
 1456 37 l 5
 1418.36 14.1738 1376.98 -2.47559 1334 -12 c 4
 1243.79 -31.9912 1145.76 -19.6436 1066 27 c 4
 1021.12 53.2441 982.774 89.7871 951.08 130.998 c 4
 919.387 172.209 894.414 218.101 870 264 c 6
 720 546 l 6
 696.99 589.258 670.081 630.324 640 669 c 6
 619 696 l 5
 631 741 l 5
 745 764 l 6
 797.599 774.612 850.453 787.17 898.034 811.974 c 4
 945.616 836.778 987.402 872.632 1019 916 c 4
 1048.4 956.355 1069.24 1003.1 1078.28 1052.21 c 4
 1087.33 1101.31 1084.19 1152.77 1068 1200 c 4
 1053.31 1242.87 1028 1281.94 995.48 1313.5 c 4
 962.96 1345.05 923.457 1369.17 881 1385 c 4
 811.157 1411.05 733.378 1414.83 661 1397 c 5x6c
  Spiro
    661 1397 v
    502 130 v
    724 86 v
    700 0 v
    -10 0 v
    10 89 v
    268 154 v
    421 1284 v
    154 1301 v
    170 1394 v
    445 1470 c
    892 1518 o
    1309 1266 o
    1251 930 o
    1084 776 o
    902 688 v
    902 684 v
    1068 393 ]
    1158 256 o
    1254 170 o
    1371 130 [
    1466 110 v
    1456 37 v
    1334 -12 o
    1066 27 c
    870 264 [
    720 546 ]
    640 669 [
    619 696 v
    631 741 v
    745 764 ]
    1019 916 o
    1068 1200 o
    881 1385 o
    651 1404 z
  EndSpiro
EndSplineSet
EndChar

StartChar: C
Encoding: 67 67 2
Width: 1236
InSpiro: 1
Flags: HMW
HStem: -30 158<693.634 1035.09> 1422 116<807.406 1196.03>
VStem: 160 271<418.25 857.992> 1296 102<1030 1071.18>
LayerCount: 3
Back
SplineSet
993 1337 m 4
 953.308 1374.53 898.627 1395.43 844 1395 c 4
 791.898 1394.59 740.925 1375.41 698.2 1345.59 c 4
 655.476 1315.77 620.388 1276.03 591 1233 c 4
 544.145 1164.4 510.213 1087.46 486 1008 c 4
 455.846 909.039 441.594 805.451 441 702 c 4
 440.247 570.882 461.093 435.554 530 324 c 4
 576.075 249.409 645.599 187.774 728.718 159.883 c 4
 811.837 131.993 905.748 140.462 984 180 c 4
 1040.82 208.709 1089.56 251.834 1130 301 c 4
 1151.64 327.309 1171.02 355.467 1188 385 c 5
 1248 319 l 5
 1230.7 265.698 1204.17 215.417 1170 171 c 4
 1102.07 82.6877 1004.09 18.7567 897 -12 c 4
 797.102 -40.6914 689.06 -41.1181 589.282 -12.0144 c 4
 489.503 17.0894 398.757 76.3364 332 156 c 4
 240.973 264.626 197.016 407.404 191 549 c 4
 182.146 757.394 242.459 966.68 349 1146 c 4
 410.718 1249.88 491.105 1344.02 591 1412 c 4
 665.623 1462.78 750.995 1498.42 840.236 1511.96 c 4
 929.477 1525.5 1022.7 1516.77 1106 1482 c 4
 1192.01 1446.09 1267.43 1380.92 1306.36 1296.24 c 4
 1325.83 1253.9 1335.95 1207.08 1334.02 1160.51 c 4
 1332.09 1113.95 1317.94 1067.72 1292 1029 c 4
 1268.01 993.189 1234.07 964.113 1195.01 945.893 c 4
 1155.94 927.674 1111.86 920.364 1069 925 c 5
 1083 1090 l 5
  Spiro
    993 1337 {
    844 1395 o
    591 1233 o
    486 1008 o
    441 702 o
    530 324 o
    984 180 o
    1130 301 o
    1188 385 v
    1248 319 v
    1170 171 o
    897 -12 o
    332 156 o
    191 549 o
    349 1146 o
    591 1412 o
    1106 1482 o
    1292 1029 c
    1069 925 v
    1083 1090 o
    0 0 z
  EndSpiro
EndSplineSet
Fore
SplineSet
1054 1092 m 0
 1055.9 1129.92 1054.87 1168.28 1046.46 1205.3 c 0
 1038.05 1242.33 1021.56 1277.93 996 1306 c 0
 975.792 1328.19 950.231 1345.39 922.239 1356.22 c 0
 894.248 1367.05 864.007 1371.66 834 1371 c 0
 774.196 1369.69 715.571 1347.92 667 1313 c 0
 617.001 1277.06 577.88 1227.38 549 1173 c 0
 484.48 1051.5 463.692 911.35 456 774 c 0
 452.474 711.027 452.647 647.751 459 585 c 0
 465.366 522.127 478.169 459.593 501.517 400.87 c 0
 524.866 342.147 559.182 287.288 605.128 243.901 c 0
 651.074 200.513 708.735 169.217 770.664 156.634 c 0
 832.594 144.051 897.933 150.535 957 173 c 0
 1022.25 197.819 1079.52 240.766 1128 291 c 0
 1152.86 316.763 1175.58 344.586 1196 374 c 1
 1245 299 l 1
 1226.18 253.092 1200.84 209.865 1170 171 c 0
 1100.82 83.8248 1003.75 19.4656 897 -12 c 0
 797.19 -41.4208 688.913 -42.2545 589.063 -12.9713 c 0
 489.212 16.3118 398.642 76.0844 332 156 c 0
 241.249 264.827 197.045 407.428 191 549 c 0
 182.103 757.364 242.944 966.427 349 1146 c 0
 410.467 1250.07 490.664 1344.6 591 1412 c 0
 661.53 1459.38 741.696 1492.84 825.477 1506.97 c 0
 909.258 1521.1 996.765 1515.95 1077 1488 c 0
 1166.66 1456.77 1247.88 1395.14 1290.88 1310.49 c 0
 1312.38 1268.17 1323.92 1220.52 1321.9 1173.1 c 0
 1319.89 1125.67 1304.01 1078.57 1275 1041 c 0
 1248.2 1006.29 1210.42 980.185 1168.47 967.388 c 0
 1126.53 954.591 1080.61 955.162 1039 969 c 1
 1046.55 1009.64 1051.94 1050.72 1054 1092 c 0
  Spiro
    1054 1092 o
    996 1306 o
    834 1371 o
    667 1313 o
    549 1173 o
    456 774 o
    459 585 o
    957 173 o
    1128 291 o
    1196 374 v
    1245 299 v
    1170 171 o
    897 -12 o
    332 156 o
    191 549 o
    349 1146 o
    591 1412 o
    1077 1488 o
    1275 1041 c
    1039 969 v
    0 0 z
  EndSpiro
EndSplineSet
Layer: 2
SplineSet
1015.71 1079.04 m 1
 1012.9 1149.29 987.613 1351.61 833.062 1351.61 c 0
 616.692 1351.61 493.053 1045.32 493.053 663.16 c 0
 493.053 387.78 549.253 165.79 804.963 165.79 c 0
 917.363 165.79 1046.62 283.81 1080.34 340.01 c 1
 1133.73 272.57 l 1
 1077.53 101.16 892.073 -50.5801 656.033 -50.5801 c 0
 344.123 -50.5801 220.482 230.42 220.482 564.81 c 0
 220.482 1095.9 585.783 1514.59 914.553 1514.59 c 0
 1122.49 1514.59 1212.41 1407.81 1212.41 1286.98 c 0
 1212.41 1275.74 1209.6 1264.5 1209.6 1253.26 c 0
 1198.36 1152.1 1130.92 1090.28 1015.71 1079.04 c 1
  Spiro
    1015.71 1079.04 v
    1001.48 1180.81 o
    948.4 1296.65 o
    833.063 1351.61 o
    648.898 1258.23 o
    533.042 1011.19 o
    493.053 663.16 o
    517.04 412.042 o
    610.587 233.413 o
    804.963 165.79 o
    918.708 198.411 o
    1019.02 269.941 o
    1080.34 340.01 v
    1133.73 272.57 v
    1037.49 112.752 o
    872.105 -4.97793 o
    656.033 -50.58 o
    404.679 34.4947 o
    264 256.92 o
    220.483 564.81 o
    327.168 1046.67 o
    588.797 1386.62 o
    914.553 1514.59 o
    1084.06 1482.49 o
    1181.46 1399.59 o
    1212.41 1286.98 o
    1211.69 1275.75 o
    1210.33 1264.49 o
    1209.6 1253.26 o
    1179.99 1165.7 o
    1114.6 1106.68 o
    0 0 z
  EndSpiro
EndSplineSet
EndChar

StartChar: D
Encoding: 68 68 3
Width: 1608
InSpiro: 1
Flags: HMW
HStem: 0 126<497.74 921.428> 0 90<52.3848 99.9142> 1372 92<279.732 334.08> 1400 124<698.6 1092.12>
VStem: 1413 273<671.874 1078.96>
DStem2: 271.2 156 497.74 126 0.155498 0.987836<5.59134 1194.39>
LayerCount: 3
Back
SplineSet
648 1392 m 5x98
 493 126 l 5
 671 126 l 6
 1123 126 1403 470 1383 852 c 4
 1367 1158 1092 1400 748 1400 c 4
 698 1400 698 1398 648 1392 c 5x98
1653 930 m 4
 1678 466 1260 0 604 0 c 6x98
 22 0 l 5
 49 90 l 5
 266 156 l 5
 408 1284 l 5
 148 1308 l 5
 172 1400 l 5x68
 376 1476 681 1524 857 1524 c 4
 1439 1524 1636 1246 1653 930 c 4
EndSplineSet
Fore
SplineSet
648 1404 m 1x08
 492 128 l 1
 557.415 126.62 622.915 129.294 688 136 c 0
 834.076 151.052 980.414 188.683 1104 268 c 0
 1211.08 336.721 1298.66 436.031 1351 552 c 0
 1412.48 688.228 1426.13 846.314 1385 990 c 0
 1356.79 1088.56 1301.27 1179.63 1224 1247 c 0
 1156.28 1306.03 1073.89 1346.66 988 1373 c 0
 909.065 1397.21 826.565 1410.06 744 1410 c 0
 711.917 1409.98 679.835 1407.98 648 1404 c 1x08
  Spiro
    648 1404 v
    492 128 v
    688 136 c
    1104 268 o
    1351 552 o
    1385 990 o
    1224 1247 o
    988 1373 o
    744 1410 o
    648 1384 z
  EndSpiro
-20 0 m 1x58
 3 92 l 1
 256 155 l 1
 409 1290 l 1
 148 1308 l 1
 172 1396 l 1
 279.334 1431.41 388.977 1459.82 500 1481 c 0
 650.228 1509.66 803.096 1527.14 956 1524 c 0
 1043.14 1522.21 1130.6 1512.87 1214.35 1488.74 c 0
 1298.1 1464.6 1377.89 1424.81 1444 1368 c 0
 1518.98 1303.57 1574.88 1217.94 1607.14 1124.5 c 0
 1639.4 1031.05 1649.29 930.593 1642 832 c 0
 1631.12 684.884 1581.58 540.153 1496 420 c 0
 1391.52 273.322 1237.42 167.179 1072 96 c 0
 983.769 58.035 890.961 30.4431 796 16 c 0
 657.35 -5.08806 516.244 7.9456e-14 376 0 c 2
 -20 0 l 1x58
  Spiro
    -20 0 v
    3 92 v
    256 155 v
    409 1290 v
    148 1308 v
    172 1396 v
    500 1481 o
    956 1524 o
    1444 1368 o
    1642 832 o
    1496 420 o
    1072 96 o
    796 16 o
    376 0 [
    20 0 z
  EndSpiro
EndSplineSet
Layer: 2
SplineSet
630 545 m 5xc8
 621 644 l 5
 667 649 712 657 757 668 c 4
 1004 728 1132 866 1132 1046 c 7
 1132 1260 984 1412 720 1412 c 7
 697 1412 674 1410 651 1407 c 5
 498 141 l 5
 774 102 l 5
 744 0 l 5
 -21 0 l 5
 0 93 l 5
 261 159 l 5
 411 1287 l 5
 150 1314 l 5
 168 1398 l 5
 348 1461 613 1523 848 1523 c 7
 1180.12 1523 1368 1372.12 1368 1101 c 7
 1368 852 1136 588 630 545 c 5xc8
  Spiro
    630 545 v
    621 644 v
    666.658 649.993 o
    712.008 658.009 o
    757 668 o
    963.833 752.559 o
    1089.75 881.481 o
    1132 1046 o
    1083.95 1235.84 o
    943.965 1364.76 o
    720 1412 o
    697.023 1411.37 o
    673.977 1409.63 o
    651 1407 v
    498 141 v
    774 102 v
    744 0 v
    -21 0 v
    0 93 v
    261 159 v
    411 1287 v
    150 1314 v
    168 1398 v
    371.85 1458.35 o
    607.501 1504.63 o
    848 1523 o
    1130.19 1473.94 o
    1307.11 1330.72 o
    1368 1101 o
    1289.27 855.974 o
    1045.89 652.762 o
    0 0 z
  EndSpiro
EndSplineSet
EndChar

StartChar: E
Encoding: 69 69 4
Width: 1416
Flags: HMW
HStem: 0 116<501.92 1103.92> 0 90<62.3848 116.4> 706 114<613.288 929.334> 1396 110<702.954 1274.95> 1414 92<278.978 313.67>
VStem: 937 106<510 569.33> 1286 102<1136 1177>
DStem2: 273.38 146 501.92 116 0.155156 0.98789<5.82262 603.172 718.576 1233.06>
LayerCount: 3
Back
SplineSet
226.387 1506 m 1x6e
 1432.39 1506 l 1x6e
 1348.79 1120 l 1
 1245.95 1136 l 1
 1226.21 1396 l 1
 654.205 1396 l 1
 584.653 820 l 1
 936.653 820 l 1
 1007.04 964 l 1
 1122.19 980 l 1
 1025.04 510 l 1
 919.885 494 l 1
 904.68 706 l 1
 570.68 706 l 1
 497.869 116 l 1
 1099.87 116 l 1xb6
 1253.17 394 l 1
 1351.91 380 l 1
 1268 0 l 1
 38 0 l 1
 59.2422 90 l 1
 268.281 146 l 1
 417.896 1364 l 1
 203.25 1414 l 1
 226.387 1506 l 1x6e
EndSplineSet
Fore
SplineSet
1242 0 m 5x66
 1305 108 1338 327 1337 531 c 13
 1233 545 l 21
 1209 453 1180 328 1119 240 c 4
 1050 141 954 141 759 131 c 14
 498 118 l 21xa6
 571 697 l 5
 1095 688 l 5
 1136 861 l 13
 587 821 l 21
 654 1381 l 5
 654 1381 933 1387 1138 1347 c 14
 1174 1340 l 21
 1210 1024 l 5
 1315 1008 l 5
 1412 1503 l 5
 1143 1510 l 6
 790 1519 339 1472 167 1439 c 5
 144 1347 l 5
 417 1320 l 5
 267 162 l 5
 3 96 l 5
 -24 -4 l 5
 -24 -4 365 3 497 3 c 4
 629 3 1242 0 1242 0 c 5x66
EndSplineSet
Layer: 2
SplineSet
651 126 m 1
 804 129 l 1
 882 144 l 1
 1107 267 l 1
 1146 318 l 1
EndSplineSet
EndChar

StartChar: F
Encoding: 70 70 5
Width: 1246
Flags: HMW
HStem: 0 90<62.3848 116.4 716.758 754> 700 112<611.43 925.44> 1396 110<702.954 1266.95> 1414 92<278.978 313.67>
VStem: 929 110<500 564.412> 1270 104<1134 1169.01>
DStem2: 273.38 146 505.346 148 0.156391 0.987695<38.2528 597.238 710.674 1233.06>
LayerCount: 3
Back
SplineSet
226.387 1506 m 1xdc
 1430.39 1506 l 1xdc
 1334.9 1118 l 1
 1230.05 1134 l 1
 1218.21 1396 l 1
 654.205 1396 l 1xec
 583.074 812 l 1
 931.074 812 l 1
 1001.36 958 l 1
 1110.51 974 l 1
 1021.57 500 l 1
 912.52 482 l 1
 900.996 700 l 1
 568.996 700 l 1
 500.178 148 l 1
 782.608 102 l 1
 754 0 l 1
 38 0 l 1
 59.2422 90 l 1
 268.281 146 l 1
 417.896 1364 l 1
 203.25 1414 l 1
 226.387 1506 l 1xdc
EndSplineSet
Fore
SplineSet
783 -2 m 21xcc
 -24 -2 l 5
 3 96 l 5
 267 162 l 5
 417 1320 l 5
 144 1347 l 5
 167 1439 l 5
 339 1472 790 1519 1143 1510 c 6
 1412 1503 l 5
 1315 988 l 5
 1200 1004 l 5
 1164 1330 l 13
 1128 1337 l 22
 923 1377 654 1381 654 1381 c 5
 585 770 l 13
 1136 810 l 21
 1095 627 l 5
 569 636 l 5
 504 132 l 13
 806 96 l 21
 783 -2 l 21xcc
EndSplineSet
Layer: 2
SplineSet
724 0 m 1
 -22 0 l 1
 -1 95 l 1
 268 156 l 1
 418 1315 l 1
 143 1355 l 1
 166 1447 l 1
 280.201 1470.09 395.827 1486.13 512 1495 c 0
 646.391 1505.26 781.514 1505.93 916 1497 c 1
 893 1405 l 1
 654 1379 l 1
 500 128 l 1
 753 98 l 1
 724 0 l 1
  Spiro
    724 0 v
    -22 0 v
    -1 95 v
    268 156 v
    418 1315 v
    143 1355 v
    166 1447 v
    512 1495 o
    916 1497 v
    893 1405 v
    654 1379 v
    500 128 v
    753 98 v
    724 0 z
  EndSpiro
EndSplineSet
EndChar

StartChar: G
Encoding: 71 71 6
Width: 1546
Flags: HMW
HStem: -38 130<721.038 1133.81> 1406 120<814.904 1265.01>
VStem: 158 276<413.262 866.392> 1393 104<1036 1078.12>
DStem2: 1153.35 148 1384.1 106 0.153909 0.988085<-34.8164 382.61>
LayerCount: 3
Back
SplineSet
1541.57 1408 m 1
 1462.19 1018 l 1
 1357.23 1036 l 1
 1342.97 1268 l 1
 1299.59 1332 1183.68 1406 963.676 1406 c 0
 677.676 1406 382.036 1210 411.533 652 c 0
 427.394 352 593.137 92 921.137 92 c 0
 1047.14 92 1115.66 120 1148.18 148 c 1
 1194.19 526 l 1
 913.762 572 l 1
 940.476 672 l 1
 1614.48 672 l 1
 1589.23 582 l 1
 1431.88 532 l 1
 1380.4 106 l 1
 1247.05 18 1028.01 -38 760.009 -38 c 0
 344.009 -38 155.205 242 138.184 564 c 0
 106.15 1170 587.333 1526 1039.33 1526 c 0
 1273.33 1526 1429.34 1488 1541.57 1408 c 1
EndSplineSet
Fore
SplineSet
1542 1408 m 1
 1462 1018 l 1
 1357 1036 l 1
 1343 1268 l 1
 1300 1332 1184 1406 964 1406 c 0
 678 1406 383 1210 412 652 c 0
 428 352 593 92 921 92 c 0
 1047 92 1115 120 1148 148 c 1
 1194 526 l 1
 914 572 l 1
 940 672 l 1
 1614 672 l 1
 1589 582 l 1
 1432 532 l 1
 1380 106 l 1
 1247 18 1028 -38 760 -38 c 0
 344 -38 155 242 138 564 c 0
 106 1170 587 1526 1039 1526 c 0
 1273 1526 1430 1488 1542 1408 c 1
EndSplineSet
Layer: 2
SplineSet
1054 1092 m 4
 1055.9 1129.92 1054.87 1168.28 1046.46 1205.3 c 4
 1038.05 1242.33 1021.56 1277.93 996 1306 c 4
 975.792 1328.19 950.231 1345.39 922.239 1356.22 c 4
 894.248 1367.05 864.007 1371.66 834 1371 c 4
 774.196 1369.69 715.571 1347.92 667 1313 c 4
 617.001 1277.06 577.88 1227.38 549 1173 c 4
 484.48 1051.5 463.692 911.35 456 774 c 4
 452.474 711.027 452.647 647.751 459 585 c 4
 465.366 522.127 478.169 459.593 501.517 400.87 c 4
 524.866 342.147 559.182 287.288 605.128 243.901 c 4
 651.074 200.513 708.735 169.217 770.664 156.634 c 4
 832.594 144.051 897.933 150.535 957 173 c 4
 1022.25 197.819 1079.52 240.766 1128 291 c 4
 1152.86 316.763 1175.58 344.586 1196 374 c 5
 1245 299 l 5
 1226.18 253.092 1200.84 209.865 1170 171 c 4
 1100.82 83.8248 1003.75 19.4656 897 -12 c 4
 797.19 -41.4208 688.913 -42.2545 589.063 -12.9713 c 4
 489.212 16.3118 398.642 76.0844 332 156 c 4
 241.249 264.827 197.045 407.428 191 549 c 4
 182.103 757.364 242.944 966.427 349 1146 c 4
 410.467 1250.07 490.664 1344.6 591 1412 c 4
 661.53 1459.38 741.696 1492.84 825.477 1506.97 c 4
 909.258 1521.1 996.765 1515.95 1077 1488 c 4
 1166.66 1456.77 1247.88 1395.14 1290.88 1310.49 c 4
 1312.38 1268.17 1323.92 1220.52 1321.9 1173.1 c 4
 1319.89 1125.67 1304.01 1078.57 1275 1041 c 4
 1248.2 1006.29 1210.42 980.185 1168.47 967.388 c 4
 1126.53 954.591 1080.61 955.162 1039 969 c 5
 1046.55 1009.64 1051.94 1050.72 1054 1092 c 4
  Spiro
    1054 1092 o
    996 1306 o
    834 1371 o
    667 1313 o
    549 1173 o
    456 774 o
    459 585 o
    957 173 o
    1128 291 o
    1196 374 v
    1245 299 v
    1170 171 o
    897 -12 o
    332 156 o
    191 549 o
    349 1146 o
    591 1412 o
    1077 1488 o
    1275 1041 c
    1039 969 v
    0 0 z
  EndSpiro
EndSplineSet
EndChar

StartChar: H
Encoding: 72 72 7
Width: 1713
InSpiro: 1
Flags: HMW
HStem: 0 90<62.3848 116.4 660.918 694 1060.38 1113.89 1654.11 1690> 714 124<618.964 1359.15> 1414 92<278.978 313.67 846.816 912.628 1274.98 1308.24 1841.44 1906.63>
DStem2: 273.38 146 507.524 138 0.155744 0.987797<28.5642 611.5 737.378 1233.06> 1269.38 146 1503.52 138 0.155744 0.987797<28.5642 577.026 700.622 1233.06>
LayerCount: 3
Back
SplineSet
694 0 m 1
 38 0 l 1
 59.2422 90 l 1
 268.281 146 l 1
 417.896 1364 l 1
 203.25 1414 l 1
 226.387 1506 l 1
 886.388 1506 l 1
 863.25 1414 l 1
 653.685 1368 l 1
 589.7 838 l 1
 1349.7 838 l 1
 1413.9 1364 l 1
 1197.25 1414 l 1
 1222.39 1506 l 1
 1882.39 1506 l 1
 1857.25 1414 l 1
 1649.68 1368 l 1
 1498.71 138 l 1
 1714.82 98 l 1
 1690 0 l 1
 1032 0 l 1
 1057.24 90 l 1
 1264.28 146 l 1
 1334.15 716 l 1
 572.254 714 l 1
 502.705 138 l 1
 722.82 98 l 1
 694 0 l 1
EndSplineSet
Fore
SplineSet
542 818 m 1
 1342 847 l 1
 1324 728 l 1
 523 685 l 1
 542 818 l 1
  Spiro
    542 818 v
    1342 847 v
    1324 728 v
    523 685 v
    540 828 z
  EndSpiro
2252 1676 m 0
  Spiro
    2252 1676 {
    0 0 z
  EndSpiro
724 0 m 1
 -22 0 l 1
 -1 95 l 1
 268 156 l 1
 418 1315 l 1
 143 1355 l 1
 166 1447 l 1
 280.201 1470.09 395.827 1486.13 512 1495 c 0
 646.391 1505.26 781.514 1505.93 916 1497 c 1
 893 1405 l 1
 654 1379 l 1
 500 128 l 1
 753 98 l 1
 724 0 l 1
  Spiro
    724 0 v
    -22 0 v
    -1 95 v
    268 156 v
    418 1315 v
    143 1355 v
    166 1447 v
    512 1495 o
    916 1497 v
    893 1405 v
    654 1379 v
    500 128 v
    753 98 v
    724 0 z
  EndSpiro
1354 1344 m 1
 1077 1354 l 1
 1102 1446 l 1
 1228.04 1471.12 1355.75 1487.83 1484 1496 c 0
 1606.5 1503.8 1729.5 1503.8 1852 1496 c 1
 1827 1404 l 1
 1580 1338 l 1
 1442 156 l 1
 1695 98 l 1
 1670 0 l 1
 912 0 l 1
 937 95 l 1
 1204 136 l 1
 1354 1344 l 1
  Spiro
    1354 1344 v
    1077 1354 v
    1102 1446 v
    1484 1496 o
    1852 1496 v
    1827 1404 v
    1580 1338 v
    1442 156 v
    1695 98 v
    1670 0 v
    912 0 v
    937 95 v
    1204 136 v
    1353.9 1344 z
  EndSpiro
EndSplineSet
Layer: 2
SplineSet
1722.3 0 m 1
 976.3 0 l 1
 997.542 95 l 1
 1266.58 156 l 1
 1416.2 1315 l 1
 1141.55 1355 l 1
 1164.69 1447 l 1
 1278.76 1470.08 1394.26 1486.12 1510.3 1495 c 0
 1644.82 1505.29 1780.07 1505.96 1914.69 1497 c 1
 1891.55 1405 l 1
 1651.99 1379 l 1
 1588 838 l 1
 2348 838 l 1
 2412.2 1364 l 1
 2195.55 1414 l 1
 2220.69 1506 l 1
 2880.69 1506 l 1
 2855.55 1414 l 1
 2647.98 1368 l 1
 2497.01 138 l 1
 2713.12 98 l 1
 2688.3 0 l 1
 2030.3 0 l 1
 2055.54 90 l 1
 2262.58 146 l 1
 2332.45 714 l 1
 1570.55 714 l 1
 1498 128 l 1
 1751.12 98 l 1
 1722.3 0 l 1
  Spiro
    1722.3 0 v
    976.3 0 v
    997.542 95 v
    1266.58 156 v
    1416.2 1315 v
    1141.55 1355 v
    1164.69 1447 v
    1510.3 1495 o
    1914.69 1497 v
    1891.55 1405 v
    1651.98 1379 v
    1588 838 v
    2348 838 v
    2412.2 1364 v
    2195.55 1414 v
    2220.69 1506 v
    2880.69 1506 v
    2855.55 1414 v
    2647.98 1368 v
    2497.01 138 v
    2713.12 98 v
    2688.3 0 v
    2030.3 0 v
    2055.54 90 v
    2262.58 146 v
    2332.45 714 v
    1570.55 714 v
    1498 128 v
    1751.12 98 v
    0 0 z
  EndSpiro
EndSplineSet
EndChar

StartChar: I
Encoding: 73 73 8
Width: 869
Flags: HMW
HStem: 0 90<62.3848 116.4 656.112 692> 1414 92<278.978 313.67 846.192 912.628>
DStem2: 273.38 146 505.524 138 0.155744 0.987797<28.2528 1233.06>
LayerCount: 3
Back
SplineSet
692 0 m 1
 38 0 l 1
 59.2422 90 l 1
 268.281 146 l 1
 417.896 1364 l 1
 203.25 1414 l 1
 226.387 1506 l 1
 886.388 1506 l 1
 863.25 1414 l 1
 651.685 1368 l 1
 500.705 138 l 1
 716.82 98 l 1
 692 0 l 1
EndSplineSet
Fore
SplineSet
734 0 m 5
 -22 0 l 5
 -1 95 l 5
 268 156 l 5
 418 1315 l 5
 143 1355 l 5
 166 1447 l 5
 280.201 1470.09 395.827 1486.13 512 1495 c 4
 646.391 1505.26 781.514 1505.93 916 1497 c 5
 893 1405 l 5
 654 1379 l 5
 500 128 l 5
 763 98 l 5
 734 0 l 5
EndSplineSet
EndChar

StartChar: J
Encoding: 74 74 9
Width: 718
InSpiro: 1
Flags: HMW
HStem: 1414 92<278.978 315.098 848.192 914.628>
DStem2: 285.73 238 555.638 466 0.157681 0.98749<-146.46 1140.26>
LayerCount: 3
Back
SplineSet
-19.1729 -394 m 1
 -40.6523 -366 -60.7666 -326 -72.7764 -288 c 1
 137.815 -110 253.674 44 277.419 238 c 2
 417.896 1364 l 1
 205.25 1414 l 1
 226.387 1506 l 1
 886.388 1506 l 1
 865.25 1414 l 1
 653.685 1368 l 1
 539.364 466 l 2
 475.586 -30 356.774 -166 -19.1729 -394 c 1
EndSplineSet
Fore
SplineSet
80 -440 m 0
 43.9847 -450.542 5.93324 -454.702 -31.3461 -450.402 c 0
 -68.6254 -446.101 -105.012 -433.166 -136 -412 c 0
 -171.772 -387.566 -199.969 -352.245 -216 -312 c 0
 -238.181 -256.315 -236.607 -191.657 -212 -137 c 1
 -144.651 -167.063 -73.466 -190.487 2.84217e-14 -197 c 0
 52.2624 -201.633 107.027 -195.023 152 -168 c 0
 177.811 -152.491 199.721 -130.814 216.533 -105.832 c 0
 233.345 -80.8511 245.226 -52.805 254 -24 c 0
 292.139 101.211 291.759 234.684 312 364 c 1
 320.25 479.606 332.613 594.876 346 710 c 2
 416 1312 l 1
 144 1348 l 1
 165 1440 l 1
 298.776 1470.82 435.022 1490.9 572 1500 c 0
 685.5 1507.54 799.5 1507.54 913 1500 c 1
 892 1408 l 1
 654 1378 l 1
 539 466 l 2
 517.177 292.934 490.359 118.909 428 -44 c 0
 395.232 -129.605 353.267 -212.429 296 -284 c 0
 239.645 -354.432 166.571 -414.66 80 -440 c 0
  Spiro
    80 -440 o
    -136 -412 o
    -216 -312 o
    -212 -137 v
    2.84217e-14 -197 o
    152 -168 o
    254 -24 o
    312 364 v
    346 710 [
    416 1312 v
    144 1348 v
    165 1440 v
    572 1500 o
    913 1500 v
    892 1408 v
    654 1378 v
    539 466 ]
    428 -44 o
    296 -284 o
    0 0 z
  EndSpiro
EndSplineSet
Layer: 2
SplineSet
734 0 m 1
 -22 0 l 1
 -1 95 l 1
 268 156 l 1
 418 1315 l 1
 143 1355 l 1
 166 1447 l 1
 280.201 1470.09 395.827 1486.13 512 1495 c 0
 646.391 1505.26 781.514 1505.93 916 1497 c 1
 893 1405 l 1
 654 1379 l 1
 500 128 l 1
 763 98 l 1
 734 0 l 1
EndSplineSet
EndChar

StartChar: K
Encoding: 75 75 10
Width: 1488
Flags: HMW
HStem: -26 42G<1215.47 1341.47> 0 90<56.3848 103.914 677.454 700> 1414 92<274.978 296.974 859.078 914.628 1060.98 1084.5 1577.54 1634.63>
DStem2: 275.2 156 509.308 150 0.154038 0.988065<30.1332 1212.74> 1223.63 1358 871.792 792 0.690188 0.72363<-652.412 0>
LayerCount: 3
Back
SplineSet
871.295 316 m 2xa0
 697.438 616 l 1
 697.438 616 640.89 702 609.305 732 c 1
 613.719 762 l 1
 656.135 792 717.488 842 762.847 892 c 2
 1176.21 1358 l 1
 987.25 1414 l 1
 1008.39 1506 l 1
 1610.39 1506 l 1
 1585.25 1414 l 1
 1364.21 1358 l 1
 844.135 792 l 1
 1079.36 466 l 2
 1236.89 248 1310.18 148 1458.71 100 c 2
 1501.46 86 l 1
 1477.89 2 l 1
 1420.95 -18 1367.37 -26 1317.37 -26 c 0
 1115.37 -26 983.444 124 871.295 316 c 2xa0
504.069 150 m 1
 726.82 98 l 1
 700 0 l 1
 30 0 l 1
 53.2422 90 l 1x60
 269.753 156 l 1
 416.426 1354 l 1
 195.25 1414 l 1
 222.387 1506 l 1
 888.388 1506 l 1
 865.25 1414 l 1
 650.211 1358 l 1
 504.069 150 l 1
EndSplineSet
Fore
SplineSet
871 316 m 6xa0
 697 616 l 5
 697 616 641 702 609 732 c 5
 614 762 l 5
 656 792 718 842 763 892 c 6
 1176 1358 l 5
 987 1414 l 5
 1008 1506 l 5
 1610 1506 l 5
 1585 1414 l 5
 1364 1358 l 5
 844 792 l 5
 1079 466 l 6
 1237 248 1310 148 1459 100 c 6
 1501 86 l 5
 1478 2 l 5
 1421 -18 1367 -26 1317 -26 c 4
 1115 -26 983 124 871 316 c 6xa0
504 150 m 5
 727 98 l 5
 700 0 l 5
 30 0 l 5
 53 90 l 5x60
 270 156 l 5
 416 1354 l 5
 195 1414 l 5
 222 1506 l 5
 888 1506 l 5
 865 1414 l 5
 650 1358 l 5
 504 150 l 5
EndSplineSet
EndChar

StartChar: L
Encoding: 76 76 11
Width: 1416
Flags: HMW
HStem: 0 116<509.92 1045.92> 0 90<70.3848 124.4> 1414 92<282.978 304.974 867.078 922.628>
DStem2: 281.38 146 509.92 116 0.155659 0.987811<5.93996 1222.9>
LayerCount: 3
Back
SplineSet
896.388 1506 m 1x60
 873.25 1414 l 1
 658.211 1358 l 1
 505.869 116 l 1
 1041.87 116 l 1xa0
 1236.01 416 l 1
 1338.85 400 l 1
 1244 0 l 1
 46 0 l 1
 67.2422 90 l 1
 276.281 146 l 1
 424.426 1354 l 1
 203.25 1414 l 1
 230.387 1506 l 1
 896.388 1506 l 1x60
EndSplineSet
Fore
SplineSet
167 1439 m 1x60
 144 1347 l 1
 417 1320 l 1
 267 162 l 1
 3 96 l 1
 -24 -4 l 1
 -24 -4 365 3 497 3 c 0
 629 3 1242 0 1242 0 c 1
 1305 108 1348 376 1337 551 c 9
 1226 565 l 17
 1202 473 1170 338 1109 250 c 0
 1040 151 954 151 759 141 c 10
 498 128 l 17
 656 1367 l 1
 956 1395 l 1
 972 1492 l 9
 864 1497 808 1504 696 1504 c 0
 520.589 1504 304 1480 167 1439 c 1x60
EndSplineSet
Layer: 2
SplineSet
724 0 m 1
 -22 0 l 1
 -1 95 l 1
 268 156 l 1
 418 1315 l 1
 143 1355 l 1
 166 1447 l 1
 280.201 1470.09 395.827 1486.13 512 1495 c 0
 646.391 1505.26 781.514 1505.93 916 1497 c 1
 893 1405 l 1
 654 1379 l 1
 500 128 l 1
 753 98 l 1
 724 0 l 1
  Spiro
    724 0 v
    -22 0 v
    -1 95 v
    268 156 v
    418 1315 v
    143 1355 v
    166 1447 v
    512 1495 o
    916 1497 v
    893 1405 v
    654 1379 v
    500 128 v
    753 98 v
    724 0 z
  EndSpiro
EndSplineSet
EndChar

StartChar: M
Encoding: 77 77 12
Width: 2215
InSpiro: 1
Flags: HMW
HStem: 0 90<42.3848 96.3996 562.918 596 1380.38 1433.89 1964.11 2000> 1414 92<346.978 380.244 2088.82 2154.62>
DStem2: 253.38 146 409.524 138 0.224154 0.974554<27.2038 1086.62> 889.178 1272 649.008 1170 0.20766 -0.978201<49.9028 914.996> 1065.29 374 1044.89 62 0.486905 0.873455<0 1038.74> 1589.38 146 1813.52 138 0.105051 0.994467<15.5909 1074.46>
LayerCount: 3
Back
SplineSet
480 1293 m 5
 199.863 1357 l 5
 225 1449 l 5
 329.133 1469.4 434.32 1484.43 540 1494 c 4
 612.624 1500.58 685.481 1504.58 758.388 1506 c 5
 824.759 1272 l 5
 1046 413 l 5
 1521 1290 l 5
 1631 1486 l 5
 1679.11 1492.94 1727.49 1497.94 1776 1501 c 4
 1887.99 1508.06 2000.63 1504.7 2112 1491 c 5
 2085 1398 l 5
 1825 1329 l 5
 1738 348 l 6
 1735.83 323.569 1735.29 299.036 1735.05 274.51 c 4
 1734.81 249.985 1731.43 225.265 1735 201 c 4
 1735.83 195.33 1737.24 189.71 1739.63 184.504 c 4
 1742.03 179.298 1745.46 174.5 1750 171 c 4
 1755.93 166.425 1763.5 164.282 1770.99 164.095 c 4
 1778.48 163.907 1785.91 165.573 1793 168 c 4
 1823.04 178.289 1846.87 201.297 1868 225 c 4
 1893.98 254.153 1917.9 285.081 1943 315 c 5
 2003 273 l 5
 1990.09 224.787 1968.66 178.867 1940 138 c 4
 1905.23 88.415 1859.7 46.2713 1807.02 16.403 c 4
 1754.33 -13.4653 1694.53 -30.9329 1634 -33 c 4
 1614.16 -33.6775 1594.12 -32.7014 1574.89 -27.7931 c 4
 1555.66 -22.8849 1537.2 -13.8705 1523 0 c 4
 1505.11 17.4824 1494.93 41.6516 1490.18 66.2117 c 4
 1485.42 90.7717 1485.58 116.024 1487 141 c 4
 1492.26 233.331 1503.39 325.252 1515 417 c 6
 1615 1207 l 5
 1525.87 992.105 1430.82 779.665 1330 570 c 4
 1265.53 435.927 1197.98 303.07 1119 177 c 4
 1094.57 138.015 1069.14 99.6589 1042.72 62 c 5
 887.991 38 l 5
 597 1206 l 5
 592 1206 l 5
 569 586 l 6
 565.769 498.91 562.578 411.467 547.096 325.703 c 4
 531.615 239.94 503.211 155.231 453 84 c 4
 429.572 50.7634 401.267 20.4926 367.112 -1.57534 c 4
 332.956 -23.6432 292.647 -37.1917 252 -36 c 4
 220.503 -35.0765 189.377 -25.2792 162.76 -8.41302 c 4
 136.144 8.4532 114.046 32.3137 99 60 c 4
 88.3757 79.5501 81.2356 100.986 78 123 c 5
 112.643 137.743 145.879 155.811 177 177 c 4
 223.81 208.872 265.802 248.121 299 294 c 4
 348.03 361.758 375.155 442.752 395 524 c 4
 436.582 694.246 456.048 869.157 468 1044 c 4
 473.667 1126.91 477.669 1209.93 480 1293 c 5
  Spiro
    480 1293 v
    199.863 1357 v
    225 1449 v
    540 1494 o
    758.388 1506 v
    824.759 1272 v
    1046 413 v
    1521 1290 v
    1631 1486 v
    1776 1501 o
    2112 1491 v
    2085 1398 v
    1825 1329 v
    1738 348 ]
    1735 201 o
    1750 171 c
    1793 168 c
    1868 225 o
    1943 315 v
    2003 273 v
    1940 138 c
    1634 -33 c
    1523 0 c
    1487 141 o
    1515 417 [
    1615 1207 v
    1330 570 c
    1119 177 o
    1042.72 62 v
    887.991 38 v
    597 1206 v
    592 1206 v
    569 586 ]
    453 84 c
    252 -36 c
    99 60 o
    78 123 v
    177 177 o
    299 294 o
    395 524 c
    468 1044 c
    0 0 z
  EndSpiro
EndSplineSet
Fore
SplineSet
480 1293 m 1
 200 1357 l 1
 225 1449 l 1
 329.134 1469.4 434.32 1484.43 540 1494 c 0
 612.495 1500.57 685.222 1504.57 758 1506 c 1
 825 1272 l 1
 1046 413 l 1
 1521 1290 l 1
 1631 1486 l 1
 1679.11 1492.94 1727.49 1497.94 1776 1501 c 0
 1887.99 1508.06 2000.63 1504.7 2112 1491 c 1
 2085 1398 l 1
 1825 1329 l 1
 1738 348 l 2
 1735.83 323.569 1735.3 299.036 1735.06 274.51 c 0
 1734.83 249.985 1731.44 225.267 1735 201 c 0
 1735.83 195.329 1737.23 189.708 1739.63 184.501 c 0
 1742.02 179.294 1745.46 174.496 1750 171 c 0
 1755.93 166.432 1763.51 164.301 1770.99 164.118 c 0
 1778.48 163.935 1785.91 165.596 1793 168 c 0
 1823.09 178.202 1847.2 200.975 1868 225 c 0
 1899.42 261.301 1926.75 300.929 1956 339 c 1
 2016 297 l 1
 2000.91 239.869 1974.98 185.622 1940 138 c 0
 1904.22 89.2858 1858.81 47.4236 1806.37 17.3746 c 0
 1753.92 -12.6744 1694.4 -30.7438 1634 -33 c 0
 1614.16 -33.7411 1594.11 -32.7745 1574.87 -27.8545 c 0
 1555.64 -22.9345 1537.19 -13.8886 1523 0 c 0
 1505.13 17.4987 1494.96 41.6629 1490.2 66.2197 c 0
 1485.44 90.7766 1485.59 116.026 1487 141 c 0
 1492.23 233.333 1503.39 325.251 1515 417 c 2
 1615 1207 l 1
 1525.97 992.061 1430.92 779.617 1330 570 c 0
 1265.46 435.96 1197.84 303.158 1119 177 c 0
 1094.65 138.03 1069.31 99.6756 1043 62 c 1
 888 38 l 1
 597 1206 l 1
 592 1206 l 1
 569 586 l 2
 565.769 498.91 562.578 411.467 547.096 325.703 c 0
 531.615 239.94 503.211 155.231 453 84 c 0
 429.572 50.7634 401.267 20.4926 367.112 -1.57534 c 0
 332.956 -23.6432 292.647 -37.1917 252 -36 c 0
 220.503 -35.0765 189.377 -25.2792 162.76 -8.41302 c 0
 136.144 8.4532 114.046 32.3137 99 60 c 0
 88.3757 79.5501 81.2356 100.986 78 123 c 1
 112.643 137.743 145.879 155.811 177 177 c 0
 223.81 208.872 265.802 248.121 299 294 c 0
 348.03 361.758 375.155 442.752 395 524 c 0
 436.582 694.246 456.048 869.157 468 1044 c 0
 473.667 1126.91 477.669 1209.93 480 1293 c 1
  Spiro
    480 1293 v
    200 1357 v
    225 1449 v
    540 1494 o
    758 1506 v
    825 1272 v
    1046 413 v
    1521 1290 v
    1631 1486 v
    1776 1501 o
    2112 1491 v
    2085 1398 v
    1825 1329 v
    1738 348 ]
    1735 201 o
    1750 171 c
    1793 168 c
    1868 225 o
    1956 339 v
    2016 297 v
    1940 138 c
    1634 -33 c
    1523 0 c
    1487 141 o
    1515 417 [
    1615 1207 v
    1330 570 c
    1119 177 o
    1043 62 v
    888 38 v
    597 1206 v
    592 1206 v
    569 586 ]
    453 84 c
    252 -36 c
    99 60 o
    78 123 v
    177 177 o
    299 294 o
    395 524 c
    468 1044 c
    0 0 z
  EndSpiro
EndSplineSet
EndChar

StartChar: N
Encoding: 78 78 13
Width: 1620
Flags: HMW
HStem: -36 42G<1180.19 1393.96> 0 90<62.3848 116.4 577.516 614> 1414 92<278.978 303.062 1272.98 1306.82 1753.44 1818.63>
DStem2: 273.38 146 425.524 138 0.155636 0.987814<15.7766 1054.42> 704.978 1506 587.116 1164 0.455227 -0.890376<250.854 1317.08> 1298.08 330 1393.96 2 0.155828 0.987784<0 1046.84>
LayerCount: 3
Back
SplineSet
1201.9 -36 m 1xa0
 546.469 1164 l 1
 420.705 138 l 1
 638.82 98 l 1
 614 0 l 1
 38 0 l 1
 59.2422 90 l 1x60
 268.281 146 l 1
 416.426 1354 l 1
 203.25 1414 l 1
 226.387 1506 l 1
 652.388 1506 l 1
 1286.56 330 l 1
 1413.9 1364 l 1
 1195.25 1414 l 1
 1220.39 1506 l 1
 1796.39 1506 l 1
 1769.25 1414 l 1
 1561.68 1368 l 1
 1393.89 2 l 1
 1201.9 -36 l 1xa0
EndSplineSet
Fore
SplineSet
1202 -36 m 1xa0
 546 1164 l 1
 421 138 l 1
 639 98 l 1
 614 0 l 1
 38 0 l 1
 59 90 l 1x60
 268 146 l 1
 416 1354 l 1
 203 1414 l 1
 226 1506 l 1
 652 1506 l 1
 1287 330 l 1
 1414 1364 l 1
 1195 1414 l 1
 1220 1506 l 1
 1796 1506 l 1
 1769 1414 l 1
 1562 1368 l 1
 1394 2 l 1
 1202 -36 l 1xa0
EndSplineSet
EndChar

StartChar: O
Encoding: 79 79 14
Width: 1602
Flags: HMW
HStem: -32 128<664.82 1044.94> 1424 118<791.016 1174.45>
VStem: 167 278<372.428 916.614> 1402 271<606.602 1128.28>
LayerCount: 3
Back
SplineSet
829 1365 m 7
 580.968 1365 477 1054.03 477 784 c 7
 477 414.89 620.992 145 859 145 c 7
 1089.03 145 1243 416.999 1243 755 c 7
 1243 1079.19 1107 1365 829 1365 c 7
1512.85 902 m 4
 1511 511 1254.17 -32 755.691 -32 c 7
 391.691 -32 205.648 263.875 205.648 602 c 4
 205.648 1094 497.99 1539 978 1539 c 7
 1356 1539 1514.32 1213 1512.85 902 c 4
EndSplineSet
Fore
SplineSet
832 1363 m 7
 584 1363 467 1065 467 784 c 7
 467 415 621 145 859 145 c 7
 1089 145 1253 393 1253 755 c 7
 1253 1080 1110 1363 832 1363 c 7
1502 899 m 4
 1499 489 1230 -32 766 -32 c 7
 423 -32 216 276 216 608 c 4
 216 1100 522 1539 968 1539 c 7
 1332 1539 1504 1194 1502 899 c 4
EndSplineSet
Layer: 2
SplineSet
716.36 -43.5 m 0
 354.439 -43.5 156.08 252.3 156.08 617.7 c 0
 156.08 1113.6 514.521 1566 977.36 1566 c 0
 1301 1566 1541.12 1299.2 1541.12 942.5 c 0
 1541.12 487.2 1238.36 -43.5 716.36 -43.5 c 0
841.64 1368.8 m 4
 556.28 1368.8 451.88 1058.5 451.88 806.2 c 4
 451.88 522 591.08 156.6 855.561 156.6 c 4
 1120.04 156.6 1238.36 481.4 1238.36 742.4 c 4
 1238.36 1017.9 1106.12 1368.8 841.64 1368.8 c 4
EndSplineSet
EndChar

StartChar: P
Encoding: 80 80 15
Width: 1351
Flags: HMW
HStem: 0 90<54.3848 108.912 709.252 746> 594 110<649.162 945.038> 1374 92<279.696 333.248> 1420 100<699.716 1008.94>
VStem: 1150 259<941.918 1277.86>
DStem2: 267.38 146 499.346 148 0.155496 0.987837<38.0454 1206.52>
LayerCount: 3
Back
SplineSet
651 1407 m 5xe8
 498 141 l 5
 774 102 l 5
 744 0 l 5
 -21 0 l 5
 0 93 l 5
 261 159 l 5
 411 1287 l 5
 150 1314 l 5
 168 1398 l 5
 348.119 1460.55 536.032 1500.63 726 1517 c 4
 806.173 1523.91 887.232 1526.51 966.847 1514.81 c 4
 1046.46 1503.11 1124.65 1476.53 1191 1431 c 4
 1242.13 1395.92 1285.81 1349.76 1316.63 1295.96 c 4
 1347.45 1242.15 1365.19 1180.94 1368 1119 c 4
 1370.96 1053.6 1357.33 987.749 1330.45 928.055 c 4
 1303.58 868.362 1263.75 814.867 1216.36 769.702 c 4
 1121.58 679.372 999.078 622.32 873 587 c 4
 793.715 564.789 712.122 550.951 630 545 c 5
 621 644 l 5
 666.773 649.173 712.247 657.089 757 668 c 4
 862.911 693.821 968.403 737.506 1043 817 c 4
 1084.68 861.419 1115.25 916.576 1128.49 976.033 c 4
 1141.74 1035.49 1137.49 1098.63 1117 1156 c 4
 1081.94 1254.16 1000.55 1332.35 905 1374 c 4
 825.715 1408.56 736.554 1419.69 651 1407 c 5xe8
  Spiro
    651 1407 v
    498 141 v
    774 102 v
    744 0 v
    -21 0 v
    0 93 v
    261 159 v
    411 1287 v
    150 1314 v
    168 1398 v
    726 1517 c
    1191 1431 o
    1368 1119 o
    873 587 o
    630 545 v
    621 644 v
    757 668 o
    1043 817 o
    1117 1156 o
    905 1374 o
    651 1398 z
  EndSpiro
EndSplineSet
Fore
SplineSet
630 545 m 1xc8
 621 644 l 1
 667 649 712 657 757 668 c 0
 1004 728 1132 866 1132 1046 c 3
 1132 1260 984 1412 720 1412 c 3
 697 1412 674 1410 651 1407 c 1
 498 141 l 1
 774 102 l 1
 744 0 l 1
 -21 0 l 1
 0 93 l 1
 261 159 l 1
 411 1287 l 1
 150 1314 l 1
 168 1398 l 1
 348 1461 613 1523 848 1523 c 3
 1180.12 1523 1368 1372.12 1368 1101 c 3
 1368 852 1136 588 630 545 c 1xc8
  Spiro
    630 545 v
    621 644 v
    666.658 649.993 o
    712.008 658.009 o
    757 668 o
    963.833 752.559 o
    1089.75 881.481 o
    1132 1046 o
    1083.95 1235.84 o
    943.965 1364.76 o
    720 1412 o
    697.023 1411.37 o
    673.977 1409.63 o
    651 1407 v
    498 141 v
    774 102 v
    744 0 v
    -21 0 v
    0 93 v
    261 159 v
    411 1287 v
    150 1314 v
    168 1398 v
    371.85 1458.35 o
    607.501 1504.63 o
    848 1523 o
    1130.19 1473.94 o
    1307.11 1330.72 o
    1368 1101 o
    1289.27 855.974 o
    1045.89 652.762 o
    0 0 z
  EndSpiro
EndSplineSet
Layer: 2
SplineSet
1242 0 m 1x66
 1305 108 1338 327 1337 531 c 9
 1233.26 545 l 17
 1209 453 1180.08 327.641 1119 240 c 0
 1050 141 954 141 759 131 c 10
 497.869 118 l 17xa6
 571.026 707 l 1
 1095.39 678 l 1
 1135.54 851 l 9
 587 831 l 17
 654.205 1381 l 1
 654.205 1381 933 1387 1138 1347 c 10
 1174.21 1340 l 17
 1210.16 1024 l 1
 1315 1008 l 1
 1412.39 1503 l 1
 1143 1510 l 2
 790 1519 338.75 1472 167.137 1439 c 1
 144 1347 l 1
 417 1320 l 1
 267 162 l 1
 3.24219 96 l 1
 -24 -4 l 1
 -24 -4 365 3 497 3 c 0
 629 3 1242 0 1242 0 c 1x66
EndSplineSet
EndChar

StartChar: Q
Encoding: 81 81 16
Width: 1602
InSpiro: 1
Flags: HMW
HStem: -32 42G<588.574 779.574> 1414 128<825.76 1191.01>
VStem: 179 259<421.694 895.584> 1445 263<613.51 1091.44>
LayerCount: 3
Back
SplineSet
979.25 1414 m 0
 615.25 1414 390.263 1130 414.16 678 c 0
 427.903 418 548.502 104 919.667 82 c 1
 1381.64 196 1430.4 560 1416.44 824 c 0
 1400.58 1124 1249.25 1414 979.25 1414 c 0
849.374 -26 m 1
 837.586 -30 789.691 -32 771.691 -32 c 0
 407.691 -32 177.524 236 158.282 600 c 0
 130.159 1132 520.484 1542 1062.48 1542 c 0
 1438.48 1542 1657.6 1256 1676.42 900 c 0
 1698.63 480 1425.03 94 992.421 -8 c 1
 1043.09 -172 1136.59 -276 1477.66 -334 c 1
 1473.24 -364 1463.25 -402 1452.42 -424 c 1
 1372.32 -460 1300.64 -466 1232.64 -466 c 0
 1012.64 -466 837.964 -302 849.374 -26 c 1
EndSplineSet
Fore
SplineSet
854 80 m 1
 986 108 l 1
 983.857 56.5503 991.116 4.64763 1008 -44 c 0
 1026.52 -97.3691 1057.12 -147.216 1100 -184 c 0
 1145.18 -222.763 1204.47 -244.809 1264 -244 c 0
 1305.15 -243.441 1345.68 -233.01 1384 -218 c 0
 1421.82 -203.184 1457.91 -184.091 1492 -162 c 1
 1520 -260 l 1
 1478.8 -314.752 1427.26 -361.771 1368.68 -397.311 c 0
 1310.09 -432.85 1244.18 -457.181 1176 -464 c 0
 1129.45 -468.656 1081.79 -464.848 1037.32 -450.299 c 0
 992.857 -435.751 951.953 -410.177 920 -376 c 0
 891.176 -345.17 869.794 -307.75 855.722 -267.959 c 0
 841.65 -228.168 834.582 -186.127 832 -144 c 0
 827.394 -68.8389 836.044 6.87003 854 80 c 1
  Spiro
    854 80 v
    986 108 v
    1008 -44 o
    1100 -184 o
    1264 -244 o
    1384 -218 o
    1492 -162 v
    1520 -260 v
    1176 -464 o
    920 -376 o
    832 -144 o
    844 80 z
  EndSpiro
768 1504 m 0
 838.732 1529.08 913.982 1542.4 988.968 1539.38 c 0
 1063.95 1536.36 1138.43 1516.5 1204 1480 c 0
 1276.49 1439.64 1337.18 1379.35 1381.35 1309.11 c 0
 1425.52 1238.88 1453.78 1159.37 1470 1078 c 0
 1496.73 943.911 1493.09 804.576 1467.34 670.293 c 0
 1441.6 536.011 1392.27 405.478 1316 292 c 0
 1227.08 159.699 1099.03 50.99 948 0 c 0
 850.849 -32.7992 744.733 -40.8441 644.81 -17.835 c 0
 544.886 5.17414 452.635 59.8196 384 136 c 0
 285.363 245.481 237.785 393.285 224 540 c 0
 206.869 722.319 234.602 910.039 312 1076 c 0
 402.423 1269.89 566.364 1432.5 768 1504 c 0
  Spiro
    768 1504 o
    1204 1480 o
    1470 1078 o
    1316 292 o
    948 0 o
    384 136 o
    224 540 o
    312 1076 o
    768 1504 z
  EndSpiro
800 1364 m 0
 724.977 1353.83 655.289 1314.24 603.979 1258.57 c 0
 552.67 1202.9 518.961 1132.75 498 1060 c 0
 455.045 910.915 454.59 751.931 474 598 c 0
 484.621 513.772 503.917 429.681 542.142 353.879 c 0
 580.368 278.077 639.68 211.18 716 174 c 0
 767.866 148.733 826.67 137.709 884.106 143.165 c 0
 941.541 148.621 997.091 170.412 1044 204 c 0
 1132.98 267.714 1187.72 370.276 1216 476 c 0
 1246.2 588.906 1252.02 707.399 1244 824 c 0
 1237.87 913.1 1222.67 1002.2 1190.58 1085.55 c 0
 1158.5 1168.9 1107.77 1246.84 1036 1300 c 0
 968.824 1349.76 882.838 1375.23 800 1364 c 0
  Spiro
    800 1364 o
    498 1060 o
    474 598 o
    716 174 o
    1044 204 o
    1216 476 o
    1244 824 o
    1036 1300 o
    800 1364 z
  EndSpiro
EndSplineSet
Layer: 2
SplineSet
832 1363 m 7
 584 1363 467 1065 467 784 c 7
 467 415 621 145 859 145 c 7
 1089 145 1253 393 1253 755 c 7
 1253 1080 1110 1363 832 1363 c 7
  Spiro
    832 1363 o
    627.31 1275.5 o
    506.439 1058.74 o
    467 784 o
    515.646 454.617 o
    651.767 228.506 o
    859 145 o
    1063.2 222.553 o
    1202.06 436.234 o
    1253 755 o
    1205.72 1056.8 o
    1064.52 1277.75 o
    0 0 z
  EndSpiro
1502 899 m 4
 1499 489 1230 -32 766 -32 c 7
 423 -32 216 276 216 608 c 4
 216 1100 522 1539 968 1539 c 7
 1332 1539 1504 1194 1502 899 c 4
  Spiro
    1502 899 o
    1413.14 475.821 o
    1162.04 117.982 o
    766 -32 o
    471.207 59.9744 o
    282.24 294.803 o
    216 608 o
    311.666 1067.62 o
    575.149 1407.21 o
    968 1539 o
    1268.43 1438.82 o
    1445.45 1195.75 o
    0 0 z
  EndSpiro
EndSplineSet
EndChar

StartChar: R
Encoding: 82 82 17
Width: 1531
InSpiro: 1
Flags: HMW
HStem: -26 42G<1210.47 1329.47> 0 90<54.3848 108.912 669.584 692> 650 110<594.366 788.336> 1370 92<279.77 332.116> 1416 102<697.15 1012.37>
VStem: 1132 261<1022.22 1292.56>
DStem2: 267.38 146 501.274 152 0.15504 0.987908<42.1904 546.116 657.272 1202.58>
LayerCount: 3
Back
SplineSet
654 696 m 9xa4
 643.457 760 l 17
 777 777 l 2
 939.174 777 1124 889.701 1124 1104 c 3
 1124 1281.07 966.033 1412 721 1412 c 3
 682 1412 650.341 1407 650.341 1407 c 1
 495.967 152 l 1
 716.714 100 l 1
 692 0 l 1
 -22 0 l 1
 1.24219 90 l 1x64
 262.281 156 l 1
 414 1290 l 1
 146.576 1311 l 1
 168.716 1403 l 1
 357 1455 602 1520 809.754 1520 c 3
 1133.75 1520 1344 1406 1344 1172 c 3
 1344 983.738 1216.76 818 951.619 726 c 1
 951.728 724 l 1
 1131.69 422 l 2
 1250.05 226 1302.8 43.2457 1437 72 c 2
 1483.67 82 l 1
 1456.11 -2 l 1
 1403.06 -20 1353.37 -26 1307.37 -26 c 0
 1115.37 -26 998 116 917.822 306 c 2
 917.822 306 852 465 807 570 c 0
 779.499 634.169 654 696 654 696 c 9xa4
  Spiro
    654 696 v
    643.457 760 v
    777 777 ]
    938.886 814.082 o
    1070.18 924.124 o
    1124 1104 o
    1074.07 1262.41 o
    934.206 1371.57 o
    721 1412 o
    685.379 1410.71 o
    659.975 1408.29 o
    650.341 1407 v
    495.967 152 v
    716.714 100 v
    692 0 v
    -22 0 v
    1.24219 90 v
    262.281 156 v
    414 1290 v
    146.576 1311 v
    168.716 1403 v
    372.21 1456.39 o
    593.287 1501.26 o
    809.754 1520 o
    1092.02 1481.85 o
    1277.62 1366.07 o
    1344 1172 o
    1301.28 993.311 o
    1171.01 840.547 o
    951.619 726 v
    951.728 724 v
    1131.69 422 ]
    1233.54 237.923 o
    1324.6 106.315 o
    1437 72 [
    1483.67 82 v
    1456.11 -2 v
    1404.24 -16.2116 o
    1354.54 -23.7824 o
    1307.37 -26 o
    1139.01 17.7677 o
    1011.67 135.629 o
    917.822 306 [
    807 570 o
    755.179 631.13 o
    687.496 677.628 o
    0 0 z
  EndSpiro
EndSplineSet
Fore
SplineSet
651 1397 m 1x6c
 492 130 l 1
 714 86 l 1
 690 0 l 1
 -20 0 l 1
 0 89 l 1
 258 154 l 1
 411 1284 l 1
 144 1301 l 1
 160 1394 l 1
 250.391 1423.68 342.196 1449.05 435 1470 c 0
 581.665 1503.11 731.969 1527.88 882 1518 c 0
 967.736 1512.36 1053.85 1493.92 1129.31 1452.83 c 0
 1204.77 1411.73 1268.22 1346.22 1299 1266 c 0
 1320.31 1210.47 1325.69 1149.03 1314.88 1090.54 c 0
 1304.08 1032.06 1277.42 977.018 1241 930 c 0
 1193.5 868.675 1130.59 820.789 1064 781 c 0
 1006.09 746.395 944.919 717.345 882 693 c 1
 882 689 l 1
 1058 393 l 2
 1085.95 345.997 1113.86 298.714 1148 256 c 0
 1174.99 222.241 1206.57 191.608 1244 170 c 0
 1279.87 149.295 1320.47 138.532 1361 130 c 2
 1456 110 l 1
 1446 37 l 1
 1408.36 14.1737 1366.98 -2.47586 1324 -12 c 0
 1233.79 -31.9916 1135.76 -19.6436 1056 27 c 0
 1011.12 53.244 972.774 89.7867 941.08 130.998 c 0
 909.387 172.209 884.414 218.101 860 264 c 2
 710 546 l 2
 699.14 566.417 687.102 586.233 673.071 604.615 c 0
 659.04 622.998 644.198 640.746 630 659 c 2
 609 686 l 1
 621 721 l 1
 715 741 l 2
 769.933 752.688 825.132 765.372 876.163 788.824 c 0
 927.195 812.276 973.735 846.289 1009 890 c 0
 1043.43 932.671 1066.87 984.257 1075.52 1038.4 c 0
 1084.16 1092.54 1077.97 1148.94 1058 1200 c 0
 1025.15 1284.01 954.909 1351.9 871 1385 c 0
 801.501 1412.42 723.104 1416.56 651 1397 c 1x6c
  Spiro
    651 1397 v
    492 130 v
    714 86 v
    690 0 v
    -20 0 v
    0 89 v
    258 154 v
    411 1284 v
    144 1301 v
    160 1394 v
    435 1470 c
    882 1518 o
    1299 1266 o
    1241 930 o
    1064 781 o
    882 693 v
    882 689 v
    1058 393 ]
    1148 256 o
    1244 170 o
    1361 130 [
    1456 110 v
    1446 37 v
    1324 -12 o
    1056 27 c
    860 264 [
    710 546 ]
    630 659 [
    609 686 v
    621 721 v
    715 741 ]
    1009 890 o
    1058 1200 o
    871 1385 o
    651 1404 z
  EndSpiro
EndSplineSet
Layer: 2
SplineSet
871.295 316 m 2xa0
 697.438 616 l 1
 697.438 616 640.89 702 609.305 732 c 1
 613.719 762 l 1
 656.135 792 717.488 842 762.847 892 c 2
 1176.21 1358 l 1
 987.25 1414 l 1
 1008.39 1506 l 1
 1610.39 1506 l 1
 1585.25 1414 l 1
 1364.21 1358 l 1
 844.135 792 l 1
 1079.36 466 l 2
 1236.89 248 1310.18 148 1458.71 100 c 2
 1501.46 86 l 1
 1477.89 2 l 1
 1420.95 -18 1367.37 -26 1317.37 -26 c 0
 1115.37 -26 983.444 124 871.295 316 c 2xa0
  Spiro
    871.295 316 [
    697.438 616 v
    681.636 639.366 o
    646.153 688.644 o
    609.305 732 v
    613.719 762 v
    661.102 797.885 o
    713.503 842.789 o
    762.847 892 [
    1176.21 1358 v
    987.25 1414 v
    1008.39 1506 v
    1610.39 1506 v
    1585.25 1414 v
    1364.21 1358 v
    844.135 792 v
    1079.36 466 ]
    1214.6 285.036 o
    1329.47 167.688 o
    1458.71 100 [
    1501.46 86 v
    1477.89 2 v
    1422.13 -14.1357 o
    1368.5 -23.191 o
    1317.37 -26 o
    1137.03 19.912 o
    991.768 142.152 o
    0 0 z
  EndSpiro
504.069 150 m 1
 726.82 98 l 1
 700 0 l 1
 30 0 l 1
 53.2422 90 l 1x60
 269.753 156 l 1
 416.426 1354 l 1
 195.25 1414 l 1
 222.387 1506 l 1
 888.388 1506 l 1
 865.25 1414 l 1
 650.211 1358 l 1
 504.069 150 l 1
  Spiro
    504.069 150 v
    726.82 98 v
    700 0 v
    30 0 v
    53.2422 90 v
    269.753 156 v
    416.426 1354 v
    195.25 1414 v
    222.387 1506 v
    888.388 1506 v
    865.25 1414 v
    650.211 1358 v
    0 0 z
  EndSpiro
EndSplineSet
EndChar

StartChar: S
Encoding: 83 83 18
Width: 1796
VWidth: 0
InSpiro: 1
Flags: HMW
HStem: -30 124<346.368 683.452> 1434 104<586.128 865.178>
VStem: 146 120<403.878 454> 255 224<1052.23 1246.59> 835 238<298.408 488.972> 920 118<1088 1264.91>
LayerCount: 3
Back
SplineSet
1001.23 1074 m 1xd4
 882.484 1088 l 1
 878.221 1320 l 1
 868.426 1354 790.193 1434 688.193 1434 c 0
 550.193 1434 428.847 1346 438.045 1172 c 0xd4
 453.586 878 1036.33 864 1056.42 484 c 0
 1072.59 178 761.586 -30 457.586 -30 c 0
 283.586 -30 125.357 50 72.1777 148 c 1
 129.049 472 l 1
 249.999 454 l 1
 266.055 226 l 1
 302.178 148 383.032 94 501.032 94 c 0
 641.032 94 832.485 180 822.016 378 c 0xe8
 807.745 648 238.372 674 218.283 1054 c 0
 202.211 1358 478.696 1538 742.696 1538 c 0
 848.696 1538 986.176 1510 1069.14 1416 c 1
 1067.68 1406 1001.23 1074 1001.23 1074 c 1xd4
EndSplineSet
Fore
SplineSet
1074 1422 m 1xc0
 996 1004 l 1
 892 1028 l 1
 882 1328 l 1
 848.564 1376.75 795.873 1411.94 738 1424 c 0
 676.447 1436.83 609.68 1422.99 558.698 1386.19 c 0
 507.717 1349.39 473.843 1290.38 466 1228 c 0
 456.993 1156.36 481.613 1083.22 523.382 1024.33 c 0
 565.151 965.438 622.4 919.535 680 876 c 0
 735.335 834.177 791.698 793.56 844 748 c 0
 888.602 709.147 930.34 666.363 962.623 616.798 c 0
 994.905 567.232 1017.22 510.761 1024 452 c 0
 1030.47 395.932 1022.71 338.427 1002.71 285.652 c 0
 982.701 232.877 950.893 184.9 912 144 c 0
 847.818 76.505 764.883 27.8356 676 0 c 0
 555.825 -37.6354 423.744 -38.9855 304 0 c 0
 260.458 14.1762 218.596 34.0176 181.264 60.5362 c 0
 143.932 87.0548 111.111 120.468 88 160 c 0
 71.9151 187.514 60.6537 217.971 56.1933 249.528 c 0
 51.733 281.085 54.2066 313.671 64 344 c 0
 83.1343 403.256 130.696 451.635 188 476 c 0
 243.177 499.461 306.795 501.957 364 484 c 1
 343.54 448.3 329.727 408.747 324 368 c 0
 316.559 315.056 323.308 259.421 348 212 c 0
 377.534 155.279 433.428 113.201 496 100 c 0
 555.768 87.3903 620.03 99.9016 672 132 c 0
 715.883 159.104 751.271 200.28 769.733 248.441 c 0
 788.196 296.602 788.805 351.236 772 400 c 0
 759.473 436.353 737.847 469.157 711.694 497.344 c 0
 685.542 525.53 655.038 549.304 624 572 c 0
 517.336 649.997 400.212 720.053 324 828 c 0
 280.335 889.846 252.01 962.59 243.416 1037.81 c 0
 234.821 1113.02 246.119 1190.44 276 1260 c 0
 312.336 1344.59 375.984 1416.78 454.05 1465.57 c 0
 532.116 1514.37 623.958 1540.1 716 1542 c 0
 844.304 1544.65 972.847 1500.97 1074 1422 c 1xc0
  Spiro
    1074 1422 v
    996 1004 v
    892 1028 v
    882 1328 v
    738 1424 o
    466 1228 o
    680 876 c
    844 748 c
    1024 452 o
    912 144 o
    676 0 o
    304 0 o
    88 160 o
    64 344 o
    188 476 o
    364 484 v
    324 368 o
    348 212 o
    496 100 o
    672 132 o
    772 400 o
    624 572 c
    324 828 c
    276 1260 o
    716 1542 o
    1074 1422 z
  EndSpiro
EndSplineSet
EndChar

StartChar: T
Encoding: 84 84 19
Width: 1356
InSpiro: 1
Flags: HMW
HStem: 0 90<364.384 418.91 959.516 992> 1396 110<416.954 774.954 1006.95 1374.95>
VStem: 1378 112<1116 1153.88>
DStem2: 577.38 146 807.524 138 0.156574 0.987666<28.1332 1265.52>
LayerCount: 3
Back
SplineSet
196.387 1506 m 1
 1542.39 1506 l 1
 1451.96 1098 l 1
 1339 1116 l 1
 1326.21 1396 l 1
 958.205 1396 l 1
 802.705 138 l 1
 1020.82 98 l 1
 992 0 l 1
 338 0 l 1
 361.241 90 l 1
 572.281 146 l 1
 726.205 1396 l 1
 368.205 1396 l 1
 267.743 1102 l 1
 158.9 1118 l 1
 196.387 1506 l 1
EndSplineSet
Fore
SplineSet
868 1512 m 0
 1059.37 1514.39 1250.8 1511.39 1442 1503 c 1
 1345 988 l 1
 1230 1004 l 1
 1194 1348 l 1
 1137.62 1357.59 1080.91 1365.26 1024 1371 c 0
 978.768 1375.56 933.412 1378.89 888 1381 c 1
 738 132 l 1
 1040 96 l 1
 1017 -2 l 1
 210 -2 l 1
 237 96 l 1
 501 162 l 1
 644 1356 l 1
 593.716 1364.79 542.946 1370.8 492 1374 c 0
 448.065 1376.76 403.999 1377.43 360 1376 c 1
 246 988 l 1
 130 1004 l 1
 130 1476 l 1
 375.457 1496.91 621.673 1508.92 868 1512 c 0
  Spiro
    868 1512 o
    1442 1503 v
    1345 988 v
    1230 1004 v
    1194 1348 v
    1024 1371 o
    888 1381 v
    738 132 v
    1040 96 v
    1017 -2 v
    210 -2 v
    237 96 v
    501 162 v
    644 1356 v
    492 1374 o
    360 1376 v
    246 988 v
    130 1004 v
    130 1476 v
    868 1512 z
  EndSpiro
EndSplineSet
Layer: 2
SplineSet
-136 1512 m 4
 45.3691 1512.81 226.756 1509.81 408 1503 c 5
 311 988 l 5
 196 1004 l 5
 160 1348 l 5
 113.715 1357.79 66.9844 1365.47 20 1371 c 4
 -25.1582 1376.32 -70.5498 1379.66 -116 1381 c 5
 -266 132 l 5
 36 96 l 5
 13 -2 l 5
 -794 -2 l 5
 -767 96 l 5
 -503 162 l 5
 -360 1356 l 5
 -618 1376 l 5
 -726 1034 l 5
 -852 1068 l 5
 -800 1492 l 5
 -578.886 1504.34 -357.456 1511.01 -136 1512 c 4
  Spiro
    -136 1512 o
    408 1503 v
    311 988 v
    196 1004 v
    160 1348 v
    20 1371 o
    -116 1381 v
    -266 132 v
    36 96 v
    13 -2 v
    -794 -2 v
    -767 96 v
    -503 162 v
    -360 1356 v
    -618 1376 v
    -726 1034 v
    -852 1068 v
    -800 1492 v
    868 1512 z
  EndSpiro
EndSplineSet
EndChar

StartChar: U
Encoding: 85 85 20
Width: 1748
InSpiro: 1
Flags: HMW
HStem: -32 144<703.26 1092.52> 1414 92<260.978 294.818 826.192 892.628 1310.98 1347.1 1798.82 1864.63>
DStem2: 323.808 568 559.27 598 0.156006 0.987756<-171.969 805.866> 1373.56 582 1527.16 604 0.156577 0.987666<-244.696 791.766>
LayerCount: 3
Back
SplineSet
902.079 112 m 0
 1266.08 112 1329.17 394 1353.23 582 c 2
 1449.9 1364 l 1
 1237.25 1414 l 1
 1258.39 1506 l 1
 1838.39 1506 l 1
 1815.25 1414 l 1
 1605.68 1368 l 1
 1506.07 604 l 2
 1444.71 138 1175.69 -32 803.691 -32 c 0
 575.691 -32 240.933 58 303.973 568 c 2
 401.896 1364 l 1
 183.25 1414 l 1
 208.387 1506 l 1
 864.388 1506 l 1
 843.25 1414 l 1
 631.685 1368 l 1
 538.387 598 l 2
 496.678 252 654.079 112 902.079 112 c 0
EndSplineSet
Fore
SplineSet
392 1312 m 1
 124 1356 l 1
 149 1448 l 1
 276.915 1471.54 406.21 1487.57 536 1496 c 0
 654.814 1503.71 774.043 1505.05 893 1500 c 1
 872 1408 l 1
 632 1375 l 1
 576 900 l 2
 566.898 822.797 556.982 745.636 551.832 668.069 c 0
 546.682 590.503 546.738 511.796 564 436 c 0
 582.096 356.543 621.652 280.475 684 228 c 0
 746.896 175.064 829.793 148.084 912 148 c 0
 984.811 147.926 1058.01 168.734 1118 210 c 0
 1169.17 245.198 1209.67 294.732 1238 350 c 0
 1284.34 440.407 1298.71 543.284 1312 644 c 2
 1404 1341 l 1
 1132 1352 l 1
 1153 1444 l 1
 1262.13 1467.18 1372.78 1483.22 1484 1492 c 0
 1598.4 1501.03 1713.42 1502.37 1828 1496 c 1
 1805 1404 l 1
 1554 1322 l 1
 1452 624 l 2
 1431.45 483.394 1405.72 338.96 1328 220 c 0
 1273.01 135.831 1194.47 67.4962 1104.08 23.4764 c 0
 1013.68 -20.5433 912.527 -41.6809 812 -40 c 0
 746.034 -38.897 680.027 -27.7735 618.208 -4.72846 c 0
 556.389 18.3166 498.977 53.677 452 100 c 0
 383.471 167.574 339.419 257.738 320 352 c 0
 286.471 514.748 316.09 683.032 336 848 c 2
 392 1312 l 1
  Spiro
    392 1312 v
    124 1356 v
    149 1448 v
    536 1496 o
    893 1500 v
    872 1408 v
    632 1375 v
    576 900 ]
    564 436 o
    684 228 o
    912 148 o
    1118 210 o
    1238 350 o
    1312 644 [
    1404 1341 v
    1132 1352 v
    1153 1444 v
    1484 1492 o
    1828 1496 v
    1805 1404 v
    1554 1322 v
    1452 624 ]
    1328 220 o
    812 -40 o
    452 100 o
    320 352 o
    336 848 [
    392 1312 z
  EndSpiro
EndSplineSet
Layer: 2
SplineSet
564 818 m 1
 1364 847 l 1
 1346 728 l 1
 545 685 l 1
 564 818 l 1
  Spiro
    564 818 v
    1364 847 v
    1346 728 v
    545 685 v
    540 828 z
  EndSpiro
2274 1676 m 0
  Spiro
    2274 1676 {
    0 0 z
  EndSpiro
746 0 m 1
 0 0 l 1
 21 95 l 1
 290 156 l 1
 440 1315 l 1
 165 1355 l 1
 188 1447 l 1
 302.201 1470.09 417.827 1486.13 534 1495 c 0
 668.391 1505.26 803.514 1505.93 938 1497 c 1
 915 1405 l 1
 676 1379 l 1
 522 128 l 1
 775 98 l 1
 746 0 l 1
  Spiro
    746 0 v
    0 0 v
    21 95 v
    290 156 v
    440 1315 v
    165 1355 v
    188 1447 v
    534 1495 o
    938 1497 v
    915 1405 v
    676 1379 v
    522 128 v
    775 98 v
    724 0 z
  EndSpiro
1376 1344 m 1
 1099 1354 l 1
 1124 1446 l 1
 1250.04 1471.12 1377.75 1487.83 1506 1496 c 0
 1628.5 1503.8 1751.5 1503.8 1874 1496 c 1
 1849 1404 l 1
 1602 1338 l 1
 1464 156 l 1
 1717 98 l 1
 1692 0 l 1
 934 0 l 1
 959 95 l 1
 1226 136 l 1
 1376 1344 l 1
  Spiro
    1376 1344 v
    1099 1354 v
    1124 1446 v
    1506 1496 o
    1874 1496 v
    1849 1404 v
    1602 1338 v
    1464 156 v
    1717 98 v
    1692 0 v
    934 0 v
    959 95 v
    1226 136 v
    1353.9 1344 z
  EndSpiro
EndSplineSet
EndChar

StartChar: V
Encoding: 86 86 21
Width: 1406
InSpiro: 1
Flags: HMW
HStem: -30 42G<674.188 869.892> 1414 92<250.978 272.482 808.816 874.628 1238.98 1275.67 1715.15 1766.63>
DStem2: 663.456 1368 391.528 1364 0.204354 -0.978897<0 1084.68> 874.544 304 869.892 6 0.473187 0.880962<0 1195.48>
LayerCount: 3
Back
SplineSet
683.586 -30 m 1
 343.896 1364 l 1
 175.25 1414 l 1
 198.387 1506 l 1
 848.388 1506 l 1
 825.25 1414 l 1
 615.685 1368 l 1
 863.928 304 l 1
 1379.9 1364 l 1
 1165.25 1414 l 1
 1186.39 1506 l 1
 1738.39 1506 l 1
 1717.25 1414 l 1
 1553.68 1368 l 1
 869.682 6 l 1
 683.586 -30 l 1
  Spiro
    683.586 -30 v
    343.896 1364 v
    175.25 1414 v
    198.387 1506 v
    848.388 1506 v
    825.25 1414 v
    615.685 1368 v
    863.928 304 v
    1379.9 1364 v
    1165.25 1414 v
    1186.39 1506 v
    1738.39 1506 v
    1717.25 1414 v
    1553.68 1368 v
    869.682 6 v
    0 0 z
  EndSpiro
EndSplineSet
Fore
SplineSet
1108 1287 m 0
 1172.32 1157.92 1179.27 1006.79 1159 864 c 0
 1135.78 700.433 1077.99 541.226 986 404 c 0
 945.212 343.155 897.849 286.722 845 236 c 1
 836 236 l 1
 620 1504 l 1
 555.873 1502.6 491.803 1498.59 428 1492 c 0
 333.86 1482.27 240.304 1466.9 148 1446 c 1
 125 1354 l 1
 392 1304 l 1
 644 -30 l 1
 820 6 l 1
 871.636 58.624 920.386 114.078 966 172 c 0
 1082.18 319.534 1177.19 483.088 1255 654 c 0
 1328.49 815.431 1387.69 985.474 1405 1162 c 0
 1412.55 1238.96 1410.42 1319.75 1376 1389 c 0
 1350.64 1440.01 1308.04 1482.67 1256 1505.86 c 0
 1203.96 1529.04 1143.53 1532.48 1089 1516 c 0
 1047.98 1503.6 1010.35 1480.22 981 1449 c 1
 1033.69 1404.32 1077.19 1348.84 1108 1287 c 0
  Spiro
    1108 1287 c
    1159 864 c
    986 404 c
    845 236 v
    836 236 v
    620 1504 v
    428 1492 o
    148 1446 v
    125 1354 v
    392 1304 v
    644 -30 v
    820 6 v
    966 172 o
    1255 654 c
    1405 1162 c
    1376 1389 o
    1089 1516 o
    981 1449 v
    1164 1242 z
  EndSpiro
EndSplineSet
Layer: 2
SplineSet
931.936 201.178 m 5
 650.288 258.158 l 5
 635.328 163.967 l 5
 721.833 102.512 811.511 45.5215 903.884 -6.70312 c 4
 967.363 -42.5898 1032.11 -76.2266 1097.97 -107.529 c 5
 1254.78 78.4102 l 5
 1809.98 770.201 l 5
 1881.9 -224.576 l 5
 1901.47 -448.48 l 5
 1942.46 -474.604 1984.49 -499.082 2027.44 -521.834 c 4
 2126.6 -574.361 2230.64 -617.67 2337.78 -651.021 c 5
 2351.45 -555.152 l 5
 2142.9 -385.248 l 5
 2467.4 544.604 l 6
 2475.48 567.762 2485.09 590.34 2494.97 612.789 c 4
 2504.85 635.238 2511.94 659.158 2525.17 679.811 c 4
 2528.26 684.635 2531.85 689.182 2536.18 692.939 c 4
 2540.5 696.701 2545.61 699.658 2551.19 700.977 c 4
 2558.48 702.697 2566.26 701.521 2573.16 698.607 c 4
 2580.05 695.693 2586.14 691.121 2591.61 686.01 c 4
 2614.84 664.326 2627.44 633.648 2636.5 603.193 c 4
 2650.2 557.176 2658.79 509.812 2669.78 463.076 c 5
 2741.75 476.656 l 5
 2751.51 534.934 2750.21 595.045 2737.93 652.844 c 4
 2725.37 711.969 2701.22 768.811 2665.79 817.783 c 4
 2630.37 866.756 2583.56 907.723 2529.44 934.641 c 4
 2511.67 943.482 2492.99 950.855 2473.44 954.289 c 4
 2453.88 957.723 2433.34 957.072 2414.7 950.254 c 4
 2391.21 941.664 2371.99 923.826 2357.55 903.406 c 4
 2343.1 882.984 2332.84 859.912 2323.85 836.57 c 4
 2290.61 750.27 2262.95 661.906 2235.77 573.51 c 6
 2001.73 -187.625 l 5
 2008.95 44.9082 2009.77 277.641 2004.19 510.221 c 4
 2000.62 658.945 1993.74 807.828 1973.65 955.234 c 4
 1967.44 1000.82 1960.05 1046.24 1951.47 1091.44 c 5
 1820.34 1177 l 5
 1074.38 232.307 l 5
 1069.82 234.365 l 5
 1304.06 808.875 l 6
 1336.96 889.576 1370.04 970.582 1391.24 1055.12 c 4
 1412.43 1139.65 1421.41 1228.54 1404.97 1314.12 c 4
 1397.3 1354.06 1383.96 1393.3 1361.92 1427.47 c 4
 1339.87 1461.64 1308.71 1490.58 1271.18 1506.22 c 4
 1242.09 1518.34 1209.69 1522.23 1178.49 1517.81 c 4
 1147.29 1513.4 1117.33 1500.75 1092.23 1481.71 c 4
 1074.5 1468.26 1059.17 1451.67 1047.16 1432.94 c 5
 1072.66 1405.24 1095.51 1375.09 1115.15 1342.97 c 4
 1144.7 1294.66 1166.81 1241.61 1178.18 1186.13 c 4
 1194.97 1104.2 1186.36 1019.21 1171 937 c 4
 1138.82 764.729 1084.57 597.311 1023.49 433.045 c 4
 994.529 355.154 964.003 277.844 931.936 201.178 c 5
  Spiro
    931.936 201.178 v
    650.288 258.158 v
    635.328 163.967 v
    903.884 -6.70226 o
    1097.97 -107.53 v
    1254.78 78.4094 v
    1809.98 770.202 v
    1881.9 -224.576 v
    1901.47 -448.48 v
    2027.44 -521.834 o
    2337.78 -651.022 v
    2351.45 -555.152 v
    2142.9 -385.249 v
    2467.4 544.605 ]
    2525.17 679.809 o
    2551.19 700.976 c
    2591.61 686.011 c
    2636.5 603.192 o
    2669.78 463.076 v
    2741.75 476.656 v
    2737.93 652.845 c
    2529.44 934.64 c
    2414.7 950.254 c
    2323.85 836.571 o
    2235.76 573.51 [
    2001.73 -187.625 v
    2004.19 510.221 c
    1973.65 955.235 o
    1951.47 1091.44 v
    1820.34 1177 v
    1074.38 232.307 v
    1069.82 234.365 v
    1304.06 808.875 ]
    1404.97 1314.12 c
    1271.18 1506.22 c
    1092.23 1481.71 o
    1047.16 1432.94 v
    1115.15 1342.97 o
    1178.18 1186.13 o
    1171 937 c
    1023.49 433.045 c
    0 0 z
  EndSpiro
EndSplineSet
EndChar

StartChar: W
Encoding: 87 87 22
Width: 2184
InSpiro: 1
Flags: HMW
HStem: -30 42G<565.402 769.892 1424.44 1619.89> 1414 92<256.978 278.188 782.816 848.628 1916.98 1949.09 2384.26 2432.62>
DStem2: 637.456 1368 391.528 1364 0.127369 -0.991855<0 1046.18> 768.08 330 769.892 6 0.424596 0.905383<0 973.188> 1511.52 1476 1307.33 1152 0.10201 -0.994783<301.48 1133.57> 1623.76 348 1619.89 6 0.434776 0.900539<0 1121.8>
LayerCount: 3
Back
SplineSet
1808.06 1286.62 m 0
 1858.6 1157.63 1849.31 1006.63 1813.9 864 c 0
 1773.29 700.453 1698.75 541.236 1592.28 404 c 0
 1545.07 343.148 1491.74 286.714 1433.53 236 c 1
 1424.53 236 l 1
 1342.54 1504 l 1
 1278.26 1502.61 1213.77 1498.6 1149.27 1492 c 0
 1054.23 1482.27 959.175 1466.9 864.792 1446 c 1
 831.933 1354 l 1
 1093.4 1304 l 1
 1204 -30 l 1
 1383.9 6 l 1
 1441.22 58.6035 1495.94 114.059 1547.76 172 c 0
 1679.65 319.448 1791.99 483.006 1887.7 654 c 0
 1978.16 815.601 2055 985.831 2091.14 1162.45 c 0
 2106.82 1239.09 2113.42 1319.55 2086.65 1388.63 c 0
 2066.82 1439.82 2028.71 1482.65 1979.04 1505.89 c 0
 1929.37 1529.14 1869.18 1532.55 1812.8 1516 c 0
 1770.48 1503.58 1730.39 1480.2 1697.72 1449 c 1
 1745.95 1404.3 1783.75 1348.66 1808.06 1286.62 c 0
  Spiro
    1808.06 1286.62 c
    1813.9 864 c
    1592.28 404 c
    1433.53 236 v
    1424.53 236 v
    1342.53 1504 v
    1149.27 1492 o
    864.792 1446 v
    831.932 1354 v
    1093.4 1304 v
    1204 -30 v
    1383.9 6 v
    1547.76 172 o
    1887.7 654 c
    2091.14 1162.45 c
    2086.65 1388.63 o
    1812.8 1516 o
    1697.72 1449 v
    1164 1242 z
  EndSpiro
EndSplineSet
Fore
SplineSet
1388 4 m 1
 1214 -32 l 1
 1178 750 l 1
 1168 750 l 1
 1099.32 556.944 1013.55 369.976 912 192 c 0
 875.957 128.829 837.932 66.7879 798 6 c 1
 588 -30 l 1
 477 1304 l 1
 216 1354 l 1
 249 1446 l 1
 342.653 1466.9 437.539 1482.27 533 1492 c 0
 597.473 1498.57 662.208 1502.58 727 1504 c 1
 809 286 l 1
 818 286 l 1
 879.946 376.905 934.832 472.621 982 572 c 0
 1033.53 680.576 1075.81 793.394 1112 908 c 0
 1143.18 1006.72 1169.88 1106.86 1192 1208 c 1
 1372 1248 l 1
 1435 236 l 1
 1444 236 l 1
 1499.61 293.367 1549.29 356.477 1592 424 c 0
 1675.27 555.658 1731.5 703.316 1767 855 c 0
 1800.39 997.669 1815.53 1148.36 1778 1290 c 0
 1762.49 1348.52 1738.13 1404.69 1706 1456 c 1
 1757.81 1492.46 1820.68 1514.97 1884 1513 c 0
 1925.47 1511.71 1967.33 1497.94 1998 1470 c 0
 2028.51 1442.21 2046.01 1402.48 2054 1362 c 0
 2072.61 1267.78 2058.43 1169.84 2038 1076 c 0
 2003.17 916.023 1926.73 768.436 1846 626 c 0
 1761.2 476.392 1669.82 329.973 1562 196 c 0
 1507.82 128.673 1449.74 64.4771 1388 4 c 1
  Spiro
    1388 4 v
    1214 -32 v
    1178 750 v
    1168 750 v
    912 192 o
    798 6 v
    588 -30 v
    477 1304 v
    216 1354 v
    249 1446 v
    533 1492 o
    727 1504 v
    809 286 v
    818 286 v
    982 572 c
    1112 908 c
    1192 1208 v
    1372 1248 v
    1435 236 v
    1444 236 v
    1592 424 c
    1767 855 c
    1778 1290 c
    1706 1456 v
    1884 1513 o
    1998 1470 o
    2054 1362 o
    2038 1076 c
    1846 626 c
    1562 196 o
    0 0 z
  EndSpiro
EndSplineSet
Layer: 2
SplineSet
321.6 593.6 m 1
 425.2 1033.2 l 1
 456 1170.4 472.8 1274 416.8 1274 c 0
 355.2 1274 237.6 1136.8 131.2 1013.6 c 1
 64 1066.8 l 1
 195.6 1307.6 444.8 1531.6 640.8 1531.6 c 0
 864.8 1531.6 729 1209.6 668.8 963.2 c 2
 593.2 649.6 l 2
 533 400.4 548.4 196 733.2 196 c 0
 884.4 196 1013.2 310.8 1063.6 806.4 c 1
 1024.4 1327.2 1083.2 1439.2 1332.4 1400 c 1
 1377.2 1341.2 l 1
 1279.2 758.8 l 1
 1293.2 478.8 l 2
 1304.4 266 1396.8 179.2 1461.2 179.2 c 0
 1662.8 179.2 1774.8 579.6 1774.8 890.4 c 0
 1774.8 1120 1668.4 1341.2 1601.2 1439.2 c 1
 1648.8 1475.6 1710.4 1509.2 1788.8 1509.2 c 0
 1917.6 1509.2 1982 1310.4 1982 1170.4 c 0
 1982 627.2 1741.2 -39.2002 1293.2 -39.2002 c 0
 1094.4 -39.2002 1046.8 128.8 1055.2 324.8 c 1
 1035.6 330.4 l 1
 960 89.5996 772.4 -42 559.6 -42 c 0
 296.4 -42 232 204.4 321.6 593.6 c 1
  Spiro
    321.6 593.6 v
    425.2 1033.2 v
    449.141 1156.5 o
    450.697 1242.12 o
    416.8 1274 o
    339.114 1233.94 o
    238.738 1135.75 o
    131.2 1013.6 v
    64 1066.8 v
    228.283 1294.12 o
    433.605 1464.73 o
    640.8 1531.6 o
    760.96 1439.16 o
    738.012 1219.82 o
    668.8 963.2 [
    593.2 649.6 ]
    561.674 421.446 o
    601.475 258.104 o
    733.2 196 o
    874.729 244.012 o
    989.237 428.153 o
    1063.6 806.4 v
    1060.45 1200.2 o
    1143.38 1379.35 o
    1332.4 1400 v
    1377.2 1341.2 v
    1279.2 758.8 v
    1293.2 478.8 ]
    1327.37 306.681 o
    1391.58 209.523 o
    1461.2 179.2 o
    1631.96 294.306 o
    1738.37 568.198 o
    1774.8 890.4 o
    1744.78 1112.74 o
    1676 1304.55 o
    1601.2 1439.2 v
    1653.51 1473.49 o
    1715.96 1499.16 o
    1788.8 1509.2 o
    1896.05 1452.58 o
    1960.58 1320.31 o
    1982 1170.4 o
    1903.13 615.916 o
    1670.58 153.332 o
    1293.2 -39.2002 o
    1141.38 11.5182 o
    1068.95 143.48 o
    1055.2 324.8 v
    1035.6 330.4 v
    926.022 126.995 o
    760.599 0.951762 o
    559.6 -42 o
    361.143 36.1437 o
    284.975 256.12 o
    0 0 z
  EndSpiro
EndSplineSet
EndChar

StartChar: X
Encoding: 88 88 23
Width: 1652
InSpiro: 1
Flags: HW
HStem: -17 211<1265.24 1372.91> -9 282<157.191 411.52> 1354 92<217.137 261.095>
VStem: 1520 61<318.244 327.871>
DStem2: 730.211 1358 486 1293 0.416092 -0.909322<-42.5084 521.687 692.56 1291.2>
LayerCount: 3
Back
SplineSet
46 1313 m 1
 -234.137 1377 l 1
 -209 1469 l 1
 -104.866 1489.4 0.319336 1504.43 106 1514 c 0
 178.624 1520.58 251.48 1524.58 324.388 1526 c 1
 390.759 1292 l 1
 612 433 l 1
 1087 1310 l 1
 1197 1506 l 1
 1245.11 1512.94 1293.49 1517.94 1342 1521 c 0
 1453.99 1528.06 1566.63 1524.71 1678 1511 c 1
 1651 1418 l 1
 1391 1349 l 1
 1304 368 l 2
 1301.83 343.569 1301.29 319.036 1301.05 294.511 c 0
 1300.81 269.984 1297.43 245.266 1301 221 c 0
 1301.83 215.33 1303.24 209.71 1305.63 204.504 c 0
 1308.03 199.298 1311.46 194.5 1316 191 c 0
 1321.93 186.425 1329.5 184.282 1336.99 184.095 c 0
 1344.48 183.907 1351.91 185.572 1359 188 c 0
 1389.04 198.289 1412.87 221.298 1434 245 c 0
 1459.99 274.153 1483.9 305.081 1509 335 c 1
 1569 293 l 1
 1556.09 244.787 1534.66 198.867 1506 158 c 0
 1471.23 108.415 1425.7 66.2715 1373.02 36.4033 c 0
 1320.33 6.53516 1260.53 -10.9326 1200 -13 c 0
 1180.16 -13.6777 1160.12 -12.7012 1140.89 -7.79297 c 0
 1121.66 -2.88477 1103.2 6.12988 1089 20 c 0
 1071.11 37.4824 1060.93 61.6514 1056.18 86.2119 c 0
 1051.42 110.771 1051.58 136.024 1053 161 c 0
 1058.26 253.331 1069.39 345.252 1081 437 c 2
 1181 1227 l 1
 1091.87 1012.11 996.82 799.665 896 590 c 0
 831.529 455.927 763.984 323.069 685 197 c 0
 660.575 158.015 635.145 119.659 608.72 82 c 1
 453.991 58 l 1
 163 1226 l 1
 158 1226 l 1
 135 606 l 2
 131.77 518.91 128.578 431.467 113.097 345.703 c 0
 97.6152 259.939 69.2109 175.231 19 104 c 0
 -4.42871 70.7637 -32.7334 40.4922 -66.8887 18.4248 c 0
 -101.044 -3.64355 -141.354 -17.1914 -182 -16 c 0
 -213.497 -15.0762 -244.623 -5.2793 -271.239 11.5869 c 0
 -297.856 28.4531 -319.954 52.3135 -335 80 c 0
 -345.624 99.5498 -352.765 120.986 -356 143 c 1
 -321.357 157.743 -288.121 175.811 -257 197 c 0
 -210.189 228.872 -168.198 268.121 -135 314 c 0
 -85.9707 381.758 -58.8447 462.752 -39 544 c 0
 2.58203 714.246 22.0479 889.157 34 1064 c 0
 39.667 1146.91 43.6689 1229.93 46 1313 c 1
  Spiro
    46 1313 v
    -234.137 1377 v
    -209 1469 v
    106 1514 o
    324.388 1526 v
    390.759 1292 v
    612 433 v
    1087 1310 v
    1197 1506 v
    1342 1521 o
    1678 1511 v
    1651 1418 v
    1391 1349 v
    1304 368 ]
    1301 221 o
    1316 191 c
    1359 188 c
    1434 245 o
    1509 335 v
    1569 293 v
    1506 158 c
    1200 -13 c
    1089 20 c
    1053 161 o
    1081 437 [
    1181 1227 v
    896 590 c
    685 197 o
    608.72 82 v
    453.991 58 v
    163 1226 v
    158 1226 v
    135 606 ]
    19 104 c
    -182 -16 c
    -335 80 o
    -356 143 v
    -257 197 o
    -135 314 o
    -39 544 c
    34 1064 c
    0 0 z
  EndSpiro
EndSplineSet
Fore
SplineSet
977 709 m 1
 906 748 l 1
 932.211 833.861 964.958 917.686 1003 999 c 0
 1039.28 1076.55 1079.52 1152.25 1123 1226 c 0
 1171.24 1307.83 1223.96 1389.76 1299 1448 c 0
 1333.11 1474.47 1372.07 1495.38 1414.14 1505.07 c 0
 1456.21 1514.75 1501.62 1512.69 1541 1495 c 0
 1567.1 1483.28 1590.14 1464.87 1607.47 1442.09 c 0
 1624.79 1419.32 1636.38 1392.24 1641 1364 c 0
 1648.03 1321.04 1638.55 1275.61 1615 1239 c 1
 1564.18 1244.98 1512.53 1244.07 1462 1236 c 0
 1393.73 1225.09 1327.41 1200.52 1270 1162 c 0
 1195.65 1112.11 1138.52 1040.1 1093 963 c 0
 1045.61 882.729 1008.08 796.882 977 709 c 1
  Spiro
    977 709 v
    906 748 v
    1003 999 o
    1123 1226 o
    1299 1448 o
    1541 1495 c
    1641 1364 o
    1615 1239 v
    1462 1236 o
    1270 1162 o
    1093 963 o
    783 762 z
  EndSpiro
747 792 m 1
 820 753 l 1
 793.969 660.066 759.676 569.52 719 482 c 0
 682.981 404.5 643.069 328.815 600 255 c 0
 554.393 176.834 504.371 98.3353 432 44 c 0
 406.169 24.6062 377.494 8.74136 346.691 -0.98326 c 0
 315.889 -10.7079 282.885 -14.167 251 -9 c 0
 210.541 -2.44363 172.63 18.1473 144.461 47.9201 c 0
 116.293 77.6929 97.8726 116.436 92 157 c 0
 86.322 196.219 92.3335 237.047 109 273 c 1
 159.876 268.144 211.298 268.579 262 275 c 0
 329.135 283.502 395.478 303.354 453 339 c 0
 529.29 386.277 585.738 459.922 630 538 c 0
 676.008 619.158 713.178 705.056 747 792 c 1
  Spiro
    747 792 v
    820 753 v
    719 482 o
    600 255 o
    432 44 o
    251 -9 c
    92 157 o
    109 273 v
    262 275 o
    453 339 o
    630 538 o
    783 762 z
  EndSpiro
486 1293 m 1
 192 1354 l 1
 217 1446 l 1
 305.668 1466.32 395.546 1481.35 486 1491 c 0
 545.148 1497.31 604.541 1501.31 664 1503 c 1
 730 1358 l 1
 1156 432 l 2
 1171.83 397.595 1188.2 363.426 1206 330 c 0
 1226.7 291.138 1248.77 251.996 1281 222 c 0
 1289.28 214.299 1298.29 207.273 1308.4 202.208 c 0
 1318.5 197.143 1329.7 194.146 1341 194 c 0
 1352.91 193.846 1364.76 196.853 1375.52 201.977 c 0
 1386.28 207.1 1395.99 214.203 1405 222 c 0
 1426.78 240.845 1445.58 262.864 1464 285 c 0
 1483.97 308.994 1502.7 334.016 1520 360 c 1
 1581 318 l 1
 1568.68 270.553 1549.43 224.908 1524 183 c 0
 1474.7 101.752 1402.27 31.6108 1313 -1 c 0
 1286.05 -10.8448 1257.57 -16.8303 1228.89 -17.2247 c 0
 1200.2 -17.6191 1171.39 -12.2557 1145 -1 c 0
 1118.98 10.0999 1095.5 26.8243 1075.6 46.9334 c 0
 1055.7 67.0425 1039.29 90.387 1025.1 114.863 c 0
 996.714 163.814 975.419 216.488 952 268 c 2
 486 1293 l 1
  Spiro
    486 1293 v
    192 1354 v
    217 1446 v
    486 1491 o
    664 1503 v
    730 1358 v
    1156 432 ]
    1206 330 o
    1281 222 c
    1341 194 o
    1405 222 o
    1464 285 o
    1520 360 v
    1581 318 v
    1524 183 o
    1313 -1 o
    1145 -1 o
    952 268 [
    486 1272 z
  EndSpiro
EndSplineSet
Layer: 2
SplineSet
1169.65 -14 m 4
 1039.54 -14 970.09 77.7061 907.461 243.601 c 4
 774.377 582.58 l 5
 753.944 537.142 l 4
 596.774 174.751 359.291 -33.5996 191.56 -33.5996 c 4
 76.2188 -33.5996 40.7598 62.4248 40.7598 140 c 4
 40.7598 202.517 57.1709 252.861 116.012 299.905 c 5
 167.331 259.237 227.698 251.2 272.76 251.2 c 4
 478.259 251.2 608.403 447.553 720.962 691.533 c 4
 724.58 699.034 l 5
 721.604 706.782 l 4
 615.229 992.898 525.628 1300 409 1300 c 4
 331.645 1300 256.362 1172.32 197.137 1066.89 c 5
 148.182 1108.06 l 5
 228.824 1316.62 364.635 1512 587.857 1512 c 4
 738.836 1512 821.807 1286.07 930.61 968.058 c 4
 946.347 923.706 l 5
 969.131 965.056 l 4
 1122.63 1254.64 1350.1 1495.2 1505.55 1495.2 c 4
 1607.79 1495.2 1657.82 1423.16 1657.82 1349.6 c 4
 1657.82 1268.18 1621.79 1214.99 1585.66 1174.86 c 5
 1533.65 1214.12 1476.57 1216 1422.42 1216 c 4
 1244 1216 1093.4 1044.56 995.623 831.695 c 4
 991.802 823.812 l 5
 1202.03 323.94 l 5
 1232.37 245.85 1277.85 175.601 1342.34 175.601 c 4
 1421.8 175.601 1509.29 261.723 1580.15 377.658 c 5
 1620.64 348.5 l 5
 1547.82 128.36 1453.52 -14 1169.65 -14 c 4
EndSplineSet
EndChar

StartChar: Y
Encoding: 89 89 24
Width: 1466
InSpiro: 1
Flags: HMW
HStem: 0 90<464.384 513.278 1022.68 1052> 1414 92<290.978 305.614 814.556 876.628 1144.98 1179.67 1607.65 1656.63>
DStem2: 677.456 1368 417.528 1364 0.382687 -0.923878<0 639.784> 655.38 146 887.524 138 0.155442 0.987845<28.1822 471.782> 920.076 776 966.516 640 0.590696 0.806894<0 717.496>
LayerCount: 3
Back
SplineSet
1104 0 m 5
 358 0 l 5
 379 95 l 5
 648 156 l 5
 798 1315 l 5
 523 1355 l 5
 546 1447 l 5
 660.201 1470.09 775.827 1486.13 892 1495 c 4
 1026.39 1505.26 1161.51 1505.93 1296 1497 c 5
 1273 1405 l 5
 1034 1379 l 5
 880 128 l 5
 1133 98 l 5
 1104 0 l 5
  Spiro
    1104 0 v
    358 0 v
    379 95 v
    648 156 v
    798 1315 v
    523 1355 v
    546 1447 v
    892 1495 o
    1296 1497 v
    1273 1405 v
    1034 1379 v
    880 128 v
    1133 98 v
    724 0 z
  EndSpiro
EndSplineSet
Fore
SplineSet
1248 1191 m 0
 1308.19 1234.26 1377.15 1264.8 1449 1283 c 0
 1515.6 1299.87 1584.79 1306.49 1653.38 1302.54 c 1
 1653.48 1338.9 1643.34 1375.21 1624.51 1406.32 c 0
 1592.03 1459.98 1533.91 1496.13 1472.01 1506.24 c 0
 1410.11 1516.34 1345.7 1501.95 1290.11 1472.9 c 0
 1231.61 1442.33 1182.17 1396.34 1141.23 1344.56 c 0
 1100.29 1292.78 1067.47 1235.06 1038 1176 c 0
 978.408 1056.58 932.035 930.564 900 801 c 1
 895 801 l 1
 890.772 861.125 885.26 921.166 878 981 c 0
 864.324 1093.71 845.412 1207.39 799 1311 c 0
 775.726 1362.96 744.565 1412.19 702 1450 c 0
 645.047 1500.59 568.037 1528.66 492 1524 c 0
 450.865 1521.48 410.145 1509.52 375 1488 c 0
 322.482 1455.84 283.84 1401.44 272 1341 c 1
 321.193 1333.03 369.27 1317.97 414 1296 c 0
 442.694 1281.91 469.988 1264.91 495 1245 c 0
 550.519 1200.81 593.378 1142.01 624 1078 c 0
 655.609 1011.92 675.9 940.877 690 869 c 0
 713.162 750.93 711.505 629.318 696 510 c 2
 650 156 l 1
 381 100 l 1
 358 0 l 1
 1115 0 l 1
 1142 98 l 1
 883 128 l 1
 918 435 l 2
 932.854 565.291 956.223 695.038 999 819 c 0
 1023.75 890.725 1053.45 961.156 1094.04 1025.26 c 0
 1134.62 1089.37 1186.39 1146.72 1248 1191 c 0
  Spiro
    1248 1191 o
    1449 1283 c
    1653.38 1302.54 v
    1624.51 1406.32 o
    1290.11 1472.9 o
    1038 1176 c
    900 801 v
    895 801 v
    878 981 o
    799 1311 c
    702 1450 o
    492 1524 o
    375 1488 o
    272 1341 v
    414 1296 o
    495 1245 o
    624 1078 o
    690 869 o
    696 510 [
    650 156 v
    381 100 v
    358 0 v
    1115 0 v
    1142 98 v
    883 128 v
    918 435 ]
    999 819 c
    1137.46 974.392 z
  EndSpiro
EndSplineSet
Layer: 2
SplineSet
1472.89 1237.1 m 0
 1336.08 1191.45 1224.21 1089.6 1137.46 974.392 c 0
 1038.08 842.415 966.216 689.047 934.066 526.998 c 0
 919.812 455.147 913.325 381.758 914.755 308.521 c 1
 921.112 302.151 l 1
 1971.21 1044.97 l 1
 2015.51 998.59 2057.94 950.413 2098.34 900.593 c 0
 2157.95 827.088 2213.16 750.01 2263.57 669.911 c 1
 2214.7 588.643 l 1
 1990.7 742.312 l 1
 868.461 -21.6514 l 1
 769.616 128.355 l 1
 770.389 202.078 775.205 275.756 783.981 348.959 c 0
 806.337 535.412 854.99 718.195 921 894 c 0
 983.352 1060.05 1061.89 1222.07 1174.61 1359.02 c 0
 1223.75 1418.73 1282.45 1474.29 1355.77 1498.85 c 0
 1409.79 1516.93 1470.08 1516.91 1523.25 1496.46 c 0
 1576.42 1476 1621.55 1435.66 1648.4 1385.41 c 0
 1668.6 1347.62 1678.64 1304.47 1677.27 1261.64 c 1
 1608.42 1267.37 1538.42 1258.97 1472.89 1237.1 c 0
  Spiro
    1472.89 1237.1 c
    1137.46 974.392 c
    934.066 526.998 c
    914.754 308.522 v
    921.112 302.151 v
    1971.21 1044.97 v
    2098.34 900.594 o
    2263.57 669.911 v
    2214.7 588.642 v
    1990.7 742.31 v
    868.46 -21.6509 v
    769.616 128.355 v
    783.98 348.958 o
    921 894 c
    1174.61 1359.02 c
    1355.77 1498.85 o
    1648.4 1385.41 o
    1677.27 1261.64 v
    1164 1242 z
  EndSpiro
EndSplineSet
EndChar

StartChar: Z
Encoding: 90 90 25
Width: 1222
InSpiro: 1
Flags: HMW
HStem: 0 122<279.81 969.81> 1392 114<471.024 1121.02>
DStem2: 19.7402 126 279.81 122 0.657949 0.753062<168.1 1677.97>
LayerCount: 3
Back
SplineSet
246.387 1506 m 1
 1370.39 1506 l 1
 1359.25 1414 l 1
 275.549 122 l 1
 965.549 122 l 1
 1151.58 424 l 1
 1262.54 406 l 1
 1144 0 l 1
 10 0 l 1
 15.3398 126 l 1
 1072.42 1392 l 1
 422.415 1392 l 1
 292.169 1094 l 1
 185.004 1116 l 1
 246.387 1506 l 1
EndSplineSet
Fore
SplineSet
206 1506 m 1
 1320 1506 l 1
 1309 1414 l 1
 286 112 l 1
 542 125 l 2
 617.327 128.825 692.763 130.7 768 136 c 0
 818.34 139.546 869.713 145.734 915 168 c 0
 941.838 181.195 965.784 199.962 986 222 c 0
 1026.64 266.306 1051.65 322.746 1070 380 c 0
 1087.51 434.629 1099.58 490.995 1106 548 c 1
 1218 532 l 1
 1221.92 443.998 1219.91 355.733 1212 268 c 0
 1203.86 177.818 1189.49 88.2002 1169 0 c 1
 20 0 l 1
 25 126 l 1
 1032 1392 l 1
 402 1372 l 1
 309 1054 l 1
 185 1086 l 1
 206 1506 l 1
  Spiro
    206 1506 v
    1320 1506 v
    1309 1414 v
    286 112 v
    542 125 ]
    768 136 o
    915 168 c
    986 222 c
    1070 380 c
    1106 548 v
    1218 532 v
    1212 268 o
    1169 0 v
    20 0 v
    25 126 v
    1032 1392 v
    402 1372 v
    309 1054 v
    185 1086 v
    0 0 z
  EndSpiro
EndSplineSet
Layer: 2
SplineSet
1152 0 m 1x66
 1215 108 1248 327 1247 531 c 9
 1143.26 545 l 17
 1119 453 1090.08 327.641 1029 240 c 0
 960 141 864 141 669 131 c 10
 407.869 118 l 17xa6
 481.026 697 l 1
 1005.39 688 l 1
 1045.54 861 l 9
 497 821 l 17
 564.205 1381 l 1
 564.205 1381 843 1387 1048 1347 c 10
 1084.21 1340 l 17
 1120.16 1024 l 1
 1225 1008 l 1
 1322.39 1503 l 1
 1053 1510 l 2
 700 1519 248.75 1472 77.1367 1439 c 1
 54 1347 l 1
 327 1320 l 1
 177 162 l 1
 -86.7578 96 l 1
 -114 -4 l 1
 -114 -4 275 3 407 3 c 0
 539 3 1152 0 1152 0 c 1x66
  Spiro
    1152 0 v
    1204.81 140.165 o
    1236.84 326.867 o
    1247 531 v
    1143.26 545 v
    1116.46 444.619 o
    1080.34 337.476 o
    1029 240 o
    948.428 170.008 o
    833.53 141.688 o
    669 131 [
    407.869 118 v
    481.026 697 v
    1005.39 688 v
    1045.54 861 v
    497 821 v
    564.205 1381 v
    643.931 1381.08 o
    831.676 1373.58 o
    1048 1347 [
    1084.21 1340 v
    1120.16 1024 v
    1225 1008 v
    1322.39 1503 v
    1053 1510 ]
    681.622 1502.95 o
    327.65 1474.04 o
    77.1367 1439 v
    54 1347 v
    327 1320 v
    177 162 v
    -86.7578 96 v
    -114 -4 v
    -8.44676 -2.1883 o
    213.491 1.1883 o
    407 3 o
    658.484 2.22356 o
    988.472 0.776445 o
    0 0 z
  EndSpiro
EndSplineSet
EndChar

StartChar: a
Encoding: 97 97 26
Width: 1038
VWidth: 0
Flags: HMW
LayerCount: 3
Back
SplineSet
782 1097 m 1
 912 1062 l 1
 826 592 l 1
 788 306 l 2
 770 166 784 141 832 141 c 3
 880 141 970 248 1018 332 c 1
 1066 288 l 1
 990 93 897.003 -36 714 -36 c 3
 584.861 -36 555 115 633 346 c 1
 617 346 l 1
 552 186 405 -24 243 -24 c 3
 99 -24 70 112 70 264 c 3
 70 564 303 1080 564 1080 c 3
 645 1080 702 1026 726 990 c 1
 738 990 l 1
 754 1098 l 1
 782 1097 l 1
243 348 m 3
 243 203.719 264.811 161 331 161 c 3
 439.019 161 623 413 695 796 c 1
 672 864 586 930 522 930 c 3
 330 930 243 564 243 348 c 3
EndSplineSet
Fore
SplineSet
782 1097 m 1
 912 1062 l 1
 826 592 l 1
 788 306 l 2
 770 166 784 141 832 141 c 3
 880 141 970 248 1018 332 c 1
 1066 288 l 1
 990 93 897 -36 714 -36 c 3
 585 -36 555 115 633 346 c 1
 617 346 l 1
 552 186 405 -24 243 -24 c 3
 99 -24 70 112 70 264 c 3
 70 564 303 1080 564 1080 c 3
 645 1080 702 1026 726 990 c 1
 738 990 l 1
 754 1098 l 1
 782 1097 l 1
243 348 m 3
 243 204 265 161 331 161 c 3
 439 161 623 413 695 796 c 1
 672 864 586 930 522 930 c 3
 330 930 243 564 243 348 c 3
EndSplineSet
EndChar

StartChar: b
Encoding: 98 98 27
Width: 1070
VWidth: 0
Flags: HMW
LayerCount: 3
Back
SplineSet
796 608 m 0
 796 758 762 920 648 920 c 0
 542 920 398 680 350 300 c 1
 336 186 l 1
 370 136 446 106 532 106 c 0
 642 106 796 206 796 608 c 0
498 1502 m 1
 438 1020 l 1
 378 714 l 1
 390 714 l 1
 438 912 576 1078 726 1078 c 0
 892 1078 1000 888 1000 646 c 0
 1000 270 766 -28 418 -28 c 0
 330 -28 204 -2 134 60 c 1
 294 1380 l 1
 130 1412 l 1
 142 1500 l 1
 478 1528 l 1
 498 1502 l 1
EndSplineSet
Fore
SplineSet
796 608 m 0
 796 758 762 920 648 920 c 0
 542 920 398 680 350 300 c 1
 336 186 l 1
 370 136 446 106 532 106 c 0
 642 106 796 206 796 608 c 0
498 1502 m 1
 438 1020 l 1
 378 714 l 1
 390 714 l 1
 438 912 576 1078 726 1078 c 0
 892 1078 1000 888 1000 646 c 0
 1000 270 766 -28 418 -28 c 0
 330 -28 204 -2 134 60 c 1
 294 1380 l 1
 130 1412 l 1
 142 1500 l 1
 478 1528 l 1
 498 1502 l 1
EndSplineSet
EndChar

StartChar: c
Encoding: 99 99 28
Width: 760
VWidth: 0
Flags: HMW
LayerCount: 3
Back
SplineSet
636 768 m 1
 634 818 616 962 506 962 c 0
 352 962 264 744 264 472 c 0
 264 276 304 118 486 118 c 0
 566 118 658 202 682 242 c 1
 720 194 l 1
 680 72 548 -36 380 -36 c 0
 158 -36 70 164 70 402 c 0
 70 780 330 1078 564 1078 c 0
 712 1078 776 1002 776 916 c 0
 776 908 774 900 774 892 c 0
 766 820 718 776 636 768 c 1
EndSplineSet
Fore
SplineSet
636 768 m 5
 634 818 616 962 506 962 c 4
 352 962 264 744 264 472 c 4
 264 276 304 118 486 118 c 4
 566 118 658 202 682 242 c 5
 720 194 l 5
 680 72 548 -36 380 -36 c 4
 158 -36 70 164 70 402 c 4
 70 780 330 1078 564 1078 c 4
 712 1078 776 1002 776 916 c 4
 776 908 774 900 774 892 c 4
 766 820 718 776 636 768 c 5
EndSplineSet
EndChar

StartChar: d
Encoding: 100 100 29
Width: 1034
VWidth: 0
Flags: HMW
LayerCount: 3
Back
SplineSet
262 366 m 0
 262 230 262 132 330 132 c 0
 482 132 646 456 684 818 c 1
 648 894 592 936 526 936 c 0
 362 936 262 636 262 366 c 0
794 342 m 2
 772 172 788 148 834 148 c 0
 876 148 968 242 1014 326 c 1
 1062 292 l 1
 996 64 868 -28 704 -28 c 0
 570 -28 592 164 634 312 c 1
 618 316 l 1
 546 112 426 -30 264 -30 c 0
 120 -30 70 114 70 266 c 0
 70 532 282 1064 582 1064 c 0
 652 1064 684 1050 696 1028 c 1
 714 1030 l 1
 738 1380 l 1
 576 1412 l 1
 588 1500 l 1
 920 1530 l 1
 944 1502 l 1
 794 342 l 2
EndSplineSet
Fore
SplineSet
262 366 m 0
 262 230 262 132 330 132 c 0
 482 132 646 456 684 818 c 1
 648 894 592 936 526 936 c 0
 362 936 262 636 262 366 c 0
794 342 m 2
 772 172 788 148 834 148 c 0
 876 148 968 242 1014 326 c 1
 1062 292 l 1
 996 64 868 -28 704 -28 c 0
 570 -28 592 164 634 312 c 1
 618 316 l 1
 546 112 426 -30 264 -30 c 0
 120 -30 70 114 70 266 c 0
 70 532 282 1064 582 1064 c 0
 652 1064 684 1050 696 1028 c 1
 714 1030 l 1
 738 1380 l 1
 576 1412 l 1
 588 1500 l 1
 920 1530 l 1
 944 1502 l 1
 794 342 l 2
EndSplineSet
Layer: 2
SplineSet
258 368 m 7
 258 231.766 259.882 130 328 130 c 7
 476.122 130 680 462 674 832 c 5
 650 876 594.498 940 530 940 c 7
 338 940 258 584.038 258 368 c 7
826 1098 m 5
 898 1064 l 5
 824 592 l 5
 786 306 l 6
 768 166 782.926 148 830 148 c 7
 878.166 148 968 248 1016 332 c 5
 1064 288 l 5
 1006 104 902.34 -28 690 -28 c 7
 590 -28 556 108 626 300 c 5
 610 300 l 5
 574 172 422.788 -28 260 -28 c 7
 115.945 -28 68 111.789 68 264 c 7
 68 564.026 294 1066 590 1066 c 7
 644.038 1066 700 1042 722 1012 c 5
 734 1012 l 5
 792 1098 l 5
 826 1098 l 5
EndSplineSet
EndChar

StartChar: e
Encoding: 101 101 30
Width: 784
VWidth: 0
Flags: HMW
LayerCount: 3
Back
SplineSet
68 388 m 0
 68 700 286 1078 556 1078 c 3
 682 1078 760 1018 760 876 c 3
 760 652 466 496 258 432 c 1
 264 228 325 126 483 126 c 3
 565 126 648 180 702 266 c 1
 746 228 l 1
 704 104 556 -36 380 -36 c 3
 164 -36 68 112 68 388 c 0
260 520 m 1
 466 596 574 734 574 840 c 3
 574 906 556 966 488 966 c 3
 404 966 280 824 260 520 c 1
EndSplineSet
Fore
SplineSet
570 1082 m 3
 690 1082 772 1005 772 868 c 3
 772 636 466 476 258 412 c 1
 261 237 318 126 453 126 c 3
 557 126 648 210 702 296 c 1
 746 258 l 1
 704 134 567 -36 360 -36 c 3
 174 -36 66 105 66 366 c 3
 66 702 309 1082 570 1082 c 3
260 500 m 1
 466 576 588 689 588 842 c 3
 588 917 560 954 492 954 c 3
 397 954 280 804 260 500 c 1
EndSplineSet
EndChar

StartChar: f
Encoding: 102 102 31
Width: 766
VWidth: 0
InSpiro: 1
Flags: HMWO
LayerCount: 3
Back
SplineSet
168 220 m 6
 220 936 l 5
 96 926 l 5
 114 1048 l 5
 236 1033 l 5
 266 1304 470 1560 680 1560 c 4
 772 1560 846 1499 846 1416 c 4
 846 1348 820 1305 762 1265 c 5
 734 1305 666 1342 590 1342 c 4
 490 1342 449 1288 437 1160 c 6
 425 1034 l 5
 706 1045 l 5
 675 926 l 5
 415 933 l 5
 360 148 l 6
 327 -323 40 -465 -90 -465 c 4
 -174 -465 -260 -408 -260 -328 c 4
 -260 -268 -236 -204 -180 -164 c 5
 -162 -206 -62 -240 16 -240 c 4
 152 -240 147 -63 168 220 c 6
EndSplineSet
Fore
SplineSet
416 928 m 1
 678 922 l 1
 700 1047 l 1
 423 1030 l 1
 422.847 1069.43 425.187 1108.87 430 1148 c 0
 434.115 1181.46 439.238 1214.79 445 1248 c 0
 448.325 1267.17 452.158 1286.34 458.803 1304.62 c 0
 465.448 1322.9 475.208 1340.28 489 1354 c 0
 505.607 1370.52 527.902 1381.05 551.148 1383.92 c 0
 574.395 1386.78 598.141 1382.41 620 1374 c 0
 652.19 1361.61 680.782 1341.17 706.3 1317.96 c 0
 731.819 1294.76 754.429 1268.4 774 1240 c 1
 811.971 1258.32 842.165 1292.18 856 1332 c 0
 866.281 1361.59 867.618 1394.23 859.79 1424.56 c 0
 851.962 1454.9 835.011 1482.74 812 1504 c 0
 779.348 1534.17 735.189 1550.45 690.809 1553.02 c 0
 646.428 1555.59 601.924 1545.36 561 1528 c 0
 480.039 1493.65 411.453 1433.32 360 1362 c 0
 311.73 1295.09 279.322 1217.7 258 1138 c 0
 248.669 1103.12 241.32 1067.71 236 1032 c 1
 108 1052 l 1
 92 926 l 1
 222 936 l 1
 183 380 l 2
 167.86 164.16 165.989 -53.7435 124 -266 c 0
 121.812 -277.058 119.393 -288.348 113.45 -297.927 c 0
 110.479 -302.716 106.629 -307.014 101.925 -310.119 c 0
 97.2207 -313.224 91.6355 -315.095 86 -315 c 0
 80.3503 -314.905 74.8399 -312.85 70.1262 -309.734 c 0
 65.4125 -306.618 61.4491 -302.476 58 -298 c 0
 46.9766 -283.696 41.0662 -265.963 38.5757 -248.077 c 0
 36.0853 -230.191 36.8369 -212.021 38 -194 c 0
 41.5551 -138.915 48.9117 -84.0749 60 -30 c 1
 20.6586 -21.2419 -21.4261 -25.4229 -58.3391 -41.6056 c 0
 -95.252 -57.7884 -126.668 -85.8034 -148 -120 c 0
 -165.918 -148.724 -176.891 -181.566 -181.313 -215.13 c 0
 -185.736 -248.695 -183.839 -283.065 -176 -316 c 0
 -168.812 -346.201 -156.487 -375.343 -138.374 -400.555 c 0
 -120.261 -425.768 -96.114 -446.833 -68 -460 c 0
 -25.3661 -479.967 25.1979 -480.215 69.5353 -464.388 c 0
 113.873 -448.561 152.017 -418.546 184 -384 c 0
 251.896 -310.664 298.105 -218.527 324 -122 c 0
 353.443 -12.2453 355.723 102.667 364 216 c 2
 416 928 l 1
  Spiro
    416 928 v
    678 922 v
    700 1047 v
    423 1030 v
    430 1148 c
    445 1248 o
    489 1354 o
    620 1374 o
    774 1240 v
    856 1332 o
    812 1504 o
    561 1528 o
    360 1362 o
    258 1138 c
    236 1032 v
    108 1052 v
    92 926 v
    222 936 v
    183 380 ]
    124 -266 c
    86 -315 c
    58 -298 c
    38 -194 c
    60 -30 v
    -148 -120 o
    -176 -316 o
    -68 -460 o
    184 -384 o
    324 -122 o
    364 216 [
    416 928 z
  EndSpiro
EndSplineSet
EndChar

StartChar: g
Encoding: 103 103 32
Width: 986
VWidth: 0
Flags: HMW
LayerCount: 3
Back
SplineSet
180 -198 m 0
 180 -320 346 -383 518 -383 c 0
 666 -383 740 -316 740 -214 c 0
 740 -88 530 -22 370 22 c 1
 214 -50 180 -116 180 -198 c 0
794 942 m 1
 818 886 836 808 836 734 c 0
 836 530 642 332 446 332 c 0
 440 332 434 332 428 332 c 1
 400 314 364 284 364 252 c 0
 364 188 938 130 938 -176 c 0
 938 -338 692 -468 488 -468 c 0
 246 -468 -10 -414 -10 -192 c 0
 -10 -88 106 -11 290 51 c 1
 290 57 l 1
 234 89 202 108 202 172 c 0
 202 226 256 288 354 358 c 1
 352 364 l 1
 292 388 210 498 210 622 c 0
 210 868 400 1078 568 1078 c 0
 686 1078 738 1022 760 994 c 1
 794 1018 872 1072 952 1072 c 0
 990 1072 1046 1038 1046 990 c 0
 1046 902 976 870 946 852 c 1
 918 892 840 942 794 942 c 1
380 674 m 0
 380 578 398 424 508 424 c 0
 608 424 668 568 668 674 c 0
 668 794 640 990 516 990 c 0
 428 990 380 832 380 674 c 0
EndSplineSet
Fore
SplineSet
180 -198 m 0
 180 -320 346 -383 518 -383 c 0
 666 -383 740 -316 740 -214 c 0
 740 -88 530 -22 370 22 c 1
 214 -50 180 -116 180 -198 c 0
794 942 m 1
 818 886 836 808 836 734 c 0
 836 530 642 332 446 332 c 0
 440 332 434 332 428 332 c 1
 400 314 364 284 364 252 c 0
 364 188 938 130 938 -176 c 0
 938 -338 692 -468 488 -468 c 0
 246 -468 -10 -414 -10 -192 c 0
 -10 -88 106 -11 290 51 c 1
 290 57 l 1
 234 89 202 108 202 172 c 0
 202 226 256 288 354 358 c 1
 352 364 l 1
 292 388 210 498 210 622 c 0
 210 868 400 1078 568 1078 c 0
 686 1078 738 1022 760 994 c 1
 794 1018 872 1072 952 1072 c 0
 990 1072 1046 1038 1046 990 c 0
 1046 902 976 870 946 852 c 1
 918 892 840 942 794 942 c 1
380 674 m 0
 380 578 398 424 508 424 c 0
 608 424 668 568 668 674 c 0
 668 794 640 990 516 990 c 0
 428 990 380 832 380 674 c 0
EndSplineSet
EndChar

StartChar: h
Encoding: 104 104 33
Width: 1104
VWidth: 0
Flags: HMW
LayerCount: 3
Back
SplineSet
274 1380 m 1
 110 1412 l 1
 122 1500 l 1
 470 1528 l 1
 490 1502 l 1
 414 1006 l 1
 338 692 l 1
 352 688 l 1
 420 896 574 1084 726 1084 c 0
 836 1084 906 1020 906 898 c 0
 906 864 902 788 896 744 c 2
 842 308 l 2
 828 196 834 148 874 148 c 0
 918 148 1010 194 1070 298 c 1
 1120 262 l 1
 1056 90 950 -26 754 -26 c 0
 594 -26 638 158 662 358 c 2
 690 590 l 2
 701 682 706 758 706 776 c 0
 706 858 682 872 642 872 c 0
 528 872 424 766 344 418 c 1
 334 46 274 -50 98 -22 c 1
 70 20 l 1
 166 532 l 1
 274 1380 l 1
EndSplineSet
Fore
SplineSet
274 1380 m 1
 110 1412 l 1
 122 1500 l 1
 470 1528 l 1
 490 1502 l 1
 414 1006 l 1
 338 692 l 1
 352 688 l 1
 420 896 574 1084 726 1084 c 0
 836 1084 906 1020 906 898 c 0
 906 864 902 788 896 744 c 2
 842 308 l 2
 828 196 834 148 874 148 c 0
 918 148 1010 194 1070 298 c 1
 1120 262 l 1
 1056 90 950 -26 754 -26 c 0
 594 -26 638 158 662 358 c 2
 690 590 l 2
 701 682 706 758 706 776 c 0
 706 858 682 872 642 872 c 0
 528 872 424 766 344 418 c 1
 334 46 274 -50 98 -22 c 1
 70 20 l 1
 166 532 l 1
 274 1380 l 1
EndSplineSet
EndChar

StartChar: i
Encoding: 105 105 34
Width: 716
VWidth: 0
Flags: HMW
LayerCount: 3
Back
SplineSet
414 1576 m 0
 474 1576 518 1520 518 1460 c 0
 518 1378 460 1304 378 1304 c 0
 318 1304 276 1356 276 1416 c 0
 276 1490 332 1576 414 1576 c 0
442 688 m 1
 410 306 l 2
 400 192 402 146 442 146 c 0
 486 146 578 192 638 296 c 1
 688 260 l 1
 624 88 518 -28 322 -28 c 0
 162 -28 198 154 220 356 c 2
 262 738 l 2
 274 848 266 910 226 910 c 0
 182 910 116 812 56 724 c 1
 0 762 l 1
 64 934 212 1094 352 1094 c 0
 512 1094 460 862 442 688 c 1
EndSplineSet
Fore
SplineSet
414 1576 m 4
 474 1576 518 1520 518 1460 c 4
 518 1378 460 1304 378 1304 c 4
 318 1304 276 1356 276 1416 c 4
 276 1490 332 1576 414 1576 c 4
442 688 m 5
 410 306 l 6
 400 192 402 146 442 146 c 4
 486 146 578 192 638 296 c 5
 688 260 l 5
 624 88 518 -28 322 -28 c 4
 162 -28 198 154 220 356 c 6
 262 738 l 6
 274 848 266 910 226 910 c 4
 182 910 116 812 56 724 c 5
 0 762 l 5
 64 934 212 1094 352 1094 c 4
 512 1094 460 862 442 688 c 5
EndSplineSet
Layer: 2
SplineSet
282 306 m 18
 276 268 272 230 272 198 c 3
 272 152 282 126 324 126 c 3
 364 126 408 136 432 154 c 1
 456 94 l 1
 400 30 332 -26 204 -26 c 3
 120 -26 80 38 80 146 c 3
 80 208 90 264 116 470 c 10
 168 904 l 17
 4 936 l 1
 16 1024 l 1
 352 1052 l 1
 372 1026 l 1
 282 306 l 18
332 1574 m 27
 392 1574 436 1518 436 1458 c 24
 436 1376 378 1302 296 1302 c 19
 236 1302 194 1354 194 1414 c 0
 194 1488 250 1574 332 1574 c 27
EndSplineSet
EndChar

StartChar: j
Encoding: 106 106 35
Width: 592
VWidth: 0
Flags: HMW
LayerCount: 3
Back
SplineSet
224 288 m 1
 286 904 l 1
 122 936 l 1
 134 1024 l 1
 470 1052 l 1
 490 1026 l 1
 392 152 l 1
 328 -324 96 -468 -90 -468 c 0
 -300 -468 -306 -296 -164 -236 c 1
 -98 -320 -42 -342 12 -342 c 0
 134 -342 176 -88 224 288 c 1
450 1578 m 0
 514 1578 560 1518 560 1456 c 0
 560 1370 498 1292 412 1292 c 0
 348 1292 304 1346 304 1410 c 0
 304 1488 364 1578 450 1578 c 0
EndSplineSet
Fore
SplineSet
224 288 m 1
 286 904 l 1
 122 936 l 1
 134 1024 l 1
 470 1052 l 1
 490 1026 l 1
 392 152 l 1
 328 -324 96 -468 -90 -468 c 0
 -300 -468 -306 -296 -164 -236 c 1
 -98 -320 -42 -342 12 -342 c 0
 134 -342 176 -88 224 288 c 1
450 1578 m 0
 514 1578 560 1518 560 1456 c 0
 560 1370 498 1292 412 1292 c 0
 348 1292 304 1346 304 1410 c 0
 304 1488 364 1578 450 1578 c 0
EndSplineSet
Layer: 2
SplineSet
472.49 1056.64 m 1
 364.01 116.48 l 2
 326.02 -226.72 144.57 -468 -123.75 -468 c 0
 -211.11 -468 -276.494 -418.08 -266.996 -368.16 c 0
 -260.814 -326.56 -229.254 -289.12 -175.174 -289.12 c 0
 -98.2129 -289.12 -105.779 -378.56 -3.85938 -378.56 c 0
 64.7812 -378.56 128.295 -287.04 158.719 -33.2793 c 2
 269.04 929.76 l 1
 144.211 950.56 l 1
 163.021 1031.68 l 1
 472.49 1056.64 l 1
327.892 1374.88 m 1
 343.808 1443.52 392.014 1480.96 460.652 1480.96 c 0
 523.052 1480.96 566.37 1443.52 550.454 1374.88 c 1
 538.696 1306.24 488.832 1264.64 422.272 1264.64 c 0
 355.712 1264.64 316.134 1306.24 327.892 1374.88 c 1
EndSplineSet
EndChar

StartChar: l
Encoding: 108 108 36
Width: 556
VWidth: 0
Flags: HMW
LayerCount: 3
Back
SplineSet
110 356 m 2
 202 1068 l 1
 234 1380 l 1
 70 1412 l 1
 82 1500 l 1
 418 1528 l 1
 438 1502 l 1
 348 752 l 1
 302 306 l 2
 290 192 298 146 338 146 c 0
 382 146 474 192 534 296 c 1
 584 260 l 1
 520 88 412 -28 216 -28 c 0
 56 -28 84 158 110 356 c 2
EndSplineSet
Fore
SplineSet
110 356 m 2
 202 1068 l 1
 234 1380 l 1
 70 1412 l 1
 82 1500 l 1
 418 1528 l 1
 438 1502 l 1
 348 752 l 1
 302 306 l 2
 290 192 298 146 338 146 c 0
 382 146 474 192 534 296 c 1
 584 260 l 1
 520 88 412 -28 216 -28 c 0
 56 -28 84 158 110 356 c 2
EndSplineSet
Layer: 2
SplineSet
386 1158 m 18
 403.268 1331.27 456.05 1564 296 1564 c 0
 156 1564 8 1404 -56 1232 c 1
 0 1194 l 1
 60 1282 125.594 1380 170 1380 c 0
 210.05 1380 219.616 1321.73 206 1208 c 10
 104 356 l 22
 80 156 45.9492 -28 206 -28 c 7
 402.042 -28 508 88 572 260 c 5
 522 296 l 5
 462 192 370.406 146 326 146 c 7
 285.95 146 282 192 294 306 c 14
 386 1158 l 18
EndSplineSet
EndChar

StartChar: m
Encoding: 109 109 37
Width: 1702
VWidth: 0
Flags: HMW
LayerCount: 3
Back
SplineSet
970 928 m 0
 970 860 960 792 948 756 c 1
 960 750 l 1
 1036 942 1142 1084 1294 1084 c 0
 1404 1084 1474 1016 1474 894 c 0
 1474 860 1472 784 1466 740 c 2
 1412 304 l 2
 1398 192 1404 144 1444 144 c 0
 1488 144 1580 190 1640 294 c 1
 1690 258 l 1
 1626 86 1520 -30 1324 -30 c 0
 1164 -30 1208 154 1232 354 c 2
 1260 586 l 2
 1271 678 1276 754 1276 772 c 0
 1276 854 1252 872 1212 872 c 0
 1098 872 1002 762 922 414 c 1
 912 42 858 -62 682 -34 c 1
 654 8 l 1
 748 466 l 1
 762 558 776 756 776 774 c 0
 776 856 748 870 708 870 c 0
 602 870 502 764 422 416 c 1
 412 44 352 -50 176 -22 c 1
 148 20 l 1
 248 468 l 1
 272 748 l 2
 283 878 278 928 232 928 c 0
 200 928 114 824 66 740 c 1
 10 784 l 1
 66 932 206 1112 370 1112 c 0
 536 1112 436 836 416 690 c 1
 430 686 l 1
 498 894 652 1082 804 1082 c 0
 914 1082 970 1040 970 928 c 0
EndSplineSet
Fore
SplineSet
970 928 m 0
 970 860 960 792 948 756 c 1
 960 750 l 1
 1036 942 1142 1084 1294 1084 c 0
 1404 1084 1474 1016 1474 894 c 0
 1474 860 1472 784 1466 740 c 2
 1412 304 l 2
 1398 192 1404 144 1444 144 c 0
 1488 144 1580 190 1640 294 c 1
 1690 258 l 1
 1626 86 1520 -30 1324 -30 c 0
 1164 -30 1208 154 1232 354 c 2
 1260 586 l 2
 1271 678 1276 754 1276 772 c 0
 1276 854 1252 872 1212 872 c 0
 1098 872 1002 762 922 414 c 1
 912 42 858 -62 682 -34 c 1
 654 8 l 1
 748 466 l 1
 762 558 776 756 776 774 c 0
 776 856 748 870 708 870 c 0
 602 870 502 764 422 416 c 1
 412 44 352 -50 176 -22 c 1
 148 20 l 1
 248 468 l 1
 272 748 l 2
 283 878 278 928 232 928 c 0
 200 928 114 824 66 740 c 1
 10 784 l 1
 66 932 206 1112 370 1112 c 0
 536 1112 436 836 416 690 c 1
 430 686 l 1
 498 894 652 1082 804 1082 c 0
 914 1082 970 1040 970 928 c 0
EndSplineSet
EndChar

StartChar: n
Encoding: 110 110 38
Width: 1174
VWidth: 0
Flags: HMW
LayerCount: 3
Back
SplineSet
422 416 m 1
 412 44 352 -56 176 -28 c 1
 148 14 l 1
 248 468 l 1
 272 748 l 2
 283 878 278 928 232 928 c 0
 200 928 114 824 66 740 c 1
 10 784 l 1
 66 932 206 1112 370 1112 c 0
 536 1112 436 836 416 690 c 1
 430 686 l 1
 498 894 652 1082 804 1082 c 0
 914 1082 984 1018 984 896 c 0
 984 862 980 786 974 742 c 2
 920 306 l 2
 906 194 912 146 952 146 c 0
 996 146 1088 192 1148 296 c 1
 1198 260 l 1
 1134 88 1028 -28 832 -28 c 0
 672 -28 716 156 740 356 c 2
 768 588 l 2
 779 680 784 756 784 774 c 0
 784 856 760 870 720 870 c 0
 606 870 502 764 422 416 c 1
EndSplineSet
Fore
SplineSet
422 416 m 1
 412 44 352 -56 176 -28 c 1
 148 14 l 1
 248 468 l 1
 272 748 l 2
 283 878 278 928 232 928 c 0
 200 928 114 824 66 740 c 1
 10 784 l 1
 66 932 206 1112 370 1112 c 0
 536 1112 436 836 416 690 c 1
 430 686 l 1
 498 894 652 1082 804 1082 c 0
 914 1082 984 1018 984 896 c 0
 984 862 980 786 974 742 c 2
 920 306 l 2
 906 194 912 146 952 146 c 0
 996 146 1088 192 1148 296 c 1
 1198 260 l 1
 1134 88 1028 -28 832 -28 c 0
 672 -28 716 156 740 356 c 2
 768 588 l 2
 779 680 784 756 784 774 c 0
 784 856 760 870 720 870 c 0
 606 870 502 764 422 416 c 1
EndSplineSet
EndChar

StartChar: o
Encoding: 111 111 39
Width: 936
VWidth: 0
Flags: HMW
LayerCount: 3
Back
SplineSet
392 -30 m 0
 184 -30 70 174 70 426 c 0
 70 768 276 1080 542 1080 c 0
 728 1080 866 896 866 650 c 0
 866 336 692 -30 392 -30 c 0
464 944 m 0
 300 944 240 730 240 556 c 0
 240 360 320 108 472 108 c 0
 624 108 692 332 692 512 c 0
 692 702 616 944 464 944 c 0
EndSplineSet
Fore
SplineSet
392 -30 m 0
 184 -30 70 174 70 426 c 0
 70 768 276 1080 542 1080 c 0
 728 1080 866 896 866 650 c 0
 866 336 692 -30 392 -30 c 0
464 944 m 0
 300 944 240 730 240 556 c 0
 240 360 320 108 472 108 c 0
 624 108 692 332 692 512 c 0
 692 702 616 944 464 944 c 0
EndSplineSet
EndChar

StartChar: p
Encoding: 112 112 40
Width: 1076
VWidth: 0
Flags: HMW
LayerCount: 3
Back
SplineSet
203 240 m 1
 260 748 l 2
 275 878 266 940 220 940 c 0
 188 940 104 824 56 740 c 1
 0 784 l 1
 56 932 194 1124 358 1124 c 0
 528 1124 424 836 404 690 c 1
 418 688 l 1
 496 896 632 1078 760 1078 c 0
 910 1078 1006 912 1006 672 c 0
 1006 148 666 -36 390 -20 c 1
 430 128 l 1
 598 88 796 162 796 652 c 0
 796 820 768 886 694 886 c 0
 578 886 424 628 373 212 c 1
 296 -328 l 5
 498 -356 l 1
 476 -442 l 1
 -58 -442 l 1
 -34 -352 l 1
 28 -340 l 2
 127.374 -320.766 128 -248 203 240 c 1
EndSplineSet
Fore
SplineSet
203 248 m 1
 260 748 l 2
 275 878 266 940 220 940 c 0
 188 940 104 824 56 740 c 1
 0 784 l 1
 56 932 194 1124 358 1124 c 0
 528 1124 424 836 404 690 c 1
 418 688 l 1
 496 896 632 1078 760 1078 c 0
 910 1078 1006 912 1006 672 c 0
 1006 148 672 -21 410 -20 c 1
 400 79 l 1
 588 102 796 162 796 652 c 0
 796 820 768 886 694 886 c 0
 578 886 424 628 373 212 c 1
 296 -328 l 1
 498 -356 l 1
 476 -442 l 1
 -58 -442 l 1
 -34 -352 l 1
 28 -340 l 2
 127 -321 128 -240 203 248 c 1
EndSplineSet
EndChar

StartChar: q
Encoding: 113 113 41
Width: 976
VWidth: 0
Flags: HMW
LayerCount: 3
Back
SplineSet
586 174 m 1
 542 66 406 -30 272 -30 c 0
 128 -30 70 126 70 264 c 0
 70 628 310 1064 578 1064 c 0
 648 1064 682 1044 710 1012 c 1
 722 1012 l 1
 766 1102 l 1
 798 1102 l 1
 884 1074 l 1
 796 336 l 1
 736 -312 l 1
 900 -350 l 1
 880 -436 l 1
 314 -436 l 1
 336 -346 l 1
 542 -306 l 1
 630 384 l 1
 670 824 l 1
 646 868 584 938 520 938 c 0
 328 938 262 604 262 368 c 0
 262 270 290 130 374 130 c 0
 454 130 510 174 566 246 c 1
 586 174 l 1
EndSplineSet
Fore
SplineSet
586 174 m 1
 542 66 406 -30 272 -30 c 0
 128 -30 70 126 70 264 c 0
 70 628 310 1064 578 1064 c 0
 648 1064 682 1044 710 1012 c 1
 722 1012 l 1
 766 1102 l 1
 798 1102 l 1
 884 1074 l 1
 796 336 l 1
 736 -312 l 1
 900 -350 l 1
 880 -436 l 1
 314 -436 l 1
 336 -346 l 1
 542 -306 l 1
 630 384 l 1
 670 824 l 1
 646 868 584 938 520 938 c 0
 328 938 262 604 262 368 c 0
 262 270 290 130 374 130 c 0
 454 130 510 174 566 246 c 1
 586 174 l 1
EndSplineSet
EndChar

StartChar: r
Encoding: 114 114 42
Width: 856
VWidth: 0
Flags: HMW
LayerCount: 3
Back
SplineSet
422 416 m 1
 412 44 352 -56 176 -28 c 1
 148 14 l 1
 248 468 l 1
 272 748 l 2
 283 878 278 928 232 928 c 0
 200 928 114 824 66 740 c 1
 10 784 l 1
 66 932 206 1112 370 1112 c 0
 536 1112 440 836 420 690 c 1
 436 686 l 1
 496 898 636 1084 756 1084 c 0
 830 1084 866 1010 866 954 c 0
 866 880 812 818 762 782 c 1
 748 808 714 824 676 824 c 0
 524 824 472 620 422 416 c 1
EndSplineSet
Fore
SplineSet
422 416 m 1
 412 44 352 -56 176 -28 c 1
 148 14 l 1
 248 468 l 1
 272 748 l 2
 283 878 278 928 232 928 c 0
 200 928 114 824 66 740 c 1
 10 784 l 1
 66 932 206 1112 370 1112 c 0
 536 1112 440 836 420 690 c 1
 436 686 l 1
 496 898 636 1084 756 1084 c 0
 830 1084 866 1010 866 954 c 0
 866 880 812 818 762 782 c 1
 748 808 714 824 676 824 c 0
 524 824 472 620 422 416 c 1
EndSplineSet
Layer: 2
SplineSet
338 416 m 5
 418 764 522 870 636 870 c 3
 676 870 700 856 700 774 c 3
 700 756.154 695.56 680.054 684.322 588 c 2
 656 356 l 2
 632 156 587.95 -28 748 -28 c 3
 944.042 -28 1050 88 1114 260 c 1
 1064 296 l 1
 1004 192 912.406 146 868 146 c 3
 827.95 146 822.034 193.234 836 306 c 2
 890 742 l 2
 896 786 900 862 900 896 c 3
 900 1018 830 1082 720 1082 c 3
 568 1082 414 894 346 686 c 5
 332 690 l 5
 352 836 452 1112 286 1112 c 20
 121.221 1112 -18 932 -74 784 c 5
 -18 740 l 5
 30 824 115.252 928 148 928 c 7
 194.043 928 200 878 188 748 c 6
 164 468 l 5
 64 14 l 5
 92 -28 l 5
 268 -56 328 44 338 416 c 5
EndSplineSet
EndChar

StartChar: s
Encoding: 115 115 43
Width: 838
VWidth: 0
Flags: HMW
LayerCount: 3
Back
SplineSet
542 206 m 3
 542 386 158 516 158 748 c 3
 158 944.01 336 1082 514 1082 c 3
 646 1082 742 1022 742 936 c 0
 742 896 698 834 636 802 c 1
 612 850 518 972 430 972 c 3
 380 972 312 932.1 312 852 c 3
 312 684 720 530 720 276 c 3
 720 104 522 -42 302 -42 c 3
 152 -42 44 32 44 128 c 0
 44 192 94 268 182 280 c 1
 210 192 290 68 378 68 c 3
 478 68 542 115.978 542 206 c 3
EndSplineSet
Fore
SplineSet
542 206 m 3
 542 386 158 516 158 748 c 3
 158 944 336 1082 514 1082 c 3
 646 1082 742 1022 742 936 c 0
 742 896 698 834 636 802 c 1
 612 850 518 972 430 972 c 3
 380 972 312 932 312 852 c 3
 312 684 720 530 720 276 c 3
 720 104 522 -42 302 -42 c 3
 152 -42 44 32 44 128 c 0
 44 192 94 268 182 280 c 1
 210 192 290 68 378 68 c 3
 478 68 542 116 542 206 c 3
EndSplineSet
Layer: 2
SplineSet
538 186 m 4
 538 366 158 540 158 772 c 4
 158 932 336 1082 514 1082 c 4
 646 1082 742 1022 742 936 c 4
 742 896 698 834 636 802 c 5
 612 850 518 972 430 972 c 4
 380 972 312 940 312 876 c 4
 312 708 716 510 716 256 c 4
 716 116 522 -42 302 -42 c 4
 152 -42 44 32 44 128 c 4
 44 192 94 268 182 280 c 5
 210 192 290 68 378 68 c 4
 478 68 538 116 538 186 c 4
EndSplineSet
EndChar

StartChar: t
Encoding: 116 116 44
Width: 726
VWidth: 0
Flags: HMW
LayerCount: 3
Back
SplineSet
375 183 m 3
 447 183 522 251 616 475 c 1
 678 430 l 1
 590 150 462 -26 282 -26 c 3
 142 -26 113 56 164 428 c 2
 234 936 l 1
 100 926 l 1
 128 1054 l 1
 248 1042 l 1
 272 1292 l 1
 454 1316 l 1
 468 1300 l 1
 428 1042 l 1
 706 1060 l 1
 675 920 l 1
 414 936 l 1
 360 472 l 2
 330 212 333 183 375 183 c 3
EndSplineSet
Fore
SplineSet
375 183 m 3
 447 183 522 251 616 475 c 1
 678 430 l 1
 590 150 462 -26 282 -26 c 3
 142 -26 113 56 164 428 c 2
 234 936 l 1
 100 926 l 1
 128 1054 l 1
 248 1042 l 1
 272 1292 l 1
 454 1316 l 1
 468 1300 l 1
 428 1042 l 1
 706 1060 l 1
 675 920 l 1
 414 936 l 1
 360 472 l 2
 330 212 333 183 375 183 c 3
EndSplineSet
EndChar

StartChar: u
Encoding: 117 117 45
Width: 1186
VWidth: 0
Flags: HMW
LayerCount: 3
Back
SplineSet
748 646 m 1
 752 1018 802 1118 978 1090 c 1
 1006 1048 l 1
 922 594 l 1
 902 342 l 2
 888 170 894 148 940 148 c 0
 982 148 1076 242 1122 326 c 1
 1170 292 l 1
 1104 64 976 -28 812 -28 c 0
 674 -28 698 168 740 316 c 1
 726 320 l 1
 652 112 532 -30 380 -30 c 0
 270 -30 200 34 200 156 c 0
 200 190 204 266 210 310 c 2
 272 738 l 2
 288 850 280 900 240 900 c 0
 196 900 126 812 66 724 c 1
 10 762 l 1
 74 934 222 1094 362 1094 c 0
 522 1094 482 900 450 688 c 2
 416 464 l 2
 402 372 400 296 400 278 c 0
 400 196 424 182 464 182 c 0
 572 182 668 298 748 646 c 1
EndSplineSet
Fore
SplineSet
748 646 m 1
 752 1018 802 1118 978 1090 c 1
 1006 1048 l 1
 922 594 l 1
 902 342 l 2
 888 170 894 148 940 148 c 0
 982 148 1076 242 1122 326 c 1
 1170 292 l 1
 1104 64 976 -28 812 -28 c 0
 674 -28 698 168 740 316 c 1
 726 320 l 1
 652 112 532 -30 380 -30 c 0
 270 -30 200 34 200 156 c 0
 200 190 204 266 210 310 c 2
 272 738 l 2
 288 850 280 900 240 900 c 0
 196 900 126 812 66 724 c 1
 10 762 l 1
 74 934 222 1094 362 1094 c 0
 522 1094 482 900 450 688 c 2
 416 464 l 2
 402 372 400 296 400 278 c 0
 400 196 424 182 464 182 c 0
 572 182 668 298 748 646 c 1
EndSplineSet
EndChar

StartChar: v
Encoding: 118 118 46
Width: 1028
VWidth: 0
Flags: HMW
LayerCount: 3
Back
SplineSet
426 482 m 2
 401 258 450 110 552 110 c 0
 720 110 810 428 810 668 c 0
 810 872 724 972 660 1030 c 1
 690 1064 738 1090 796 1090 c 0
 912 1090 958 962 958 840 c 0
 958 460 770 -24 456 -24 c 0
 258 -24 206 174 234 422 c 1
 270 724 l 2
 283 834 280 896 240 896 c 0
 196 896 128 798 64 710 c 1
 8 748 l 1
 78 920 232 1080 372 1080 c 0
 532 1080 457 762 438 590 c 2
 426 482 l 2
EndSplineSet
Fore
SplineSet
426 482 m 2
 401 258 450 110 552 110 c 0
 720 110 810 428 810 668 c 0
 810 872 724 972 660 1030 c 1
 690 1064 738 1090 796 1090 c 0
 912 1090 958 962 958 840 c 0
 958 460 770 -24 456 -24 c 0
 258 -24 206 174 234 422 c 1
 270 724 l 2
 283 834 280 896 240 896 c 0
 196 896 128 798 64 710 c 1
 8 748 l 1
 78 920 232 1080 372 1080 c 0
 532 1080 457 762 438 590 c 2
 426 482 l 2
EndSplineSet
EndChar

StartChar: x
Encoding: 120 120 47
Width: 1032
VWidth: 0
Flags: HMW
LayerCount: 3
Back
SplineSet
698 -26 m 0
 614 -26 570 42 534 158 c 2
 470 362 l 1
 372 114 226 -40 110 -40 c 0
 20 -40 -12 28 -12 84 c 0
 -12 136 0 184 56 228 c 1
 88 200 132 192 168 192 c 0
 280 192 358 314 430 484 c 1
 370 684 318 884 264 884 c 0
 222 884 166 800 118 716 c 1
 62 760 l 1
 118 908 218 1064 374 1064 c 0
 476 1064 522 898 582 680 c 1
 676 876 816 1052 920 1052 c 0
 994 1052 1040 1004 1040 948 c 0
 1040 876 1008 828 976 792 c 1
 944 820 904 824 866 824 c 0
 770 824 680 718 618 572 c 1
 734 226 l 2
 750 178 774 138 804 138 c 0
 848 138 912 194 966 286 c 1
 1016 250 l 1
 964 90 894 -26 698 -26 c 0
EndSplineSet
Fore
SplineSet
698 -25 m 4
 614 -25 570 43 534 159 c 6
 470 363 l 5
 372 115 226 -39 110 -39 c 4
 20 -39 -12 29 -12 85 c 4
 -12 137 0 185 56 229 c 5
 88 201 132 193 168 193 c 4
 280 193 358 315 430 485 c 5
 370 685 318 885 264 885 c 4
 222 885 166 801 118 717 c 5
 62 761 l 5
 118 909 218 1065 374 1065 c 4
 476 1065 522 899 582 681 c 5
 676 877 816 1053 920 1053 c 4
 994 1053 1040 1005 1040 949 c 4
 1040 877 1008 829 976 793 c 5
 944 821 904 825 866 825 c 4
 770 825 680 719 618 573 c 5
 734 227 l 6
 750 179 774 139 804 139 c 4
 848 139 912 195 966 287 c 5
 1016 251 l 5
 964 91 894 -25 698 -25 c 4
EndSplineSet
EndChar

StartChar: y
Encoding: 121 121 48
Width: 1138
VWidth: 0
Flags: HMW
LayerCount: 3
Back
SplineSet
654.768 196 m 17
 681.592 196 l 1
 882.012 495.224 885 556.778 885 701 c 3
 885 857.051 788.676 963.128 722.932 1024 c 1
 751.13 1056.72 815.72 1094.74 873.918 1094.74 c 0
 986.162 1094.74 1071.58 976 1071.58 854 c 3
 1071.58 603.885 928 384 626.998 0 c 0
 626.998 0 644 120 654.768 196 c 17
295.624 904 m 3
 262.876 904 181.695 800 136.982 716 c 1
 79.2598 760 l 1
 129.469 908 266.426 1088 406.426 1088 c 0
 514 1088 569.479 1010 591.876 836 c 2
 667.292 248 l 2
 713.884 -115.252 512.123 -460 251.06 -460 c 3
 165 -460 81 -406 80.834 -320 c 24
 81 -254 99.1426 -218 157.588 -170 c 1
 218.992 -216 261 -236 334.474 -236 c 27
 497 -236 545.343 -167.28 503.364 144 c 2
 423.528 736 l 2
 407.896 846 352 904 295.624 904 c 3
EndSplineSet
Fore
SplineSet
655 196 m 17
 682 196 l 1
 882 495 885 557 885 701 c 3
 885 857 789 963 723 1024 c 1
 751 1057 816 1095 874 1095 c 0
 986 1095 1072 976 1072 854 c 3
 1072 604 928 384 627 0 c 0
 627 0 644 120 655 196 c 17
296 904 m 3
 263 904 182 800 137 716 c 1
 79 760 l 1
 129 908 266 1088 406 1088 c 0
 514 1088 570 1010 592 836 c 2
 667 248 l 2
 714 -115 512 -460 251 -460 c 3
 165 -460 81 -406 81 -320 c 24
 81 -254 100 -218 158 -170 c 1
 219 -216 261 -236 334 -236 c 27
 497 -236 545 -167 503 144 c 2
 424 736 l 2
 408 846 352 904 296 904 c 3
EndSplineSet
EndChar

StartChar: z
Encoding: 122 122 49
Width: 946
VWidth: 0
Flags: HMW
LayerCount: 3
Back
SplineSet
654 144 m 0
 716 144 794 242 842 326 c 1
 888 274 l 1
 830 90 728 -16 556 -16 c 0
 416 -16 364 104 224 120 c 1
 120 -16 l 1
 92 -16 l 1
 14 42 l 1
 318 412 l 1
 656 850 l 1
 504 836 492 924 304 924 c 0
 240 924 190 840 146 754 c 1
 90 798 l 1
 146 968 244 1094 412 1094 c 0
 524 1094 570 1024 770 992 c 1
 818 1066 l 1
 850 1064 l 1
 922 1008 l 1
 536 532 l 1
 342 282 l 1
 462 262 574 144 654 144 c 0
EndSplineSet
Fore
SplineSet
654 144 m 0
 716 144 794 242 842 326 c 1
 888 274 l 1
 830 90 728 -16 556 -16 c 0
 416 -16 364 104 224 120 c 1
 120 -16 l 1
 92 -16 l 1
 14 42 l 1
 318 412 l 1
 656 850 l 1
 504 836 492 924 304 924 c 0
 240 924 190 840 146 754 c 1
 90 798 l 1
 146 968 244 1094 412 1094 c 0
 524 1094 570 1024 770 992 c 1
 818 1066 l 1
 850 1064 l 1
 922 1008 l 1
 536 532 l 1
 342 282 l 1
 462 262 574 144 654 144 c 0
EndSplineSet
Layer: 2
SplineSet
310 346 m 3
 310 209.766 311.882 108 380 108 c 3
 528.122 108 732 440 726 810 c 1
 702 854 646.498 918 582 918 c 3
 390 918 310 562.038 310 346 c 3
878 1076 m 1
 950 1042 l 1
 876 570 l 1
 838 284 l 2
 820 144 834.926 126 882 126 c 7
 930.166 126 1020 226 1068 310 c 5
 1116 266 l 5
 1058 82 954.34 -50 742 -50 c 7
 642 -50 608 86 678 278 c 1
 662 278 l 1
 626 150 474.788 -50 312 -50 c 3
 167.945 -50 120 89.7891 120 242 c 3
 120 542.026 346 1044 642 1044 c 3
 696.038 1044 752 1020 774 990 c 1
 786 990 l 1
 844 1076 l 1
 878 1076 l 1
EndSplineSet
EndChar

StartChar: comma
Encoding: 44 44 50
Width: 442
VWidth: 0
Flags: HMW
LayerCount: 3
Back
SplineSet
-22 -296 m 1
 142 -254 232 -152 232 -74 c 0
 232 -8 196 44 110 44 c 0
 98 44 88 40 74 36 c 1
 68 62 66 74 66 102 c 0
 66 202 178 264 240 264 c 0
 324 264 418 222 418 38 c 0
 418 -78 324 -296 -8 -380 c 1
 -22 -296 l 1
EndSplineSet
Fore
SplineSet
-22 -296 m 1
 142 -254 232 -152 232 -74 c 0
 232 -8 196 44 110 44 c 0
 98 44 88 40 74 36 c 1
 68 62 66 74 66 102 c 0
 66 202 178 264 240 264 c 0
 324 264 418 222 418 38 c 0
 418 -78 324 -296 -8 -380 c 1
 -22 -296 l 1
EndSplineSet
EndChar

StartChar: period
Encoding: 46 46 51
Width: 490
VWidth: 0
Flags: HMW
LayerCount: 3
Back
SplineSet
244 248 m 0
 324 248 390 188 390 110 c 0
 390 28 324 -38 244 -38 c 0
 164 -38 100 30 100 112 c 0
 100 190 166 248 244 248 c 0
EndSplineSet
Fore
SplineSet
244 248 m 0
 324 248 390 188 390 110 c 0
 390 28 324 -38 244 -38 c 0
 164 -38 100 30 100 112 c 0
 100 190 166 248 244 248 c 0
EndSplineSet
EndChar

StartChar: colon
Encoding: 58 58 52
Width: 490
VWidth: 0
Flags: HMW
LayerCount: 3
Back
SplineSet
250 272 m 0
 324 272 386 214 386 142 c 0
 386 64 324 2 250 2 c 0
 174 2 114 66 114 144 c 0
 114 216 176 272 250 272 c 0
250 1032 m 0
 324 1032 386 976 386 902 c 0
 386 824 324 762 250 762 c 0
 174 762 114 826 114 904 c 0
 114 978 176 1032 250 1032 c 0
EndSplineSet
Fore
SplineSet
250 272 m 0
 324 272 386 214 386 142 c 0
 386 64 324 2 250 2 c 0
 174 2 114 66 114 144 c 0
 114 216 176 272 250 272 c 0
250 1032 m 0
 324 1032 386 976 386 902 c 0
 386 824 324 762 250 762 c 0
 174 762 114 826 114 904 c 0
 114 978 176 1032 250 1032 c 0
EndSplineSet
EndChar

StartChar: k
Encoding: 107 107 53
Width: 1062
VWidth: 0
Flags: HMW
LayerCount: 3
Back
SplineSet
478 508 m 1
 662 538 772 620 772 776 c 0
 772 858 748 872 708 872 c 0
 594 872 490 766 410 418 c 1
 400 46 338 -76 140 -16 c 1
 132 0 l 1
 232 532 l 1
 340 1380 l 1
 176 1412 l 1
 188 1500 l 1
 536 1528 l 1
 556 1502 l 1
 480 1006 l 1
 404 692 l 1
 418 688 l 1
 486 896 640 1084 792 1084 c 0
 902 1084 972 1020 972 898 c 0
 972 668 786 534 664 488 c 1
 716 352 l 2
 768 218 806 148 846 148 c 0
 890 148 972 204 1026 296 c 1
 1076 260 l 1
 1024 100 942 -16 746 -16 c 0
 658 -16 592 132 544 268 c 2
 466 488 l 1
 478 508 l 1
EndSplineSet
Fore
SplineSet
478 508 m 1
 662 538 772 620 772 776 c 0
 772 858 748 872 708 872 c 0
 594 872 490 766 410 418 c 1
 400 46 338 -76 140 -16 c 1
 132 0 l 1
 232 532 l 1
 340 1380 l 1
 176 1412 l 1
 188 1500 l 1
 536 1528 l 1
 556 1502 l 1
 480 1006 l 1
 404 692 l 1
 418 688 l 1
 486 896 640 1084 792 1084 c 0
 902 1084 972 1020 972 898 c 0
 972 668 786 534 664 488 c 1
 716 352 l 2
 768 218 806 148 846 148 c 0
 890 148 972 204 1026 296 c 1
 1076 260 l 1
 1024 100 942 -16 746 -16 c 0
 658 -16 592 132 544 268 c 2
 466 488 l 1
 478 508 l 1
EndSplineSet
EndChar

StartChar: w
Encoding: 119 119 54
Width: 1450
VWidth: 0
Flags: HMW
LayerCount: 3
Back
SplineSet
194 424 m 1
 268 738 l 1
 290 836 302 910 262 910 c 0
 218 910 134 812 58 724 c 1
 10 762 l 1
 104 934 282 1094 422 1094 c 0
 582 1094 485 864 442 688 c 2
 388 464 l 2
 345 286 356 140 488 140 c 0
 596 140 688 222 724 576 c 1
 696 948 738 1028 916 1000 c 1
 948 958 l 1
 878 542 l 1
 888 342 l 2
 896 190 962 128 1008 128 c 0
 1152 128 1232 414 1232 636 c 0
 1232 800 1156 958 1108 1028 c 1
 1142 1054 1186 1078 1242 1078 c 0
 1334 1078 1380 936 1380 836 c 0
 1380 448 1208 -28 888 -28 c 0
 746 -28 712 92 718 232 c 1
 704 236 l 1
 650 64 516 -30 364 -30 c 0
 176 -30 130 146 194 424 c 1
EndSplineSet
Fore
SplineSet
194 424 m 5
 268 738 l 5
 290 836 302 910 262 910 c 4
 218 910 134 812 58 724 c 5
 10 762 l 5
 104 934 282 1094 422 1094 c 4
 582 1094 485 864 442 688 c 6
 388 464 l 6
 345 286 356 140 488 140 c 4
 596 140 688 222 724 576 c 5
 696 948 738 1028 916 1000 c 5
 948 958 l 5
 878 542 l 5
 888 342 l 6
 896 190 962 128 1008 128 c 4
 1152 128 1232 414 1232 636 c 4
 1232 800 1156 958 1108 1028 c 5
 1142 1054 1186 1078 1242 1078 c 4
 1334 1078 1380 936 1380 836 c 4
 1380 448 1208 -28 888 -28 c 4
 746 -28 712 92 718 232 c 5
 704 236 l 5
 650 64 516 -30 364 -30 c 4
 176 -30 130 146 194 424 c 5
EndSplineSet
Layer: 2
SplineSet
222 424 m 14
 295.326 738 l 6
 318.304 836.396 330.144 910 290.094 910 c 7
 245.688 910 162.562 812 86.8203 724 c 5
 37.6191 762 l 5
 132.387 934 309.008 1094 449.008 1094 c 7
 609.058 1094 513.51 864.608 470.38 688 c 6
 415.678 464 l 6
 372 286 384 140 516 140 c 23
 624 140 713.098 222 748.594 576 c 5
 720.044 948 761.682 1028 940.584 1000 c 5
 972.938 958 l 5
 901.524 542 l 5
 912.096 342 l 6
 920 190 989.958 128 1036 128 c 7
 1220.01 128 1228.82 394.708 1256 616 c 4
 1275.5 774.808 1200.05 957.196 1152.71 1027.26 c 5
 1187.11 1054.19 1232.73 1068.21 1288.54 1061.36 c 4
 1409.42 1046.51 1437.36 894.932 1425.05 794.724 c 4
 1370.43 350.048 1236.26 -28 916 -28 c 7
 774.236 -28 736.004 92 741.914 232 c 5
 727.5 236 l 5
 673.586 64 544 -30 392 -30 c 7
 203.48 -30 158 146 222 424 c 14
EndSplineSet
EndChar

StartChar: hyphen
Encoding: 45 45 56
Width: 690
VWidth: 0
Flags: HMW
LayerCount: 3
Back
SplineSet
110 604 m 1
 604 626 l 1
 590 504 l 1
 96 482 l 1
 110 604 l 1
EndSplineSet
Fore
SplineSet
110 604 m 1
 604 626 l 1
 590 504 l 1
 96 482 l 1
 110 604 l 1
EndSplineSet
EndChar

StartChar: one
Encoding: 49 49 57
Width: 1190
VWidth: 2000
InSpiro: 1
Flags: HMW
HStem: 0 88<180 270.794 943.518 1018> 1218 92<374 453.326>
DStem2: 522 142 726 134 0.139231 0.99026<20.481 1086.68>
LayerCount: 3
Back
SplineSet
721.32 134 m 1
 1038.58 98 l 1
 1017.93 2 l 1
 158 0 l 1
 176.927 88 l 1
 517.041 142 l 1
 631.467 1218 l 1
 311.467 1218 l 1
 328.254 1310 l 1
 823.111 1400 l 1
 855.111 1400 l 1
 721.32 134 l 1
EndSplineSet
Fore
SplineSet
460 -18 m 1
 487.146 140.864 513.48 299.867 539 459 c 0
 581.602 724.649 621.938 990.662 660 1257 c 1
 652 1254 l 1
 640.403 1222.29 627.246 1191.13 612 1161 c 0
 593.421 1124.29 571.311 1088.88 542 1060 c 0
 513.058 1031.49 477.162 1009.81 438 999 c 0
 400.747 988.715 360.173 988.395 324 1002 c 0
 292.268 1013.93 264.566 1036.88 248.127 1066.53 c 0
 231.688 1096.18 226.84 1132.09 235 1165 c 1
 355.851 1172.5 474.584 1211.85 576 1278 c 0
 621.895 1307.94 664.277 1343.26 702 1383 c 1
 855 1400 l 1
 831.289 1181.51 809.288 962.834 789 744 c 0
 765.748 493.195 744.747 242.182 726 -9 c 1
 460 -18 l 1
  Spiro
    460 -18 v
    539 459 o
    660 1257 v
    652 1254 v
    612 1161 o
    542 1060 o
    438 999 o
    324 1002 o
    235 1165 v
    576 1278 o
    702 1383 v
    855 1400 v
    789 744 o
    726 -9 v
    489 0 z
  EndSpiro
EndSplineSet
EndChar

StartChar: semicolon
Encoding: 59 59 58
Width: 490
VWidth: 0
Flags: HMW
LayerCount: 3
Back
SplineSet
244 1032 m 0
 320 1032 382 976 382 902 c 0
 382 824 320 762 244 762 c 0
 168 762 108 826 108 904 c 0
 108 978 170 1032 244 1032 c 0
14 -186 m 1
 130 -114 172 -12 172 60 c 0
 172 128 142 186 122 200 c 1
 174 250 222 268 266 268 c 0
 346 268 400 202 400 110 c 0
 400 2 314 -182 50 -262 c 1
 14 -186 l 1
EndSplineSet
Fore
SplineSet
244 1032 m 0
 320 1032 382 976 382 902 c 0
 382 824 320 762 244 762 c 0
 168 762 108 826 108 904 c 0
 108 978 170 1032 244 1032 c 0
14 -186 m 1
 130 -114 172 -12 172 60 c 0
 172 128 142 186 122 200 c 1
 174 250 222 268 266 268 c 0
 346 268 400 202 400 110 c 0
 400 2 314 -182 50 -262 c 1
 14 -186 l 1
EndSplineSet
EndChar

StartChar: exclam
Encoding: 33 33 59
Width: 598
VWidth: 0
Flags: HMW
LayerCount: 3
Back
SplineSet
268 400 m 1
 296 1364 l 1
 302 1492 344 1528 444 1528 c 0
 510 1528 548 1476 528 1364 c 2
 358 412 l 1
 268 400 l 1
322 258 m 0
 390 258 438 194 438 130 c 0
 438 40 372 -40 282 -40 c 0
 214 -40 168 16 168 82 c 0
 168 164 232 258 322 258 c 0
EndSplineSet
Fore
SplineSet
268 400 m 1
 296 1364 l 1
 302 1492 344 1528 444 1528 c 0
 510 1528 548 1476 528 1364 c 2
 358 412 l 1
 268 400 l 1
322 258 m 0
 390 258 438 194 438 130 c 0
 438 40 372 -40 282 -40 c 0
 214 -40 168 16 168 82 c 0
 168 164 232 258 322 258 c 0
EndSplineSet
EndChar

StartChar: quotesingle
Encoding: 39 39 60
Width: 462
VWidth: 0
Flags: HMW
LayerCount: 3
Back
SplineSet
120 1578 m 1
 136 1580 150 1580 166 1580 c 0
 224 1580 284 1572 342 1558 c 1
 298 1094 l 1
 268 1084 242 1080 208 1080 c 0
 200 1080 194 1080 184 1080 c 1
 120 1578 l 1
EndSplineSet
Fore
SplineSet
120 1578 m 1
 136 1580 150 1580 166 1580 c 0
 224 1580 284 1572 342 1558 c 1
 298 1094 l 1
 268 1084 242 1080 208 1080 c 0
 200 1080 194 1080 184 1080 c 1
 120 1578 l 1
EndSplineSet
EndChar

StartChar: two
Encoding: 50 50 61
Width: 1190
VWidth: 2000
InSpiro: 1
Flags: HMW
HStem: 2 162<358 908> 1270 160<636.794 874.976>
VStem: 944 220<888.914 1199.11>
DStem2: 440 366 358 164 0.789871 0.613274<-188.651 525.688>
LayerCount: 3
Back
SplineSet
114 2 m 5
 120 124 l 5
 427 366 l 6
 564.082 474.058 707.511 580.542 804 726 c 4
 837.049 775.822 864.576 829.456 884 886 c 4
 898.208 927.36 908.011 970.486 909.652 1014.19 c 4
 911.292 1057.89 904.348 1102.3 886 1142 c 4
 869.728 1177.21 844.424 1208.35 812.606 1230.53 c 4
 780.789 1252.71 742.716 1265.69 704 1268 c 4
 651.362 1271.14 598.547 1254.56 554.23 1225.98 c 4
 509.913 1197.41 473.611 1157.63 444 1114 c 4
 368.967 1003.44 329.532 871.872 308 740 c 5
 216 780 l 5
 205.341 889.037 225.874 1000.93 274.441 1099.13 c 4
 323.009 1197.34 399.404 1281.44 492 1340 c 4
 574.801 1392.36 670.23 1425.78 768 1432 c 4
 816.034 1435.05 864.751 1431.13 910.94 1417.6 c 4
 957.129 1404.06 1000.57 1380.57 1036 1348 c 4
 1098.01 1291 1132.16 1207.87 1140 1124 c 4
 1151.33 1002.87 1114.79 880.196 1052 776 c 4
 993.267 678.543 911.103 597.531 826 522 c 4
 709.586 418.679 583.565 326.737 453 242 c 6
 302 144 l 5
 302 134 l 5
 652 152 l 6
 685.921 153.744 719.907 154.751 753.697 158.198 c 4
 787.487 161.645 821.322 168.422 852 183 c 4
 886.977 199.621 916.713 226.33 939 258 c 4
 969.224 300.949 987.028 351.375 1001 402 c 4
 1009.74 433.655 1016.95 465.723 1023 498 c 5
 1132 486 l 5
 1132.89 418.588 1130.21 351.13 1124 284 c 4
 1115.14 188.309 1099.08 93.2863 1076 0 c 5
 1010.42 -4.20851 944.715 -6.48673 879 -7 c 4
 692.942 -8.45321 507.061 5.02312 321 6 c 4
 251.981 6.36237 182.951 5.09618 114 2 c 5
  Spiro
    114 2 v
    120 124 v
    427 366 ]
    804 726 o
    884 886 o
    886 1142 o
    704 1268 o
    444 1114 o
    308 740 v
    216 780 v
    492 1340 o
    768 1432 o
    1036 1348 o
    1140 1124 o
    1052 776 o
    826 522 c
    453 242 [
    302 144 v
    302 134 v
    652 152 ]
    852 183 o
    939 258 o
    1001 402 o
    1023 498 v
    1132 486 v
    1124 284 o
    1076 0 v
    879 -7 o
    321 6 o
    114 2 z
  EndSpiro
EndSplineSet
Fore
SplineSet
150 6 m 1
 162 120 l 1
 381 255 l 2
 483.64 318.271 587.073 381.183 680.154 457.825 c 0
 773.236 534.467 855.929 626.862 905 737 c 0
 934.93 804.177 952.374 877.47 951 951 c 0
 949.487 1031.96 922.542 1114.08 867 1173 c 0
 824.24 1218.36 766.339 1248.9 705 1260 c 0
 657.905 1268.52 608.348 1265.69 563.62 1248.66 c 0
 518.892 1231.63 479.643 1199.61 456 1158 c 0
 433.068 1117.64 425.343 1069.45 431.361 1023.42 c 0
 437.379 977.391 456.204 933.591 482 895 c 0
 506.879 857.78 538.292 825.003 574 798 c 1
 546.368 764.504 505.914 741.862 462.914 735.824 c 0
 419.914 729.785 374.789 740.41 339 765 c 0
 309.77 785.084 287.003 813.976 272.452 846.318 c 0
 257.901 878.661 251.388 914.363 251.671 949.827 c 0
 252.237 1020.75 279.192 1089.63 318 1149 c 0
 366.329 1222.94 432.529 1284.5 507 1332 c 0
 586.26 1382.56 677.1 1417.4 771 1422 c 0
 821.485 1424.47 872.586 1417.87 920.147 1400.76 c 0
 967.708 1383.65 1011.44 1355.92 1047 1320 c 0
 1094.99 1271.52 1127.49 1208.93 1145 1143 c 0
 1179.38 1013.59 1159.22 872.08 1098 753 c 0
 1050.07 659.781 977.721 581.328 900 511 c 0
 790.216 411.659 668.954 325.954 547 242 c 2
 409 147 l 1
 409 137 l 1
 652 146 l 2
 694.821 147.586 737.756 147.778 780.38 152.175 c 0
 823.005 156.573 865.786 167.094 902 190 c 0
 928.682 206.877 951.157 229.955 969 256 c 0
 990.355 287.172 1005.57 322.08 1020 357 c 0
 1033.19 388.92 1045.91 421.037 1059 453 c 1
 1150 421 l 1
 1144.36 370.158 1137.35 319.468 1129 269 c 0
 1112.95 172.006 1091.91 75.8372 1066 -19 c 1
 1003.67 -19.6113 941.331 -19.6034 879 -19 c 0
 701.919 -17.2857 524.923 -10.6524 348 -3 c 0
 281.994 -0.145066 215.994 2.86476 150 6 c 1
  Spiro
    150 6 v
    162 120 v
    381 255 ]
    905 737 o
    951 951 o
    867 1173 o
    705 1260 o
    456 1158 o
    482 895 o
    574 798 v
    339 765 c
    318 1149 o
    507 1332 o
    771 1422 o
    1047 1320 o
    1145 1143 o
    1098 753 o
    900 511 c
    547 242 [
    409 147 v
    409 137 v
    652 146 ]
    902 190 o
    969 256 o
    1020 357 o
    1059 453 v
    1150 421 v
    1129 269 o
    1066 -19 v
    879 -19 o
    348 -3 o
    144 2 z
  EndSpiro
EndSplineSet
Layer: 2
SplineSet
318 867 m 0
 335.089 954.698 367.097 1039.58 413.122 1116.16 c 0
 459.146 1192.74 519.422 1261.8 594 1311 c 0
 634.797 1337.92 679.995 1358.58 727.708 1369.18 c 0
 775.422 1379.78 825.616 1379.99 873 1368 c 0
 919.942 1356.12 963.724 1332.31 999.635 1299.83 c 0
 1035.55 1267.35 1063.54 1226.53 1083.01 1182.2 c 0
 1121.96 1093.54 1127.78 993.122 1116 897 c 0
 1105.25 809.233 1079.58 723.036 1038 645 c 0
 998.393 570.671 943.871 504.647 880.181 449.539 c 0
 816.49 394.43 744.258 349.811 669 312 c 0
 525.69 239.998 372.142 189.628 216 153 c 1
 183 36 l 1
 1032 18 l 1
 1134 411 l 1
  Spiro
    318 867 {
    594 1311 o
    873 1368 o
    1116 897 o
    1038 645 o
    669 312 o
    216 153 v
    183 36 v
    1032 18 v
    1134 411 v
    0 0 z
  EndSpiro
EndSplineSet
EndChar

StartChar: three
Encoding: 51 51 62
Width: 1183
VWidth: 2000
InSpiro: 1
Flags: HMW
HStem: -36 104<400.32 688.022> 654 78<494 590.234> 1278 156<612.06 832.108>
VStem: 834 220<276.736 517.328> 880 220<997.442 1230.13>
LayerCount: 3
Back
SplineSet
459.965 650.932 m 5xe0
 470.345 721.328 l 5
 589.78 781.69 l 6
 624.042 799.006 657.75 817.787 687.964 841.469 c 4
 718.179 865.152 745.538 892.413 770 922 c 4
 792.217 948.872 811.828 978.327 824 1011 c 4
 838.535 1050.02 842.094 1092.42 840 1134 c 4
 838.113 1171.48 831.834 1209.37 815.34 1243.08 c 4
 797.864 1278.8 767.695 1308.45 730.913 1323.56 c 4
 694.13 1338.68 652.08 1339.46 614 1328 c 4
 577.852 1317.12 545.018 1295.52 520.619 1266.71 c 4
 496.22 1237.91 480.526 1201.86 475.94 1164.39 c 4
 469.64 1112.92 484.189 1060.12 511.13 1015.81 c 4
 527.722 988.523 548.922 964.066 573.41 943.565 c 5
 543.981 909.503 499.505 888.943 454.492 888.593 c 4
 409.479 888.244 364.689 908.111 334.735 941.712 c 4
 306.802 973.046 292.163 1014.99 290.289 1056.93 c 4
 288.415 1098.86 298.69 1140.85 316.57 1178.83 c 4
 359.078 1269.12 441.137 1336.73 532 1378 c 4
 601.551 1409.59 677.612 1427.43 754 1428 c 4
 793.943 1428.3 834.141 1423.47 872.085 1410.98 c 4
 910.028 1398.5 945.535 1378.02 974 1350 c 4
 999.42 1324.98 1019.01 1294.19 1031.64 1260.83 c 4
 1044.26 1227.46 1050.09 1191.67 1050 1156 c 4
 1049.85 1095.01 1032.33 1034.32 1001 982 c 4
 971.733 933.119 930.758 892.118 886 856.867 c 4
 857.03 834.051 825.674 814.449 793.37 796.662 c 6
 738 766.175 l 5
 738 760 l 5
 831.839 759.373 923.746 710.568 978 634 c 4
 1019.3 575.716 1039.02 503.169 1036.5 431.781 c 4
 1033.98 360.393 1009.99 290.49 972 230 c 4
 904.541 122.596 795.279 45.1151 676 2 c 4
 568.948 -36.6957 451.558 -52.637 340 -30 c 4
 297.616 -21.3995 256.184 -6.37073 220.123 17.5049 c 4
 184.063 41.3805 153.686 74.5334 136 114 c 4
 123.303 142.335 117.252 173.668 118.877 204.675 c 4
 120.502 235.683 129.782 266.24 145.537 292.996 c 4
 177.048 346.507 234.513 383.301 296 392 c 4
 308.575 393.779 321.307 394.449 334 394 c 5
 325.848 350.531 324.723 305.624 332 262 c 4
 338.557 222.69 352.472 184.167 376 152 c 4
 393.244 128.424 415.547 108.558 441.018 94.2603 c 4
 466.488 79.9627 494.967 71.2018 524 68 c 4
 596.552 59.9989 671.32 86.7731 725.615 135.557 c 4
 779.91 184.34 813.67 255.137 818 328 c 4
 822.282 400.047 798.198 472.942 754 530 c 4
 712.425 583.671 653.352 623.609 588 642 c 4
 546.528 653.671 502.654 656.743 459.965 650.932 c 5xe0
  Spiro
    459.965 650.932 v
    470.345 721.327 v
    589.78 781.69 ]
    770 922 o
    824 1011 o
    840 1134 o
    815.34 1243.08 o
    614 1328 o
    475.94 1164.39 o
    511.13 1015.81 o
    573.41 943.565 v
    334.735 941.712 c
    316.57 1178.83 o
    532 1378 o
    754 1428 o
    974 1350 o
    1050 1156 o
    1001 982 o
    886 856.867 c
    793.37 796.662 [
    738 766.175 v
    738 760 v
    978 634 o
    972 230 o
    676 2 o
    340 -30 o
    136 114 o
    296 392 o
    334 394 v
    332 262 o
    376 152 o
    524 68 o
    818 328 o
    754 530 o
    588 642 o
    459.965 650.932 z
  EndSpiro
EndSplineSet
Fore
SplineSet
459.965 650.932 m 1xe0
 470.345 721.328 l 1
 589.78 781.69 l 2
 624.053 799.012 657.834 817.686 688.13 841.284 c 0
 718.426 864.881 745.75 892.223 770 922 c 0
 792.004 949.019 811.403 978.512 824 1011 c 0
 839.082 1049.9 843.86 1092.46 840 1134 c 0
 836.438 1172.33 825.706 1210.42 805.34 1243.08 c 0
 785.726 1274.55 756.807 1300.26 722.879 1315.21 c 0
 688.951 1330.16 650.519 1334.39 614 1328 c 0
 573.985 1320.99 536.224 1301.31 507.832 1272.25 c 0
 479.44 1243.2 460.737 1204.73 455.94 1164.39 c 0
 451.724 1128.94 458.149 1092.37 473.72 1060.25 c 0
 487.537 1031.74 508.451 1006.72 534 988 c 1
 514.631 954.968 479.677 931.541 441.762 926.18 c 0
 403.848 920.818 363.769 933.634 336 960 c 0
 307.613 986.952 292.861 1026.31 291.093 1065.41 c 0
 289.325 1104.51 299.615 1143.55 316.57 1178.83 c 0
 359.747 1268.68 441.468 1336.28 532 1378 c 0
 601.398 1409.98 677.589 1427.6 754 1428 c 0
 793.934 1428.21 834.111 1423.34 872.05 1410.88 c 0
 909.99 1398.41 945.516 1377.99 974 1350 c 0
 999.445 1325 1019.05 1294.21 1031.67 1260.84 c 0
 1044.29 1227.48 1050.1 1191.67 1050 1156 c 0
 1049.83 1095.02 1032.32 1034.33 1001 982 c 0
 971.739 933.115 930.759 892.117 886 856.867 c 0
 857.029 834.052 825.674 814.449 793.37 796.662 c 2
 738 766.175 l 1
 738 760 l 1
 831.839 759.373 923.746 710.568 978 634 c 0
 1019.3 575.716 1039.02 503.169 1036.5 431.781 c 0
 1033.98 360.393 1009.99 290.49 972 230 c 0
 904.541 122.596 795.279 45.1151 676 2 c 0
 568.948 -36.6957 451.558 -52.637 340 -30 c 0
 297.616 -21.3995 256.184 -6.37073 220.123 17.5049 c 0
 184.063 41.3805 153.686 74.5334 136 114 c 0
 123.303 142.335 117.252 173.668 118.877 204.675 c 0
 120.502 235.683 129.782 266.24 145.537 292.996 c 0
 177.048 346.507 234.513 383.301 296 392 c 0
 308.575 393.779 321.307 394.449 334 394 c 1
 325.848 350.531 324.723 305.624 332 262 c 0
 338.557 222.69 352.472 184.167 376 152 c 0
 393.244 128.424 415.547 108.558 441.018 94.2603 c 0
 466.488 79.9627 494.967 71.2018 524 68 c 0
 596.552 59.9989 671.32 86.7731 725.615 135.557 c 0
 779.91 184.34 813.67 255.137 818 328 c 0
 822.282 400.047 798.198 472.942 754 530 c 0
 712.425 583.671 653.352 623.609 588 642 c 0
 546.528 653.671 502.654 656.743 459.965 650.932 c 1xe0
  Spiro
    459.965 650.932 v
    470.345 721.327 v
    589.78 781.69 ]
    770 922 o
    824 1011 o
    840 1134 o
    805.34 1243.08 o
    614 1328 o
    455.94 1164.39 o
    473.72 1060.25 o
    534 988 v
    336 960 c
    316.57 1178.83 o
    532 1378 o
    754 1428 o
    974 1350 o
    1050 1156 o
    1001 982 o
    886 856.867 c
    793.37 796.662 [
    738 766.175 v
    738 760 v
    978 634 o
    972 230 o
    676 2 o
    340 -30 o
    136 114 o
    296 392 o
    334 394 v
    332 262 o
    376 152 o
    524 68 o
    818 328 o
    754 530 o
    588 642 o
    459.965 650.932 z
  EndSpiro
EndSplineSet
EndChar

StartChar: seven
Encoding: 55 55 63
Width: 1190
VWidth: 2000
InSpiro: 1
Flags: HMW
HStem: -40 42G<482 608.406> 1218 180<472 1080>
DStem2: 482 -4 588 -40 0.454449 0.890773<16.1038 1360.28>
LayerCount: 3
Back
SplineSet
449.815 1208 m 1
 381.473 1016 l 1
 290.914 1042 l 1
 323.181 1393 l 1
 386.401 1397.52 449.681 1401.18 513 1404 c 0
 760.937 1415.03 1009.45 1413.03 1257.18 1398 c 1
 1253.35 1326 l 1
 983 873 l 2
 932.495 788.372 881.101 703.406 847.378 610.803 c 0
 813.655 518.199 798.849 415.142 828 321 c 0
 853.218 239.559 911.686 168.956 987 129 c 1
 967.881 92.1672 939.859 59.9946 906 36 c 0
 877.966 16.1335 845.746 1.79599 811.816 -3.62021 c 0
 777.886 -9.03641 742.246 -5.29214 711 9 c 0
 674.473 25.7078 645.202 56.2121 626.106 91.5495 c 0
 607.01 126.887 597.555 166.914 595 207 c 0
 588.9 302.72 619.34 396.962 655 486 c 0
 712.502 629.575 786.408 765.906 858 903 c 2
 1037.12 1246 l 1
 898.933 1241.34 760.85 1233.67 623 1223 c 0
 565.228 1218.53 507.496 1213.53 449.815 1208 c 1
  Spiro
    449.815 1208 v
    381.473 1016 v
    290.914 1042 v
    323.181 1393 v
    513 1404 o
    1257.18 1398 v
    1253.35 1326 v
    983 873 ]
    828 321 c
    987 129 v
    906 36 c
    711 9 c
    595 207 o
    655 486 c
    858 903 [
    1037.12 1246 v
    623 1223 o
    0 0 z
  EndSpiro
EndSplineSet
Fore
SplineSet
450 1208 m 1
 381 1016 l 1
 291 1042 l 1
 323 1393 l 1
 386.28 1397.52 449.621 1401.18 513 1404 c 0
 760.877 1415.02 1009.33 1413.01 1257 1398 c 1
 1253 1326 l 1
 983 873 l 2
 932.546 788.35 881.194 703.372 847.465 610.778 c 0
 813.736 518.185 798.878 415.144 828 321 c 0
 853.196 239.549 911.672 168.936 987 129 c 1
 967.881 92.1672 939.859 59.9947 906 36 c 0
 877.966 16.1334 845.746 1.79572 811.816 -3.62055 c 0
 777.886 -9.03681 742.246 -5.29247 711 9 c 0
 674.473 25.7081 645.203 56.2127 626.107 91.5501 c 0
 607.012 126.887 597.556 166.915 595 207 c 0
 588.897 302.72 619.33 396.965 655 486 c 0
 712.517 629.568 786.445 765.887 858 903 c 2
 1037 1246 l 1
 898.854 1241.35 760.811 1233.68 623 1223 c 0
 565.289 1218.53 507.619 1213.53 450 1208 c 1
  Spiro
    450 1208 v
    381 1016 v
    291 1042 v
    323 1393 v
    513 1404 o
    1257 1398 v
    1253 1326 v
    983 873 ]
    828 321 c
    987 129 v
    906 36 c
    711 9 c
    595 207 o
    655 486 c
    858 903 [
    1037 1246 v
    623 1223 o
    0 0 z
  EndSpiro
EndSplineSet
EndChar

StartChar: four
Encoding: 52 52 64
Width: 1190
VWidth: 2000
InSpiro: 1
Flags: HMW
HStem: -14 42G<649.872 848> 422 144<326 708 924 1182>
DStem2: 118 510 326 566 0.689214 0.724558<183.932 877.386> 644 -14 848 18 0.138113 0.990416<59.8684 440.66 613.114 1100.55>
LayerCount: 3
Back
SplineSet
693.264 422 m 1
 117.264 422 l 1
 100.19 510 l 1
 926.691 1412 l 1
 999.46 1390 l 1
 994.005 1355.33 988.39 1315.67 982.615 1271 c 0
 973.955 1204 973.955 1204 964.609 1128 c 0
 955.264 1052 955.264 1052 946.127 970 c 0
 940.036 915.334 934.588 861.334 929.784 808 c 2
 904.234 566 l 1
 1202.23 566 l 1
 1167.4 418 l 1
 887.403 418 l 1
 847.371 18 l 1
 644.489 -14 l 1
 693.264 422 l 1
758.425 1076 m 1
 306.234 566 l 1
 704.234 566 l 1
 758.425 1076 l 1
EndSplineSet
Fore
SplineSet
846 18 m 1
 644 -14 l 1
 718.318 738 l 1
 931.318 879 l 1
 846 18 l 1
  Spiro
    846 18 v
    644 -14 v
    718.318 738 v
    931.318 879 v
    0 0 z
  EndSpiro
861 987 m 0
 738.174 846.095 593.786 725.963 453 603 c 0
 386.323 544.764 320.317 485.758 255 426 c 1
 1172 453 l 1
 1130 287 l 1
 106 302 l 1
 89 390 l 1
 151.092 451.909 213.587 513.414 276 575 c 0
 447.345 744.076 624.881 918.193 716 1141 c 0
 757.435 1242.32 779.802 1351.54 780 1461 c 1
 830.534 1472.55 885.98 1458.95 926 1426 c 0
 949.618 1406.56 967.944 1380.93 979.638 1352.66 c 0
 991.332 1324.39 996.484 1293.59 996 1263 c 0
 995.173 1210.7 978.133 1159.58 953.147 1113.62 c 0
 928.161 1067.67 895.371 1026.43 861 987 c 0
  Spiro
    861 987 c
    453 603 c
    255 426 v
    1172 453 v
    1130 287 v
    106 302 v
    89 390 v
    276 575 o
    716 1141 o
    780 1461 v
    926 1426 o
    996 1263 o
    0 0 z
  EndSpiro
EndSplineSet
EndChar

StartChar: five
Encoding: 53 53 65
Width: 1190
VWidth: 2000
InSpiro: 1
Flags: HMW
HStem: -58 108<327.204 563.75> 1230 186<938.528 1108>
VStem: 896 228<320.238 595.148>
DStem2: 396 780 570 950 0.364982 0.931014<221.78 498.48>
LayerCount: 3
Back
SplineSet
354 684 m 5
 584 1363 l 5
 677.413 1362.94 770.829 1366.28 864 1373 c 4
 961.024 1380 1057.78 1390.68 1154 1405 c 5
 1167.21 1359.48 1166.15 1309.92 1151 1265 c 4
 1143.87 1243.87 1132.82 1223.38 1115.32 1209.56 c 4
 1106.56 1202.65 1096.46 1197.52 1085.82 1194.18 c 4
 1075.18 1190.84 1064.07 1189.31 1053 1188 c 4
 978.321 1179.17 903.19 1174.16 828 1173 c 4
 761.288 1171.97 694.53 1173.98 628 1179 c 5
 519 854 l 5
 528 852 l 5
 589.514 887.122 661.287 904.135 732 900 c 4
 812.784 895.276 891.787 862.156 951 807 c 4
 1007.87 754.024 1045.57 682.197 1063.14 606.487 c 4
 1080.72 530.777 1079.76 451.309 1065 375 c 4
 1048.6 290.223 1014.31 208.131 960 141 c 4
 904.452 72.3387 827.885 21.6255 744 -6 c 4
 667.988 -31.0326 586.84 -39.473 507 -34 c 4
 444.441 -29.7116 381.511 -15.9931 327 15 c 4
 270.151 47.3221 223.813 100.36 206.744 163.488 c 4
 198.21 195.052 196.964 228.622 203.643 260.63 c 4
 210.321 292.638 224.938 322.99 246 348 c 4
 280.702 389.206 333.167 414.956 387 417 c 5
 388.468 385.349 394.625 353.938 405 324 c 4
 420.525 279.202 445.052 237.756 475 201 c 4
 511.141 156.642 557.009 117.806 612 102 c 4
 662.023 87.6223 718.002 95.1932 762 123 c 4
 810.471 153.634 842.756 205.723 858 261 c 4
 878.522 335.415 872.508 415.373 852.135 489.829 c 4
 831.762 564.286 796.321 636.163 741 690 c 4
 717.175 713.186 689.457 732.65 658.673 745.204 c 4
 627.889 757.758 593.984 763.161 561 759 c 4
 533.917 755.583 507.625 745.718 485.202 730.15 c 4
 462.778 714.582 444.3 693.37 432 669 c 5
 354 684 l 5
  Spiro
    354 684 v
    584 1363 v
    864 1373 o
    1154 1405 v
    1151 1265 c
    1053 1188 [
    828 1173 o
    628 1179 v
    519 854 v
    528 852 v
    732 900 o
    951 807 o
    1065 375 o
    960 141 o
    744 -6 o
    507 -34 o
    327 15 o
    246 348 o
    387 417 v
    405 324 o
    475 201 o
    612 102 o
    762 123 o
    858 261 o
    741 690 o
    561 759 o
    432 669 v
    369 780 z
  EndSpiro
EndSplineSet
Fore
SplineSet
393 786 m 1
 584 1333 l 1
 619.268 1330.01 654.619 1327.99 690 1327 c 0
 793.655 1324.09 898.176 1329.77 999 1354 c 0
 1037.78 1363.32 1075.91 1375.33 1113 1390 c 1
 1124.54 1364.64 1130.82 1336.86 1131 1309 c 0
 1131.2 1277.86 1123.61 1246.34 1107 1220 c 0
 1094.33 1199.9 1076.31 1183.21 1055.25 1172.21 c 0
 1034.19 1161.22 1010.52 1156.38 987 1153 c 0
 898.676 1140.3 809.107 1136.28 720 1141 c 0
 689.255 1142.63 658.565 1145.3 628 1149 c 1
 519 854 l 1
 528 852 l 1
 588.972 878.796 656.618 890.378 723 885 c 0
 800.703 878.705 876.605 848.493 936 798 c 0
 994.855 747.966 1036.44 678.943 1057.41 604.597 c 0
 1078.39 530.251 1079.95 450.978 1066 375 c 0
 1050.37 289.883 1014.83 207.951 960 141 c 0
 904.064 72.703 827.793 21.7865 744 -6 c 0
 668.032 -31.1916 586.845 -39.525 507 -34 c 0
 444.446 -29.6714 381.514 -15.9839 327 15 c 0
 270.162 47.3045 223.861 100.357 206.833 163.477 c 0
 198.319 195.038 197.088 228.595 203.756 260.596 c 0
 210.424 292.597 225.002 322.948 246 348 c 0
 278.518 386.795 326.608 412.183 377 417 c 1
 380.805 385.627 386.709 354.496 395 324 c 0
 410.263 267.858 434.411 212.683 475 171 c 0
 511.345 133.675 560.366 108.927 612 102 c 0
 663.607 95.0763 717.677 105.675 762 133 c 0
 808.45 161.637 842.653 208.635 858 261 c 0
 875.341 320.167 870.654 383.875 857 444 c 0
 847.549 485.621 833.604 526.439 812.902 563.762 c 0
 792.199 601.085 763.96 634.517 729 659 c 0
 679.313 693.797 618.364 709.021 558 715 c 0
 515.161 719.243 471.973 719.546 429 717 c 1
 393 786 l 1
  Spiro
    393 786 v
    584 1333 v
    690 1327 o
    999 1354 o
    1113 1390 v
    1131 1309 o
    1107 1220 c
    987 1153 [
    720 1141 o
    628 1149 v
    519 854 v
    528 852 v
    723 885 o
    936 798 o
    1066 375 o
    960 141 o
    744 -6 o
    507 -34 o
    327 15 o
    246 348 o
    377 417 v
    395 324 o
    475 171 o
    612 102 o
    762 133 o
    858 261 o
    857 444 o
    729 659 o
    558 715 o
    429 717 v
    369 780 z
  EndSpiro
EndSplineSet
Layer: 2
SplineSet
385.62 730.605 m 1xe0
 396 801 l 1
 515.436 861.362 l 2
 549.708 878.685 583.488 897.358 613.785 920.956 c 0
 644.081 944.554 671.405 971.896 695.655 1001.67 c 0
 717.658 1028.69 737.058 1058.18 749.655 1090.67 c 0
 764.737 1129.57 769.515 1172.13 765.655 1213.67 c 0
 762.094 1252 751.361 1290.09 730.995 1322.76 c 0
 711.381 1354.22 682.463 1379.94 648.534 1394.88 c 0
 614.605 1409.83 576.174 1414.07 539.655 1407.67 c 0
 499.64 1400.67 461.88 1380.98 433.487 1351.92 c 0
 405.096 1322.87 386.393 1284.4 381.595 1244.06 c 0
 377.379 1208.61 383.804 1172.04 399.375 1139.92 c 0
 413.191 1111.42 434.105 1086.4 459.655 1067.67 c 1
 440.285 1034.64 405.332 1011.21 367.418 1005.85 c 0
 329.503 1000.49 289.424 1013.31 261.655 1039.67 c 0
 233.269 1066.62 218.516 1105.98 216.748 1145.08 c 0
 214.98 1184.19 225.27 1223.22 242.225 1258.5 c 0
 285.402 1348.35 367.123 1415.95 457.655 1457.67 c 0
 527.053 1489.65 603.244 1507.27 679.655 1507.67 c 0
 719.589 1507.88 759.766 1503.01 797.705 1490.55 c 0
 835.645 1478.09 871.171 1457.66 899.655 1429.67 c 0
 925.101 1404.67 944.709 1373.88 957.327 1340.52 c 0
 969.945 1307.15 975.755 1271.35 975.655 1235.67 c 0
 975.483 1174.69 957.976 1114 926.655 1061.67 c 0
 897.395 1012.79 856.414 971.79 811.655 936.54 c 0
 782.684 913.724 751.328 894.122 719.025 876.335 c 2
 663.655 845.848 l 1
 663.655 839.673 l 1
 757.494 839.046 849.4 790.24 903.655 713.673 c 0
 944.954 655.389 964.672 582.842 962.152 511.453 c 0
 959.633 440.065 935.648 370.163 897.655 309.673 c 0
 830.195 202.269 720.934 124.787 601.655 81.6729 c 0
 494.603 42.9766 377.213 27.0352 265.655 49.6729 c 0
 223.271 58.2734 181.839 73.3018 145.778 97.1777 c 0
 109.718 121.053 79.3408 154.206 61.6553 193.673 c 0
 48.958 222.007 42.9072 253.341 44.5322 284.348 c 0
 46.1572 315.355 55.4375 345.913 71.1924 372.668 c 0
 102.703 426.18 160.168 462.974 221.655 471.673 c 0
 234.23 473.451 246.962 474.121 259.655 473.673 c 1
 251.503 430.203 250.378 385.297 257.655 341.673 c 0
 264.212 302.362 278.127 263.84 301.655 231.673 c 0
 318.899 208.097 341.202 188.23 366.673 173.933 c 0
 392.144 159.635 420.622 150.874 449.655 147.673 c 0
 522.207 139.672 596.975 166.445 651.27 215.229 c 0
 705.565 264.013 739.324 334.81 743.655 407.673 c 0
 747.937 479.72 723.854 552.615 679.655 609.673 c 0
 638.08 663.344 579.007 703.281 513.655 721.673 c 0
 472.184 733.344 428.309 736.416 385.62 730.605 c 1xe0
  Spiro
    385.62 730.605 v
    396 801 v
    515.435 861.362 ]
    695.655 1001.67 o
    749.655 1090.67 o
    765.655 1213.67 o
    730.995 1322.76 o
    539.655 1407.67 o
    381.595 1244.06 o
    399.375 1139.92 o
    459.655 1067.67 v
    261.655 1039.67 c
    242.225 1258.5 o
    457.655 1457.67 o
    679.655 1507.67 o
    899.655 1429.67 o
    975.655 1235.67 o
    926.655 1061.67 o
    811.655 936.54 c
    719.025 876.335 [
    663.655 845.847 v
    663.655 839.672 v
    903.655 713.672 o
    897.655 309.672 o
    601.655 81.6725 o
    265.655 49.6725 o
    61.655 193.672 o
    221.655 471.672 o
    259.655 473.672 v
    257.655 341.672 o
    301.655 231.672 o
    449.655 147.672 o
    743.655 407.672 o
    679.655 609.672 o
    513.655 721.672 o
    459.965 650.932 z
  EndSpiro
EndSplineSet
EndChar

StartChar: eight
Encoding: 56 56 66
Width: 1190
VWidth: 2000
InSpiro: 1
Flags: HMW
HStem: -32 110<492.008 795.97> 1330 90<628.44 883.132>
VStem: 192 200<182.9 449.24> 346 190<971.484 1174.79> 896 198<224.922 443.61> 956 176<967.316 1253.64>
LayerCount: 3
Back
SplineSet
575.092 656 m 1xe8
 538.14 626 538.14 626 502.188 596 c 0
 478.22 576 456.988 554 438.492 530 c 0
 419.996 506 405.308 478 394.426 446 c 0
 383.543 414 378.87 376 380.406 332 c 0
 381.523 300 388.284 268.666 400.688 238 c 0
 413.094 207.334 429.703 180.333 450.518 157 c 0
 471.332 133.667 494.996 114.667 521.508 100 c 0
 548.021 85.333 575.942 78 605.276 78 c 0
 706.61 78 779.139 101 822.866 147 c 0
 866.595 193 887.13 254 884.477 330 c 0
 883.452 359.334 873.773 388.334 855.438 417 c 0
 837.104 445.666 813.471 473.334 784.54 500 c 0
 755.608 526.666 723.022 553 686.781 579 c 0
 632.419 618 632.419 618 575.092 656 c 1xe8
182.013 286 m 0
 179.173 367.334 205.6 441 261.295 507 c 0
 316.99 573 400.434 636.666 511.625 698 c 1
 513.276 708 l 1
 494.191 720 472.964 736 449.6 756 c 0
 426.235 776 404.433 799 384.19 825 c 0
 363.948 851 346.947 879.666 333.188 911 c 0
 319.427 942.334 311.917 976 310.66 1012 c 0
 308.845 1064 319.753 1114.33 343.387 1163 c 0
 367.021 1211.67 399.175 1255 439.848 1293 c 0
 480.521 1331 528.449 1361.67 583.635 1385 c 0
 638.82 1408.33 697.078 1420 758.412 1420 c 0
 810.412 1420 856.681 1412.33 897.216 1397 c 0
 937.751 1381.67 972.139 1361 1000.38 1335 c 0
 1028.62 1309 1050.68 1278.67 1066.56 1244 c 0
 1082.44 1209.33 1091.07 1172 1092.47 1132 c 0xd4
 1093.82 1093.33 1087.82 1055 1074.49 1017 c 0
 1061.15 979 1042.72 943.334 1019.22 910 c 0
 995.72 876.666 967.41 847.334 934.295 822 c 0
 901.18 796.666 866.188 777.334 829.32 764 c 1
 825.739 752 l 1
 899.509 701.334 959.775 646 1006.54 586 c 0
 1053.3 526 1077.84 462.666 1080.17 396 c 0
 1082.13 340 1071 286.334 1046.79 235 c 0
 1022.59 183.667 987.181 138 940.578 98 c 0
 893.975 58 837.08 26.333 769.896 3 c 0
 702.71 -20.333 626.451 -32 541.117 -32 c 0
 491.783 -32 445.527 -24.667 402.35 -10 c 0
 359.171 4.66699 321.77 25.667 290.149 53 c 0
 258.528 80.333 233.03 113.667 213.657 153 c 0
 194.283 192.333 183.735 236.666 182.013 286 c 0
754.063 800 m 1
 782.839 816 807.899 833.334 829.247 852 c 0
 850.596 870.666 868.196 891.666 882.048 915 c 0
 895.898 938.334 905.636 965 911.254 995 c 0
 916.872 1025 919.007 1059.33 917.657 1098 c 0
 915.235 1167.33 895.28 1223.33 857.79 1266 c 0
 820.301 1308.67 774.222 1330 719.556 1330 c 0
 682.222 1330 649.466 1323 621.289 1309 c 0
 593.111 1295 569.729 1277.33 551.14 1256 c 0
 532.551 1234.67 518.723 1210.67 509.654 1184 c 0
 500.585 1157.33 496.493 1131.33 497.378 1106 c 0
 499.473 1046 524.394 991 572.14 941 c 0
 619.886 891 680.527 844 754.063 800 c 1
EndSplineSet
Fore
SplineSet
754 771 m 1xc0
 788.277 799.895 816.849 835.472 838 875 c 0
 876.66 947.249 891.837 1031.34 885 1113 c 0
 882.048 1148.26 874.526 1183.38 860.049 1215.66 c 0
 845.571 1247.95 823.707 1277.31 795 1298 c 0
 767.991 1317.46 735.07 1328.83 701.781 1329.23 c 0
 668.492 1329.64 635.24 1319.08 607.989 1299.96 c 0
 580.739 1280.83 559.614 1253.44 546.721 1222.75 c 0
 533.828 1192.05 529.013 1158.23 531 1125 c 0
 533.773 1078.63 549.502 1033.63 572.252 993.133 c 0
 595.001 952.633 624.659 916.344 657 883 c 0
 712.17 826.12 775.037 777.373 834.549 725.053 c 0
 894.062 672.733 951.094 616.253 993 549 c 0
 1035.34 481.047 1060.77 400.779 1054 321 c 0
 1049.99 273.751 1034.95 227.54 1010.85 186.702 c 0
 986.756 145.864 953.867 110.481 916.134 81.7622 c 0
 840.669 24.3237 747.85 -7.35157 654 -21 c 0
 565.748 -33.8343 473.664 -30.8787 390 0 c 0
 329.436 22.3529 274.005 60.4694 235.643 112.392 c 0
 197.282 164.315 177.337 229.498 180 294 c 0
 182.415 352.487 202.68 409.374 232.888 459.514 c 0
 263.095 509.655 302.608 553.633 345 594 c 0
 405.34 651.458 471.425 702.673 540 750 c 1
 597 711 l 1
 525.682 654.43 465.268 583.125 426 501 c 0
 406.639 460.509 392.731 417.155 387.801 372.544 c 0
 382.872 327.934 387.272 282.036 403 240 c 0
 420.297 193.77 451.407 152.736 491.58 124.056 c 0
 531.752 95.376 580.651 79.0279 630 78 c 0
 687.535 76.8016 745.883 97.0904 787.972 136.336 c 0
 830.061 175.582 853.854 233.482 852 291 c 0
 850.563 335.575 834.664 378.929 810.884 416.658 c 0
 787.105 454.387 755.943 486.937 723 517 c 0
 637.828 594.727 542.409 661.539 465 747 c 0
 424.315 791.917 388.141 841.554 363.531 896.936 c 0
 338.922 952.318 326.67 1013.63 332 1074 c 0
 337.017 1130.83 357.481 1185.95 389.038 1233.47 c 0
 420.595 1281 462.649 1321.18 510 1353 c 0
 584.27 1402.91 672.569 1433.66 762.05 1433.57 c 0
 806.791 1433.53 851.661 1425.46 893.031 1408.42 c 0
 934.401 1391.39 972.106 1365.29 1002 1332 c 0
 1057.98 1269.67 1083.69 1182.9 1076.98 1099.39 c 0
 1070.27 1015.88 1034.04 936.435 983 870 c 0
 936.362 809.292 877.246 758.366 811 720 c 1
 754 771 l 1xc0
  Spiro
    754 771 v
    838 875 o
    885 1113 o
    795 1298 o
    531 1125 o
    657 883 o
    993 549 o
    1054 321 o
    654 -21 o
    390 0 o
    180 294 o
    345 594 o
    540 750 v
    597 711 v
    426 501 o
    403 240 o
    630 78 o
    852 291 o
    723 517 o
    465 747 o
    332 1074 o
    510 1353 o
    1002 1332 o
    983 870 o
    811 720 v
    699 747 z
  EndSpiro
EndSplineSet
EndChar

StartChar: six
Encoding: 54 54 67
Width: 1190
VWidth: 2000
InSpiro: 1
Flags: HMW
HStem: -26 98<509.6 775.332> 716 122<593.98 815.234>
VStem: 200 220<181.619 628.522> 906 220<281.002 617.592>
LayerCount: 3
Back
SplineSet
456.857 720 m 1
 472.298 736 491.108 751 513.285 765 c 0
 535.463 779 560.032 791.334 586.993 802 c 0
 613.955 812.666 642.652 821.334 673.086 828 c 0
 703.519 834.666 734.736 838 766.736 838 c 0
 818.736 838 865.432 827.666 906.819 807 c 0
 948.207 786.334 983.829 759 1013.68 725 c 0
 1043.54 691 1066.58 651.666 1082.8 607 c 0
 1099.03 562.334 1107.98 516 1109.66 468 c 0
 1111.99 401.334 1098.86 338 1070.29 278 c 0
 1041.72 218 1003.21 165.667 954.774 121 c 0
 906.334 76.333 850.246 40.667 786.511 14 c 0
 722.776 -12.667 656.242 -26 586.908 -26 c 256
 517.574 -26 458.167 -14.333 408.686 9 c 0
 359.205 32.333 318.122 63.333 285.438 102 c 0
 252.754 140.667 228.505 186 212.688 238 c 0
 196.873 290 187.94 345.334 185.892 404 c 0
 183.331 477.334 192.104 550.666 212.209 624 c 0
 232.314 697.334 261.491 768.666 299.736 838 c 0
 337.981 907.334 383.345 973.334 435.822 1036 c 0
 488.3 1098.67 545.298 1156 606.815 1208 c 0
 668.334 1260 733.083 1305.33 801.066 1344 c 0
 869.05 1382.67 937.979 1413.33 1007.85 1436 c 1
 1044.23 1368 l 1
 962.819 1332 889.31 1289.33 823.698 1240 c 0
 758.087 1190.67 700.283 1137.33 650.285 1080 c 0
 600.288 1022.67 558.037 963 523.536 901 c 0
 489.035 839 462.809 778.666 444.857 720 c 1
 456.857 720 l 1
607.485 72 m 0
 668.819 72 718.424 83.333 756.299 106 c 0
 794.173 128.667 823.482 158 844.226 194 c 0
 864.968 230 878.249 269.666 884.07 313 c 0
 889.891 356.334 892.102 398 890.705 438 c 0
 889.494 472.666 883.973 506.666 874.143 540 c 0
 864.312 573.334 850.276 603 832.035 629 c 0
 813.793 655 791.06 676 763.835 692 c 0
 736.61 708 704.997 716 668.997 716 c 0
 646.331 716 623.09 713.334 599.276 708 c 0
 575.462 702.666 552.385 695.334 530.044 686 c 0
 507.704 676.666 487.72 666.666 470.092 656 c 0
 452.465 645.334 439.837 634.666 432.209 624 c 1
 426.475 597.334 420.281 564.666 413.632 526 c 0
 406.982 487.334 404.379 447.334 405.822 406 c 0
 407.312 363.334 412.756 322 422.152 282 c 0
 431.549 242 444.795 206.334 461.889 175 c 0
 478.983 143.667 499.856 118.667 524.508 100 c 0
 549.16 81.333 576.819 72 607.485 72 c 0
EndSplineSet
Fore
SplineSet
180 459 m 0
 185.263 325.52 226.066 188.916 318 92 c 0
 359.157 48.613 409.808 14.0966 465.707 -7.15462 c 0
 521.606 -28.4059 582.527 -36.2652 642 -30 c 0
 713.99 -22.4163 783.373 5.83527 841.614 48.8239 c 0
 899.855 91.8125 947.006 149.09 981 213 c 0
 1049.22 341.261 1071.29 496.137 1032 636 c 0
 1015.77 693.772 986.98 748.919 943.516 790.292 c 0
 900.051 831.665 841.887 857.192 782 861 c 0
 719.482 864.975 657.284 847.355 600 822 c 0
 537.194 794.201 480.625 754.137 428 710 c 2
 366 658 l 1
 393 560 l 1
 423 592 l 2
 442.362 612.652 462.26 633.026 485.213 649.595 c 0
 508.166 666.165 533.837 679.027 561 687 c 0
 608.698 701.001 661.312 699.588 707 680 c 0
 756.531 658.764 795.461 616.98 820 569 c 0
 847.215 515.788 859.232 455.795 862.498 396.116 c 0
 865.764 336.438 860.876 275.709 842 219 c 0
 828.335 177.949 806.085 138.881 773 111 c 0
 743.552 86.1835 705.638 71.2426 667.13 70.8509 c 0
 628.621 70.4592 590.538 84.5368 560 108 c 0
 518.9 139.579 491.71 186.063 472 234 c 0
 446.762 295.381 430.912 360.377 421 426 c 0
 409.471 502.326 407.91 579.871 411 657 c 0
 413.491 719.167 418.544 781.232 426 843 c 0
 435.31 920.13 447.038 997.91 476 1070 c 0
 489.62 1103.9 507.715 1136.37 532.467 1163.24 c 0
 557.22 1190.12 588.891 1210.89 624 1221 c 0
 653.947 1229.63 685.909 1230.5 716.585 1225 c 0
 747.261 1219.51 776.653 1207.95 804 1193 c 0
 852.042 1166.74 894.402 1130.6 930 1089 c 1
 953.347 1109.41 971.067 1136.19 980.744 1165.65 c 0
 990.42 1195.11 992.021 1227.16 985.477 1257.47 c 0
 978.933 1287.78 964.287 1316.25 943.74 1339.48 c 0
 923.193 1362.7 896.853 1380.64 868 1392 c 0
 827.703 1407.87 782.932 1410.83 740.184 1403.89 c 0
 697.435 1396.95 656.586 1380.52 619 1359 c 0
 551.195 1320.19 493.265 1265.81 443 1206 c 0
 356.237 1102.76 291.305 982.02 246 855 c 0
 200.776 728.208 174.697 593.511 180 459 c 0
  Spiro
    180 459 o
    318 92 o
    642 -30 o
    981 213 o
    1032 636 o
    782 861 o
    600 822 o
    428 710 [
    366 658 v
    393 560 v
    423 592 ]
    561 687 o
    707 680 o
    820 569 o
    842 219 o
    773 111 o
    560 108 o
    472 234 o
    421 426 o
    411 657 o
    426 843 o
    476 1070 o
    624 1221 o
    804 1193 o
    930 1089 v
    868 1392 o
    619 1359 o
    443 1206 o
    246 855 o
    180 459 z
  EndSpiro
EndSplineSet
Layer: 2
SplineSet
864.767 562.062 m 5
 534.333 86.1377 l 5
 501.151 98.4551 467.63 109.862 433.807 120.289 c 4
 334.712 150.837 232.485 173.342 128.853 176.977 c 4
 88.9951 178.374 49.0371 177.007 9.37695 172.801 c 5
 5.04492 200.324 6.42578 228.771 13.7129 255.663 c 4
 21.8564 285.723 37.6035 314.056 60.6572 334.993 c 4
 78.2451 350.966 100.075 362.229 123.311 367.186 c 4
 146.546 372.143 170.648 370.468 194.212 367.432 c 4
 282.712 356.027 370.091 335.934 454.683 307.533 c 4
 483.87 297.733 512.726 286.948 541.186 275.201 c 5
 725.163 530.266 l 5
 717.027 534.602 l 5
 651.108 525.103 582.83 532.048 520.309 554.996 c 4
 447.126 581.858 382.079 631.283 338.364 695.831 c 4
 295.048 759.791 273.454 837.427 273.143 914.674 c 4
 272.831 991.922 292.542 1068.72 326.32 1138.19 c 4
 364.162 1216.02 420.33 1285.45 491.082 1335.29 c 4
 563.257 1386.12 650.373 1414.77 738.546 1419.11 c 4
 818.484 1423.05 898.94 1409.35 974.394 1382.66 c 4
 1033.51 1361.75 1090.48 1331.71 1134.71 1287.27 c 4
 1180.83 1240.93 1211.24 1177.42 1210.76 1112.05 c 4
 1210.51 1079.36 1202.72 1046.7 1187.73 1017.65 c 4
 1172.74 988.599 1150.57 963.257 1123.63 944.739 c 4
 1081.92 916.062 1028.79 904.473 978.943 913.318 c 5
 983.674 944.564 986.317 976.141 986.491 1007.74 c 4
 986.811 1065.92 978.311 1125.55 950.359 1176.57 c 4
 925.33 1222.26 884.721 1259.23 836.824 1279.72 c 4
 788.954 1300.21 734.02 1304.47 684 1290 c 4
 631.58 1274.84 586.047 1238.71 557.244 1192.36 c 4
 524.699 1140 512.165 1077.36 509.229 1015.77 c 4
 507.195 973.141 509.707 930.079 519.664 888.576 c 4
 529.622 847.074 547.884 807.304 575.016 774.357 c 4
 613.576 727.531 668.228 696.551 724.789 674.633 c 4
 764.929 659.079 806.461 647.229 848.547 638.18 c 5
 864.767 562.062 l 5
  Spiro
    864.767 562.062 v
    534.334 86.1379 v
    433.806 120.289 o
    128.853 176.976 o
    9.37686 172.801 v
    13.7127 255.664 o
    60.6574 334.993 c
    194.212 367.432 [
    454.683 307.533 o
    541.185 275.202 v
    725.164 530.266 v
    717.027 534.602 v
    520.309 554.996 o
    338.365 695.831 o
    326.321 1138.19 o
    491.082 1335.29 o
    738.546 1419.11 o
    974.394 1382.66 o
    1134.71 1287.27 o
    1123.63 944.739 o
    978.944 913.318 v
    986.491 1007.74 o
    950.359 1176.57 o
    836.825 1279.72 o
    684 1290 o
    557.244 1192.36 o
    509.229 1015.77 o
    575.015 774.357 o
    724.789 674.633 o
    848.547 638.18 v
    369 780 z
  EndSpiro
EndSplineSet
EndChar

StartChar: nine
Encoding: 57 57 68
Width: 1162
VWidth: 2000
InSpiro: 1
Flags: HMW
HStem: -32 88<319.394 432.08> 552 128<564.186 783.41> 1336 96<615.606 880.208>
VStem: 266 204<781.004 1094.1> 976 208<781.844 1221.34>
LayerCount: 3
Back
SplineSet
1119 951 m 4
 1116.02 1056.76 1098 1165.48 1041.09 1254.67 c 4
 1006.95 1308.17 959.145 1353.04 903.016 1382.67 c 4
 846.886 1412.31 783.041 1426.76 719.576 1425.72 c 4
 647.078 1424.54 575.179 1403.38 512.871 1366.29 c 4
 450.562 1329.21 398.039 1276.28 359.816 1214.67 c 4
 321.839 1153.45 297.708 1084.07 286.225 1012.95 c 4
 274.741 941.829 275.123 868.486 290.43 798.089 c 4
 302.476 742.685 324.585 688.81 359.933 644.478 c 4
 395.281 600.147 444.32 566.728 498.855 551.215 c 4
 545.146 538.047 594.35 537.238 642 544 c 4
 692.816 551.211 742.382 566.53 789 588 c 4
 818.518 601.594 846.853 618.181 871.389 639.49 c 4
 895.925 660.799 916.573 686.616 931.644 715.408 c 5
 930 801 l 5
 920.944 784.419 908.671 769.633 894.206 757.48 c 4
 879.741 745.327 863.138 735.952 846 728 c 4
 810.751 711.644 773.267 699.905 734.811 694.323 c 4
 685.76 687.202 633.791 691.289 590.059 714.616 c 4
 565.013 727.976 543.271 747.247 526.23 769.949 c 4
 509.189 792.651 496.715 818.562 487.659 845.464 c 4
 469.734 898.716 463.827 955.522 465.07 1011.7 c 4
 466.314 1067.87 475.214 1124.51 497.689 1176.01 c 4
 514.985 1215.64 541.12 1252.06 576.256 1277.26 c 4
 610.554 1301.87 653.325 1314.87 695.422 1311.8 c 4
 737.519 1308.73 777.851 1289.69 808.641 1260.82 c 4
 846.448 1225.36 869.83 1176.94 884.776 1127.31 c 4
 901.405 1072.1 909.264 1014.54 913 957 c 4
 922.282 814.04 905.042 668.605 856 534 c 4
 806.916 399.278 722.77 277.045 612 186 c 4
 530.231 118.792 434.671 68.4328 333 39 c 5
 360 -27 l 5
 562.073 5.63428 753.267 106.58 891 258 c 4
 975.173 350.538 1038.06 462.179 1074 582 c 4
 1109.74 701.164 1122.5 826.642 1119 951 c 4
  Spiro
    1119 951 o
    1041.09 1254.67 o
    719.576 1425.72 o
    359.816 1214.67 o
    290.43 798.089 o
    498.855 551.215 o
    642 544 o
    789 588 ]
    931.644 715.408 v
    930 801 v
    846 728 [
    734.811 694.323 o
    590.059 714.616 o
    487.659 845.465 o
    497.689 1176.01 o
    576.256 1277.26 o
    808.641 1260.82 o
    884.776 1127.31 o
    913 957 o
    856 534 o
    612 186 o
    333 39 v
    360 -27 v
    891 258 o
    1074 582 o
    1119 951 z
  EndSpiro
EndSplineSet
Fore
SplineSet
1119 951 m 0
 1114.22 1056.59 1097.39 1165.21 1041.09 1254.67 c 0
 1007.25 1308.44 959.497 1353.53 903.287 1383.14 c 0
 847.078 1412.75 783.097 1426.96 719.576 1425.72 c 0
 647.115 1424.31 575.309 1403.06 513.009 1366.03 c 0
 450.709 1329 398.107 1276.2 359.816 1214.67 c 0
 321.749 1153.5 297.579 1084.11 286.114 1012.97 c 0
 274.649 941.841 275.092 868.488 290.43 798.089 c 0
 302.499 742.693 324.611 688.825 359.952 644.492 c 0
 395.294 600.16 444.324 566.731 498.855 551.215 c 0
 545.145 538.043 594.35 537.237 642 544 c 0
 692.815 551.213 742.381 566.533 789 588 c 0
 818.519 601.593 846.856 618.178 871.392 639.487 c 0
 895.929 660.796 916.576 686.614 931.644 715.408 c 1
 930 801 l 1
 920.944 784.419 908.671 769.633 894.206 757.48 c 0
 879.741 745.327 863.138 735.952 846 728 c 0
 810.751 711.644 773.267 699.905 734.811 694.323 c 0
 685.76 687.203 633.792 691.289 590.059 714.616 c 0
 565.013 727.975 543.27 747.246 526.229 769.948 c 0
 509.188 792.65 496.714 818.562 487.659 845.465 c 0
 469.736 898.716 463.832 955.522 465.076 1011.69 c 0
 466.321 1067.87 475.218 1124.51 497.689 1176.01 c 0
 514.982 1215.64 541.117 1252.06 576.256 1277.26 c 0
 610.554 1301.86 653.323 1314.85 695.417 1311.78 c 0
 737.511 1308.71 777.842 1289.68 808.641 1260.82 c 0
 846.466 1225.38 869.869 1176.95 884.776 1127.31 c 0
 901.359 1072.09 909.002 1014.52 913 957 c 0
 922.165 825.122 915.462 692.403 901 561 c 0
 892.386 482.729 878.001 403.509 841 334 c 0
 821.297 296.987 795.057 263.243 762.63 236.661 c 0
 730.203 210.079 691.722 190.993 651 181 c 0
 597.157 167.788 540.395 170.285 486 181 c 0
 423.019 193.407 362.206 215.879 305 245 c 1
 286.364 213.105 279.226 174.683 285.001 138.196 c 0
 290.776 101.71 309.353 67.5839 336 42 c 0
 357.973 20.9038 385.145 5.54306 414.055 -4.05385 c 0
 442.965 -13.6508 473.541 -17.6194 504 -18 c 0
 590.407 -19.0797 675.852 8.45423 749.873 53.045 c 0
 823.893 97.6357 887.264 158.785 939 228 c 0
 1016.75 332.022 1067.96 454.767 1094 582 c 0
 1118.77 703.06 1124.59 827.559 1119 951 c 0
  Spiro
    1119 951 o
    1041.09 1254.67 o
    719.576 1425.72 o
    359.816 1214.67 o
    290.43 798.089 o
    498.855 551.215 o
    642 544 o
    789 588 ]
    931.644 715.408 v
    930 801 v
    846 728 [
    734.811 694.323 o
    590.059 714.616 o
    487.659 845.465 o
    497.689 1176.01 o
    576.256 1277.26 o
    808.641 1260.82 o
    884.776 1127.31 o
    913 957 o
    901 561 o
    841 334 o
    651 181 o
    486 181 o
    305 245 v
    336 42 o
    504 -18 c
    939 228 o
    1094 582 o
    1119 951 z
  EndSpiro
EndSplineSet
Layer: 2
SplineSet
1143 933 m 0
 1137.74 1066.48 1096.93 1203.08 1005 1300 c 0
 963.843 1343.39 913.192 1377.9 857.293 1399.15 c 0
 801.395 1420.41 740.474 1428.27 681 1422 c 0
 609.011 1414.42 539.627 1386.17 481.386 1343.18 c 0
 423.146 1300.19 375.994 1242.91 342 1179 c 0
 273.777 1050.74 251.711 895.863 291 756 c 0
 307.229 698.229 336.02 643.081 379.484 601.708 c 0
 422.949 560.335 481.113 534.808 541 531 c 0
 603.518 527.025 665.717 544.645 723 570 c 0
 785.807 597.799 842.375 637.863 895 682 c 2
 957 734 l 1
 930 832 l 1
 900 800 l 2
 880.639 779.348 860.74 758.975 837.787 742.404 c 0
 814.834 725.835 789.163 712.974 762 705 c 0
 714.303 690.999 661.688 692.412 616 712 c 0
 566.469 733.235 527.539 775.02 503 823 c 0
 475.785 876.212 463.769 936.205 460.502 995.884 c 0
 457.235 1055.56 462.124 1116.29 481 1173 c 0
 494.664 1214.05 516.915 1253.12 550 1281 c 0
 579.448 1305.82 617.361 1320.76 655.87 1321.15 c 0
 694.379 1321.54 732.463 1307.46 763 1284 c 0
 804.1 1252.42 831.29 1205.94 851 1158 c 0
 876.238 1096.62 892.088 1031.62 902 966 c 0
 913.529 889.675 915.091 812.129 912 735 c 0
 909.509 672.833 904.456 610.769 897 549 c 0
 887.689 471.87 875.962 394.09 847 322 c 0
 833.38 288.098 815.285 255.633 790.533 228.759 c 0
 765.78 201.885 734.108 181.114 699 171 c 0
 669.054 162.373 637.092 161.504 606.415 166.999 c 0
 575.739 172.494 546.347 184.054 519 199 c 0
 470.958 225.258 428.598 261.402 393 303 c 1
 369.653 282.591 351.933 255.812 342.257 226.352 c 0
 332.58 196.89 330.979 164.841 337.523 134.529 c 0
 344.067 104.217 358.713 75.748 379.26 52.5215 c 0
 399.808 29.2969 426.147 11.3633 455 0 c 0
 495.297 -15.8701 540.068 -18.835 582.816 -11.8906 c 0
 625.565 -4.94629 666.414 11.4844 704 33 c 0
 771.805 71.8145 829.734 126.188 880 186 c 0
 966.764 289.241 1031.7 409.98 1077 537 c 0
 1122.22 663.792 1148.3 798.489 1143 933 c 0
  Spiro
    1143 933 o
    1005 1300 o
    681 1422 o
    342 1179 o
    291 756 o
    541 531 o
    723 570 o
    895 682 [
    957 734 v
    930 832 v
    900 800 ]
    762 705 o
    616 712 o
    503 823 o
    481 1173 o
    550 1281 o
    763 1284 o
    851 1158 o
    902 966 o
    912 735 o
    897 549 o
    847 322 o
    699 171 o
    519 199 o
    393 303 v
    455 -7.5883e-05 o
    704 32.9999 o
    880 186 o
    1077 537 o
    180 459 z
  EndSpiro
EndSplineSet
EndChar

StartChar: zero
Encoding: 48 48 69
Width: 1190
VWidth: 2000
InSpiro: 1
Flags: HMW
HStem: -32 120<493.552 778.076> 1302 118<627.604 903.698>
VStem: 186 198<253.082 871.308> 1004 196<502.18 1140.6>
LayerCount: 3
Back
SplineSet
750 1419 m 4
 831.044 1417.86 910.945 1387.91 974.398 1337.48 c 4
 1037.85 1287.05 1084.84 1217.82 1116 1143 c 4
 1159.65 1038.19 1175.53 924.512 1175.53 810.345 c 4
 1175.53 759.076 1172.33 707.708 1167 657 c 4
 1157.04 562.252 1138.49 468.139 1107.32 378.113 c 4
 1076.15 288.086 1031.52 201.832 968.707 130.202 c 4
 905.894 58.5712 823.965 2.39692 732.045 -22.6431 c 4
 696.784 -32.2484 660.237 -37.041 623.698 -37.041 c 4
 564.984 -37.041 506.293 -24.6661 453 0 c 4
 358.367 43.7999 283.342 124.34 236.268 217.388 c 4
 189.195 310.436 167.676 414.877 162 519 c 4
 160.947 538.32 160.423 557.669 160.423 577.017 c 4
 160.423 668.638 172.163 760.267 195 849 c 4
 236.569 1010.52 314.475 1165.72 435 1281 c 4
 477.5 1321.65 525.742 1356.7 579.141 1381.34 c 4
 631.029 1405.29 687.882 1419.04 745.011 1419.04 c 4
 746.674 1419.04 748.337 1419.02 750 1419 c 4
  Spiro
    750 1419 o
    1116 1143 o
    1167 657 o
    453 0 o
    162 519 o
    195 849 o
    435 1281 o
    750 1419 z
  EndSpiro
747 1278 m 4
 698.429 1281.99 649.157 1267.37 608.519 1240.47 c 4
 567.882 1213.57 535.597 1175.47 510 1134 c 4
 465.035 1061.15 437.848 978.78 414.858 896.315 c 4
 391.868 813.85 373.685 729.94 363 645 c 4
 354.306 575.887 350.837 505.879 357.188 436.511 c 4
 363.539 367.143 379.787 297.677 414 237 c 4
 434.982 199.788 463.071 166.163 498.133 141.756 c 4
 533.194 117.35 575.287 102.754 618 102 c 4
 668.435 101.11 718.302 119.729 758.369 150.375 c 4
 798.435 181.021 829.123 222.566 853 267 c 4
 929.823 409.966 959.788 573.842 979 735 c 4
 986.8 800.43 990.518 866.509 986.422 932.275 c 4
 982.327 998.041 970.471 1064.11 943 1124 c 4
 924.818 1163.64 899.349 1200.41 865.801 1228.28 c 4
 832.254 1256.14 790.465 1274.43 747 1278 c 4
  Spiro
    747 1278 o
    510 1134 o
    363 645 o
    414 237 o
    618 102 o
    853 267 o
    979 735 o
    943 1124 o
    723 1299 z
  EndSpiro
EndSplineSet
Fore
SplineSet
750 1419 m 0
 827.872 1413.88 903.087 1381.83 963.311 1332.2 c 0
 1023.53 1282.56 1069.15 1216.79 1102 1146 c 0
 1172.17 994.8 1191 823.18 1178 657 c 0
 1165.42 496.191 1121.36 335.593 1034 200 c 0
 994.824 139.196 946.305 83.9222 888.077 41.0118 c 0
 829.848 -1.89862 761.629 -31.9415 690 -42 c 0
 609.209 -53.3451 524.993 -38.378 453 0 c 0
 361.563 48.7431 292.321 133.079 249.024 227.217 c 0
 205.727 321.355 185.292 424.715 177 528 c 0
 168.395 635.184 173.004 743.745 195 849 c 0
 224.953 992.33 287.477 1130.02 383 1241 c 0
 429.011 1294.45 483.38 1341.42 545.962 1373.95 c 0
 608.543 1406.48 679.622 1423.63 750 1419 c 0
  Spiro
    750 1419 o
    1102 1146 o
    1178 657 o
    1034 200 o
    690 -42 o
    453 0 o
    177 528 o
    195 849 o
    383 1241 o
    750 1419 z
  EndSpiro
590.63 1264.59 m 0
 542.803 1255.4 499.372 1227.96 467.551 1191.09 c 0
 435.731 1154.22 414.878 1108.93 400.976 1062.26 c 0
 376.498 980.078 370.352 893.48 369.534 807.734 c 0
 368.715 721.988 374.932 636.053 390.619 551.75 c 0
 407.887 458.956 435 367.408 477.868 283.318 c 0
 498.153 243.526 522.657 205.499 554.072 173.751 c 0
 583.396 144.116 619.095 120.235 658.912 107.878 c 0
 698.73 95.5205 742.35 95.249 782.005 108.117 c 0
 829.839 123.638 870.417 157.754 898.629 199.384 c 0
 926.841 241.014 943.73 289.37 955.206 338.332 c 0
 989.018 482.585 994.864 633.526 975.338 780.396 c 0
 964.765 859.922 944.44 938.241 913.812 1012.39 c 0
 887.858 1075.22 854.369 1135.96 807.003 1184.73 c 0
 779.062 1213.5 745.975 1237.73 708.701 1252.53 c 0
 671.426 1267.32 630.013 1272.15 590.63 1264.59 c 0
  Spiro
    590.63 1264.59 o
    400.976 1062.26 o
    390.619 551.75 o
    477.868 283.318 o
    554.072 173.751 o
    782.005 108.117 o
    955.206 338.332 o
    975.338 780.396 o
    913.812 1012.39 o
    807.003 1184.73 o
    723 1299 z
  EndSpiro
EndSplineSet
EndChar

StartChar: question
Encoding: 63 63 70
Width: 728
VWidth: 0
Flags: HMW
LayerCount: 3
Back
SplineSet
488 110 m 1
 474 24 396 -44 312 -44 c 0
 228 -44 172 26 186 112 c 1
 198 194 278 254 358 254 c 0
 440 254 500 192 488 110 c 1
256 1396 m 0
 266 1460 330 1560 520 1560 c 0
 708 1560 902 1350 854 1042 c 1
 808 754 466 796 438 616 c 0
 430 568 432 524 440 464 c 1
 346 444 l 1
 322 492 278 610 294 708 c 0
 338 980 694 890 734 1138 c 0
 752 1250 642 1348 570 1348 c 0
 478 1348 384 1318 324 1262 c 1
 286 1278 246 1330 256 1396 c 0
EndSplineSet
Fore
SplineSet
488 110 m 1
 474 24 396 -44 312 -44 c 0
 228 -44 172 26 186 112 c 1
 198 194 278 254 358 254 c 0
 440 254 500 192 488 110 c 1
256 1396 m 0
 266 1460 330 1560 520 1560 c 0
 708 1560 902 1350 854 1042 c 1
 808 754 466 796 438 616 c 0
 430 568 432 524 440 464 c 1
 346 444 l 1
 322 492 278 610 294 708 c 0
 338 980 694 890 734 1138 c 0
 752 1250 642 1348 570 1348 c 0
 478 1348 384 1318 324 1262 c 1
 286 1278 246 1330 256 1396 c 0
EndSplineSet
EndChar

StartChar: quotedbl
Encoding: 34 34 103
Width: 674
VWidth: 0
Flags: HMW
LayerCount: 3
Back
SplineSet
100 1578 m 1
 116 1580 130 1580 146 1580 c 0
 204 1580 264 1572 322 1558 c 1
 278 1094 l 1
 248 1084 222 1080 188 1080 c 0
 180 1080 172 1080 164 1080 c 1
 100 1578 l 1
352 1578 m 1
 368 1580 382 1580 398 1580 c 0
 456 1580 516 1572 574 1558 c 1
 530 1094 l 1
 500 1084 474 1080 440 1080 c 0
 432 1080 426 1080 416 1080 c 1
 352 1578 l 1
EndSplineSet
Fore
SplineSet
100 1578 m 1
 116 1580 130 1580 146 1580 c 0
 204 1580 264 1572 322 1558 c 1
 278 1094 l 1
 248 1084 222 1080 188 1080 c 0
 180 1080 172 1080 164 1080 c 1
 100 1578 l 1
352 1578 m 1
 368 1580 382 1580 398 1580 c 0
 456 1580 516 1572 574 1558 c 1
 530 1094 l 1
 500 1084 474 1080 440 1080 c 0
 432 1080 426 1080 416 1080 c 1
 352 1578 l 1
EndSplineSet
EndChar

StartChar: numbersign
Encoding: 35 35 104
Width: 1138
VWidth: 0
Flags: HMW
LayerCount: 3
Back
SplineSet
426 674 m 1
 672 674 l 1
 712 930 l 1
 464 930 l 1
 426 674 l 1
406 552 m 1
 376 328 l 1
 248 318 l 1
 280 552 l 1
 76 552 l 1
 106 674 l 1
 302 674 l 1
 340 930 l 1
 144 930 l 1
 172 1052 l 1
 360 1052 l 1
 396 1264 l 1
 520 1276 l 1
 484 1052 l 1
 732 1052 l 1
 766 1264 l 1
 890 1274 l 1
 856 1052 l 1
 1060 1052 l 1
 1032 930 l 1
 836 930 l 1
 798 674 l 1
 992 674 l 1
 964 552 l 1
 776 552 l 1
 748 328 l 1
 620 318 l 1
 652 552 l 1
 406 552 l 1
EndSplineSet
Fore
SplineSet
426 674 m 1
 672 674 l 1
 712 930 l 1
 464 930 l 1
 426 674 l 1
406 552 m 1
 376 328 l 1
 248 318 l 1
 280 552 l 1
 76 552 l 1
 106 674 l 1
 302 674 l 1
 340 930 l 1
 144 930 l 1
 172 1052 l 1
 360 1052 l 1
 396 1264 l 1
 520 1276 l 1
 484 1052 l 1
 732 1052 l 1
 766 1264 l 1
 890 1274 l 1
 856 1052 l 1
 1060 1052 l 1
 1032 930 l 1
 836 930 l 1
 798 674 l 1
 992 674 l 1
 964 552 l 1
 776 552 l 1
 748 328 l 1
 620 318 l 1
 652 552 l 1
 406 552 l 1
EndSplineSet
EndChar

StartChar: dollar
Encoding: 36 36 105
Width: 1082
VWidth: 0
Flags: HMW
LayerCount: 3
Back
SplineSet
604 598 m 1
 604 104 l 1
 706 130 802 202 802 352 c 0
 802 444 716 530 604 598 c 1
500 946 m 1
 500 1432 l 1
 398 1420 330 1356 330 1214 c 0
 330 1102 390 1002 500 946 c 1
908 1072 m 1
 814 1092 l 1
 754 1324 l 2
 748 1344 692 1394 620 1418 c 1
 620 884 l 1
 812 770 1030 656 1030 428 c 0
 1030 186 834 24 602 -18 c 1
 602 -134 l 1
 482 -134 l 1
 482 -30 l 1
 480 -30 478 -30 476 -30 c 0
 300 -30 158 36 62 148 c 1
 78 472 l 1
 178 456 l 1
 240 226 l 1
 294 148 390 94 484 90 c 1
 484 638 l 1
 300 744 106 884 106 1126 c 0
 106 1380 288 1510 498 1534 c 1
 498 1626 l 1
 618 1626 l 1
 618 1536 l 1
 716 1528 834 1496 928 1412 c 1
 928 1402 908 1072 908 1072 c 1
EndSplineSet
Fore
SplineSet
604 598 m 1
 604 104 l 1
 706 130 802 202 802 352 c 0
 802 444 716 530 604 598 c 1
500 946 m 1
 500 1432 l 1
 398 1420 330 1356 330 1214 c 0
 330 1102 390 1002 500 946 c 1
908 1072 m 1
 814 1092 l 1
 754 1324 l 2
 748 1344 692 1394 620 1418 c 1
 620 884 l 1
 812 770 1030 656 1030 428 c 0
 1030 186 834 24 602 -18 c 1
 602 -134 l 1
 482 -134 l 1
 482 -30 l 1
 480 -30 478 -30 476 -30 c 0
 300 -30 158 36 62 148 c 1
 78 472 l 1
 178 456 l 1
 240 226 l 1
 294 148 390 94 484 90 c 1
 484 638 l 1
 300 744 106 884 106 1126 c 0
 106 1380 288 1510 498 1534 c 1
 498 1626 l 1
 618 1626 l 1
 618 1536 l 1
 716 1528 834 1496 928 1412 c 1
 928 1402 908 1072 908 1072 c 1
EndSplineSet
EndChar

StartChar: percent
Encoding: 37 37 106
Width: 1306
VWidth: 0
Flags: HMW
LayerCount: 3
Back
SplineSet
992 1162 m 1
 1154 1172 l 1
 324 -26 l 1
 156 -36 l 1
 992 1162 l 1
316 1178 m 0
 520 1178 594 1026 594 878 c 0
 594 698 488 568 296 568 c 0
 102 568 14 720 14 872 c 0
 14 1012 104 1178 316 1178 c 0
298 1066 m 0
 182 1066 154 988 154 888 c 0
 154 776 202 680 312 680 c 0
 424 680 456 764 456 866 c 0
 456 986 400 1066 298 1066 c 0
1050 574 m 0
 1244 574 1320 426 1320 280 c 0
 1320 100 1212 -28 1022 -28 c 0
 830 -28 740 124 740 272 c 0
 740 410 852 574 1050 574 c 0
1024 464 m 0
 938 464 880 420 880 288 c 0
 880 176 928 82 1038 82 c 0
 1150 82 1184 166 1184 266 c 0
 1184 386 1126 464 1024 464 c 0
EndSplineSet
Fore
SplineSet
992 1162 m 1
 1154 1172 l 1
 324 -26 l 1
 156 -36 l 1
 992 1162 l 1
316 1178 m 0
 520 1178 594 1026 594 878 c 0
 594 698 488 568 296 568 c 0
 102 568 14 720 14 872 c 0
 14 1012 104 1178 316 1178 c 0
298 1066 m 0
 182 1066 154 988 154 888 c 0
 154 776 202 680 312 680 c 0
 424 680 456 764 456 866 c 0
 456 986 400 1066 298 1066 c 0
1050 574 m 0
 1244 574 1320 426 1320 280 c 0
 1320 100 1212 -28 1022 -28 c 0
 830 -28 740 124 740 272 c 0
 740 410 852 574 1050 574 c 0
1024 464 m 0
 938 464 880 420 880 288 c 0
 880 176 928 82 1038 82 c 0
 1150 82 1184 166 1184 266 c 0
 1184 386 1126 464 1024 464 c 0
EndSplineSet
EndChar

StartChar: ampersand
Encoding: 38 38 107
Width: 1540
VWidth: 0
Flags: HMW
LayerCount: 3
Back
SplineSet
742 936 m 1
 868 1012 932 1080 950 1196 c 0
 970 1324 912 1438 784 1438 c 0
 674 1438 602 1332 588 1240 c 0
 570 1124 676 998 742 936 c 1
572 762 m 1
 554 764 l 1
 464 708 346 606 326 476 c 0
 300 308 370 128 554 128 c 0
 736 128 894 296 926 342 c 1
 572 762 l 1
1492 876 m 1
 1170 428 l 1
 1232 348 1410 129 1514 96 c 2
 1552 84 l 1
 1520 0 l 1
 1466 -18 1416 -24 1370 -24 c 0
 1236 -24 1116 112 1000 264 c 1
 902 152 730 -24 458 -24 c 0
 190 -24 48 164 82 380 c 0
 120 616 342 764 508 850 c 1
 446 910 362 1036 384 1180 c 0
 412 1360 616 1540 824 1540 c 0
 1018 1540 1198 1464 1160 1224 c 0
 1134 1066 958 948 814 868 c 1
 812 854 l 1
 1098 512 l 1
 1358 872 l 1
 1162 922 l 1
 1188 1014 l 1
 1732 1014 l 1
 1706 922 l 1
 1492 876 l 1
EndSplineSet
Fore
SplineSet
742 936 m 1
 868 1012 932 1080 950 1196 c 0
 970 1324 912 1438 784 1438 c 0
 674 1438 602 1332 588 1240 c 0
 570 1124 676 998 742 936 c 1
572 762 m 1
 554 764 l 1
 464 708 346 606 326 476 c 0
 300 308 370 128 554 128 c 0
 736 128 894 296 926 342 c 1
 572 762 l 1
1492 876 m 1
 1170 428 l 1
 1232 348 1410 129 1514 96 c 2
 1552 84 l 1
 1520 0 l 1
 1466 -18 1416 -24 1370 -24 c 0
 1236 -24 1116 112 1000 264 c 1
 902 152 730 -24 458 -24 c 0
 190 -24 48 164 82 380 c 0
 120 616 342 764 508 850 c 1
 446 910 362 1036 384 1180 c 0
 412 1360 616 1540 824 1540 c 0
 1018 1540 1198 1464 1160 1224 c 0
 1134 1066 958 948 814 868 c 1
 812 854 l 1
 1098 512 l 1
 1358 872 l 1
 1162 922 l 1
 1188 1014 l 1
 1732 1014 l 1
 1706 922 l 1
 1492 876 l 1
EndSplineSet
EndChar

StartChar: parenleft
Encoding: 40 40 108
Width: 574
VWidth: 0
Flags: HMW
LayerCount: 3
Back
SplineSet
546 -384 m 1
 462 -454 l 1
 400 -396 60 -84 60 540 c 0
 60 1176 388 1452 468 1520 c 1
 528 1440 l 1
 424 1304 276 1066 276 552 c 0
 276 48 492 -296 546 -384 c 1
EndSplineSet
Fore
SplineSet
546 -384 m 1
 462 -454 l 1
 400 -396 60 -84 60 540 c 0
 60 1176 388 1452 468 1520 c 1
 528 1440 l 1
 424 1304 276 1066 276 552 c 0
 276 48 492 -296 546 -384 c 1
EndSplineSet
EndChar

StartChar: parenright
Encoding: 41 41 109
Width: 574
VWidth: 0
Flags: HMW
LayerCount: 3
Back
SplineSet
28 1450 m 1
 112 1520 l 1
 174 1462 514 1150 514 526 c 0
 514 -110 186 -386 106 -454 c 1
 46 -374 l 1
 150 -238 298 0 298 514 c 0
 298 1018 82 1362 28 1450 c 1
EndSplineSet
Fore
SplineSet
28 1450 m 1
 112 1520 l 1
 174 1462 514 1150 514 526 c 0
 514 -110 186 -386 106 -454 c 1
 46 -374 l 1
 150 -238 298 0 298 514 c 0
 298 1018 82 1362 28 1450 c 1
EndSplineSet
EndChar

StartChar: asterisk
Encoding: 42 42 110
Width: 744
VWidth: 0
Flags: HMW
LayerCount: 3
Back
SplineSet
536 792 m 1
 386 774 l 1
 386 778 l 2
 386 782 386 786 386 790 c 0
 386 856 374 990 352 1056 c 1
 352 1060 l 1
 430 1084 l 1
 432 1082 l 1
 484 1018 524 886 536 796 c 1
 536 792 l 1
206 1466 m 1
 356 1484 l 1
 356 1478 l 1
 354 1474 354 1470 354 1466 c 0
 354 1402 368 1266 388 1202 c 1
 390 1198 l 1
 312 1172 l 1
 310 1174 l 1
 258 1240 218 1370 206 1460 c 1
 206 1466 l 1
716 1292 m 1
 734 1148 l 1
 728 1148 l 2
 724 1148 720 1148 716 1148 c 0
 650 1148 516 1136 452 1114 c 1
 448 1114 l 1
 422 1186 l 1
 424 1188 l 1
 490 1240 620 1278 710 1290 c 1
 716 1292 l 1
24 970 m 1
 6 1108 l 1
 10 1108 l 2
 14 1108 18 1108 22 1108 c 0
 88 1108 222 1120 288 1142 c 1
 292 1144 l 1
 318 1076 l 1
 314 1074 l 1
 250 1020 120 982 28 970 c 1
 24 970 l 1
EndSplineSet
Fore
SplineSet
536 792 m 1
 386 774 l 1
 386 778 l 2
 386 782 386 786 386 790 c 0
 386 856 374 990 352 1056 c 1
 352 1060 l 1
 430 1084 l 1
 432 1082 l 1
 484 1018 524 886 536 796 c 1
 536 792 l 1
206 1466 m 1
 356 1484 l 1
 356 1478 l 1
 354 1474 354 1470 354 1466 c 0
 354 1402 368 1266 388 1202 c 1
 390 1198 l 1
 312 1172 l 1
 310 1174 l 1
 258 1240 218 1370 206 1460 c 1
 206 1466 l 1
716 1292 m 1
 734 1148 l 1
 728 1148 l 2
 724 1148 720 1148 716 1148 c 0
 650 1148 516 1136 452 1114 c 1
 448 1114 l 1
 422 1186 l 1
 424 1188 l 1
 490 1240 620 1278 710 1290 c 1
 716 1292 l 1
24 970 m 1
 6 1108 l 1
 10 1108 l 2
 14 1108 18 1108 22 1108 c 0
 88 1108 222 1120 288 1142 c 1
 292 1144 l 1
 318 1076 l 1
 314 1074 l 1
 250 1020 120 982 28 970 c 1
 24 970 l 1
EndSplineSet
EndChar

StartChar: plus
Encoding: 43 43 111
Width: 690
VWidth: 0
Flags: HMW
LayerCount: 3
Back
SplineSet
410 496 m 1
 412 250 l 1
 278 264 l 1
 278 496 l 1
 50 496 l 1
 64 618 l 1
 278 618 l 1
 278 858 l 1
 408 844 l 1
 410 618 l 1
 636 618 l 1
 622 496 l 1
 410 496 l 1
EndSplineSet
Fore
SplineSet
410 496 m 1
 412 250 l 1
 278 264 l 1
 278 496 l 1
 50 496 l 1
 64 618 l 1
 278 618 l 1
 278 858 l 1
 408 844 l 1
 410 618 l 1
 636 618 l 1
 622 496 l 1
 410 496 l 1
EndSplineSet
EndChar

StartChar: slash
Encoding: 47 47 112
Width: 664
VWidth: 0
Flags: HMW
LayerCount: 3
Back
SplineSet
532 1496 m 1
 692 1506 l 1
 128 -430 l 1
 -28 -440 l 1
 532 1496 l 1
EndSplineSet
Fore
SplineSet
532 1496 m 1
 692 1506 l 1
 128 -430 l 1
 -28 -440 l 1
 532 1496 l 1
EndSplineSet
EndChar

StartChar: less
Encoding: 60 60 113
Width: 810
VWidth: 0
Flags: HMW
LayerCount: 3
Back
SplineSet
28 586 m 1
 700 1188 l 1
 764 1072 l 1
 222 584 l 1
 770 20 l 1
 690 -100 l 1
 30 552 l 1
 28 586 l 1
EndSplineSet
Fore
SplineSet
28 586 m 1
 700 1188 l 1
 764 1072 l 1
 222 584 l 1
 770 20 l 1
 690 -100 l 1
 30 552 l 1
 28 586 l 1
EndSplineSet
EndChar

StartChar: equal
Encoding: 61 61 114
Width: 830
VWidth: 0
Flags: HMW
LayerCount: 3
Back
SplineSet
86 804 m 1
 750 804 l 1
 736 676 l 1
 72 676 l 1
 86 804 l 1
82 514 m 1
 746 514 l 1
 732 386 l 1
 68 386 l 1
 82 514 l 1
EndSplineSet
Fore
SplineSet
86 804 m 1
 750 804 l 1
 736 676 l 1
 72 676 l 1
 86 804 l 1
82 514 m 1
 746 514 l 1
 732 386 l 1
 68 386 l 1
 82 514 l 1
EndSplineSet
EndChar

StartChar: greater
Encoding: 62 62 115
Width: 810
VWidth: 0
Flags: HMW
LayerCount: 3
Back
SplineSet
782 502 m 1
 110 -100 l 1
 46 18 l 1
 592 514 l 1
 40 1068 l 1
 120 1188 l 1
 780 536 l 1
 782 502 l 1
EndSplineSet
Fore
SplineSet
782 502 m 1
 110 -100 l 1
 46 18 l 1
 592 514 l 1
 40 1068 l 1
 120 1188 l 1
 780 536 l 1
 782 502 l 1
EndSplineSet
EndChar

StartChar: at
Encoding: 64 64 116
Width: 1060
VWidth: 0
Flags: HMW
LayerCount: 3
Back
SplineSet
632 264 m 1
 622 264 l 1
 606 214 498 130 384 130 c 0
 292 130 212 180 212 288 c 0
 212 416 300 504 614 562 c 1
 614 622 l 2
 614 740 586 850 470 850 c 0
 388 850 382 788 368 680 c 1
 322 680 248 684 248 772 c 0
 248 866 420 936 542 936 c 0
 696 936 758 852 758 668 c 2
 758 350 l 2
 758 270 794 234 854 234 c 0
 980 234 988 434 988 578 c 0
 988 836 816 1052 526 1052 c 0
 216 1052 54 794 54 514 c 0
 54 224 184 -32 558 -32 c 0
 564 -32 568 -32 572 -32 c 1
 562 -132 l 1
 542 -134 524 -134 506 -134 c 0
 188 -134 -74 74 -74 510 c 0
 -74 860 176 1150 554 1150 c 0
 904 1150 1116 930 1116 570 c 0
 1116 346 1042 136 836 136 c 0
 710 136 646 192 632 264 c 1
614 502 m 1
 396 468 366 412 366 328 c 0
 366 258 400 224 464 224 c 0
 534 224 592 292 614 322 c 1
 614 502 l 1
EndSplineSet
Fore
SplineSet
632 264 m 1
 622 264 l 1
 606 214 498 130 384 130 c 0
 292 130 212 180 212 288 c 0
 212 416 300 504 614 562 c 1
 614 622 l 2
 614 740 586 850 470 850 c 0
 388 850 382 788 368 680 c 1
 322 680 248 684 248 772 c 0
 248 866 420 936 542 936 c 0
 696 936 758 852 758 668 c 2
 758 350 l 2
 758 270 794 234 854 234 c 0
 980 234 988 434 988 578 c 0
 988 836 816 1052 526 1052 c 0
 216 1052 54 794 54 514 c 0
 54 224 184 -32 558 -32 c 0
 564 -32 568 -32 572 -32 c 1
 562 -132 l 1
 542 -134 524 -134 506 -134 c 0
 188 -134 -74 74 -74 510 c 0
 -74 860 176 1150 554 1150 c 0
 904 1150 1116 930 1116 570 c 0
 1116 346 1042 136 836 136 c 0
 710 136 646 192 632 264 c 1
614 502 m 1
 396 468 366 412 366 328 c 0
 366 258 400 224 464 224 c 0
 534 224 592 292 614 322 c 1
 614 502 l 1
EndSplineSet
EndChar

StartChar: bracketleft
Encoding: 91 91 117
Width: 602
VWidth: 0
Flags: HMW
LayerCount: 3
Back
SplineSet
420 -454 m 1
 184 -454 l 1
 164 -428 l 1
 402 1494 l 1
 434 1520 l 1
 668 1520 l 1
 652 1396 l 1
 520 1392 l 1
 310 -314 l 1
 436 -318 l 1
 420 -454 l 1
EndSplineSet
Fore
SplineSet
420 -454 m 1
 184 -454 l 1
 164 -428 l 1
 402 1494 l 1
 434 1520 l 1
 668 1520 l 1
 652 1396 l 1
 520 1392 l 1
 310 -314 l 1
 436 -318 l 1
 420 -454 l 1
EndSplineSet
EndChar

StartChar: backslash
Encoding: 92 92 118
Width: 664
VWidth: 0
Flags: HMW
LayerCount: 3
Back
SplineSet
132 1496 m 1
 692 -440 l 1
 536 -430 l 1
 -28 1506 l 1
 132 1496 l 1
EndSplineSet
Fore
SplineSet
132 1496 m 1
 692 -440 l 1
 536 -430 l 1
 -28 1506 l 1
 132 1496 l 1
EndSplineSet
EndChar

StartChar: bracketright
Encoding: 93 93 119
Width: 602
VWidth: 0
Flags: HMW
LayerCount: 3
Back
SplineSet
72 -454 m 1
 88 -318 l 1
 214 -314 l 1
 424 1392 l 1
 294 1396 l 1
 308 1520 l 1
 542 1520 l 1
 568 1494 l 1
 334 -428 l 1
 306 -454 l 1
 72 -454 l 1
EndSplineSet
Fore
SplineSet
72 -454 m 1
 88 -318 l 1
 214 -314 l 1
 424 1392 l 1
 294 1396 l 1
 308 1520 l 1
 542 1520 l 1
 568 1494 l 1
 334 -428 l 1
 306 -454 l 1
 72 -454 l 1
EndSplineSet
EndChar

StartChar: asciicircum
Encoding: 94 94 120
Width: 796
VWidth: 0
Flags: HMW
LayerCount: 3
Back
SplineSet
404 1238 m 1
 324 1296 l 1
 530 1550 l 1
 552 1562 574 1572 598 1572 c 0
 604 1572 614 1572 620 1570 c 1
 790 1304 l 1
 694 1244 l 1
 562 1434 l 1
 404 1238 l 1
EndSplineSet
Fore
SplineSet
404 1238 m 1
 324 1296 l 1
 530 1550 l 1
 552 1562 574 1572 598 1572 c 0
 604 1572 614 1572 620 1570 c 1
 790 1304 l 1
 694 1244 l 1
 562 1434 l 1
 404 1238 l 1
EndSplineSet
EndChar

StartChar: underscore
Encoding: 95 95 121
Width: 912
VWidth: 0
Flags: HMW
LayerCount: 3
Back
SplineSet
40 -32 m 1
 874 -32 l 1
 846 -160 l 1
 14 -160 l 1
 40 -32 l 1
EndSplineSet
Fore
SplineSet
40 -32 m 1
 874 -32 l 1
 846 -160 l 1
 14 -160 l 1
 40 -32 l 1
EndSplineSet
EndChar

StartChar: grave
Encoding: 96 96 122
Width: 374
VWidth: 0
Flags: HMW
LayerCount: 3
Back
SplineSet
188 1450 m 1
 364 1552 l 1
 378 1456 436 1232 488 1136 c 1
 408 1064 l 1
 320 1134 230 1316 188 1450 c 1
EndSplineSet
Fore
SplineSet
188 1450 m 1
 364 1552 l 1
 378 1456 436 1232 488 1136 c 1
 408 1064 l 1
 320 1134 230 1316 188 1450 c 1
EndSplineSet
EndChar

StartChar: braceleft
Encoding: 123 123 123
Width: 584
VWidth: 0
Flags: HMW
LayerCount: 3
Back
SplineSet
402 -454 m 1
 168 -454 l 1
 148 -428 l 1
 148 -428 178 42 230 500 c 1
 86 500 l 1
 114 640 l 1
 246 640 l 1
 306 1122 384 1494 384 1494 c 1
 416 1520 l 1
 652 1520 l 1
 628 1396 l 1
 504 1392 l 1
 504 1392 426 1016 374 592 c 0
 322 168 294 -314 294 -314 c 1
 430 -318 l 1
 402 -454 l 1
EndSplineSet
Fore
SplineSet
402 -454 m 1
 168 -454 l 1
 148 -428 l 1
 148 -428 178 42 230 500 c 1
 86 500 l 1
 114 640 l 1
 246 640 l 1
 306 1122 384 1494 384 1494 c 1
 416 1520 l 1
 652 1520 l 1
 628 1396 l 1
 504 1392 l 1
 504 1392 426 1016 374 592 c 0
 322 168 294 -314 294 -314 c 1
 430 -318 l 1
 402 -454 l 1
EndSplineSet
EndChar

StartChar: bar
Encoding: 124 124 124
Width: 616
VWidth: 0
Flags: HMW
LayerCount: 3
Back
SplineSet
318 -440 m 1
 204 -424 l 1
 444 1520 l 1
 558 1506 l 1
 318 -440 l 1
EndSplineSet
Fore
SplineSet
318 -440 m 1
 204 -424 l 1
 444 1520 l 1
 558 1506 l 1
 318 -440 l 1
EndSplineSet
EndChar

StartChar: braceright
Encoding: 125 125 125
Width: 584
VWidth: 0
Flags: HMW
LayerCount: 3
Back
SplineSet
314 1520 m 1
 548 1520 l 1
 568 1494 l 1
 568 1494 538 1024 486 566 c 1
 630 566 l 1
 602 426 l 1
 470 426 l 1
 410 -56 332 -428 332 -428 c 1
 300 -454 l 1
 64 -454 l 1
 88 -330 l 1
 212 -326 l 1
 212 -326 290 50 342 474 c 0
 394 898 422 1380 422 1380 c 1
 286 1384 l 1
 314 1520 l 1
EndSplineSet
Fore
SplineSet
314 1520 m 1
 548 1520 l 1
 568 1494 l 1
 568 1494 538 1024 486 566 c 1
 630 566 l 1
 602 426 l 1
 470 426 l 1
 410 -56 332 -428 332 -428 c 1
 300 -454 l 1
 64 -454 l 1
 88 -330 l 1
 212 -326 l 1
 212 -326 290 50 342 474 c 0
 394 898 422 1380 422 1380 c 1
 286 1384 l 1
 314 1520 l 1
EndSplineSet
EndChar

StartChar: asciitilde
Encoding: 126 126 126
Width: 690
VWidth: 0
Flags: HMW
LayerCount: 3
Back
SplineSet
0 500 m 1
 72 638 152 710 232 710 c 0
 348 710 446 620 528 620 c 0
 556 620 596 666 614 694 c 1
 690 668 l 1
 660 546 532 452 468 452 c 0
 366 452 280 544 186 544 c 0
 146 544 116 506 82 460 c 1
 0 500 l 1
EndSplineSet
Fore
SplineSet
0 500 m 1
 72 638 152 710 232 710 c 0
 348 710 446 620 528 620 c 0
 556 620 596 666 614 694 c 1
 690 668 l 1
 660 546 532 452 468 452 c 0
 366 452 280 544 186 544 c 0
 146 544 116 506 82 460 c 1
 0 500 l 1
EndSplineSet
EndChar

StartChar: exclamdown
Encoding: 161 161 161
Width: 588
VWidth: 0
Flags: HMW
LayerCount: 3
Back
SplineSet
144 950 m 0
 144 1036 212 1104 296 1104 c 0
 380 1104 446 1034 446 948 c 0
 446 866 376 806 296 806 c 0
 214 806 144 868 144 950 c 0
242 646 m 1
 242 654 l 1
 350 630 l 1
 350 626 l 1
 380 236 414 -322 414 -454 c 0
 414 -456 414 -456 414 -458 c 0
 404 -492 298 -506 254 -506 c 0
 222 -506 176 -496 176 -458 c 0
 176 -254 210 256 242 646 c 1
EndSplineSet
Fore
SplineSet
144 950 m 0
 144 1036 212 1104 296 1104 c 0
 380 1104 446 1034 446 948 c 0
 446 866 376 806 296 806 c 0
 214 806 144 868 144 950 c 0
242 646 m 1
 242 654 l 1
 350 630 l 1
 350 626 l 1
 380 236 414 -322 414 -454 c 0
 414 -456 414 -456 414 -458 c 0
 404 -492 298 -506 254 -506 c 0
 222 -506 176 -496 176 -458 c 0
 176 -254 210 256 242 646 c 1
EndSplineSet
EndChar

StartChar: cent
Encoding: 162 162 162
Width: 972
VWidth: 0
Flags: HMW
LayerCount: 3
Back
SplineSet
422 228 m 1
 518 966 l 1
 402 936 336 780 336 574 c 0
 336 454 358 322 422 228 c 1
678 1084 m 1
 836 1068 906 988 906 902 c 0
 906 830 856 784 754 776 c 1
 746 812 722 898 656 944 c 1
 550 126 l 1
 584 112 624 104 668 104 c 0
 778 104 856 148 918 190 c 1
 924 180 936 152 946 120 c 1
 844 14 726 -36 558 -36 c 0
 544 -36 532 -36 520 -34 c 1
 506 -138 l 1
 362 -162 l 1
 384 2 l 1
 208 82 102 280 102 504 c 0
 102 828 306 1042 536 1082 c 1
 556 1228 l 1
 700 1254 l 1
 678 1084 l 1
EndSplineSet
Fore
SplineSet
422 228 m 1
 518 966 l 1
 402 936 336 780 336 574 c 0
 336 454 358 322 422 228 c 1
678 1084 m 1
 836 1068 906 988 906 902 c 0
 906 830 856 784 754 776 c 1
 746 812 722 898 656 944 c 1
 550 126 l 1
 584 112 624 104 668 104 c 0
 778 104 856 148 918 190 c 1
 924 180 936 152 946 120 c 1
 844 14 726 -36 558 -36 c 0
 544 -36 532 -36 520 -34 c 1
 506 -138 l 1
 362 -162 l 1
 384 2 l 1
 208 82 102 280 102 504 c 0
 102 828 306 1042 536 1082 c 1
 556 1228 l 1
 700 1254 l 1
 678 1084 l 1
EndSplineSet
EndChar

StartChar: sterling
Encoding: 163 163 163
Width: 1290
VWidth: 0
Flags: HMW
LayerCount: 3
Back
SplineSet
1092 1466 m 1
 1054 1084 l 1
 950 1100 l 1
 900 1358 l 1
 874 1372 842 1386 798 1386 c 0
 596 1386 556 1256 548 852 c 1
 548 794 l 1
 814 810 l 1
 800 688 l 1
 546 672 l 1
 544 624 l 1
 540 432 528 238 470 120 c 1
 1028 116 l 1
 1186 422 l 1
 1290 400 l 1
 1244 0 l 1
 46 0 l 1
 56 90 l 1
 258 146 l 1
 296 268 302 378 306 558 c 2
 308 664 l 1
 92 652 l 1
 106 774 l 1
 312 786 l 1
 316 952 l 1
 328 1342 536 1514 810 1514 c 0
 908 1514 996 1506 1092 1466 c 1
EndSplineSet
Fore
SplineSet
1092 1466 m 1
 1054 1084 l 1
 950 1100 l 1
 900 1358 l 1
 874 1372 842 1386 798 1386 c 0
 596 1386 556 1256 548 852 c 1
 548 794 l 1
 814 810 l 1
 800 688 l 1
 546 672 l 1
 544 624 l 1
 540 432 528 238 470 120 c 1
 1028 116 l 1
 1186 422 l 1
 1290 400 l 1
 1244 0 l 1
 46 0 l 1
 56 90 l 1
 258 146 l 1
 296 268 302 378 306 558 c 2
 308 664 l 1
 92 652 l 1
 106 774 l 1
 312 786 l 1
 316 952 l 1
 328 1342 536 1514 810 1514 c 0
 908 1514 996 1506 1092 1466 c 1
EndSplineSet
EndChar

StartChar: currency
Encoding: 164 164 164
Width: 942
VWidth: 0
Flags: HMW
LayerCount: 3
Back
SplineSet
212 398 m 1
 176 452 154 520 154 592 c 0
 154 654 174 712 204 760 c 1
 128 838 l 1
 230 920 l 1
 290 858 l 1
 346 904 414 930 476 930 c 0
 552 930 616 908 666 870 c 1
 740 940 l 1
 818 834 l 1
 750 770 l 1
 780 718 794 656 794 594 c 0
 794 530 774 468 738 414 c 1
 826 328 l 1
 722 244 l 1
 650 320 l 1
 598 286 532 262 466 262 c 0
 406 262 350 280 304 308 c 1
 234 234 l 1
 142 330 l 1
 212 398 l 1
470 812 m 0
 356 812 284 714 284 598 c 0
 284 470 356 380 472 380 c 0
 592 380 666 466 666 590 c 0
 666 704 610 812 470 812 c 0
EndSplineSet
Fore
SplineSet
212 398 m 1
 176 452 154 520 154 592 c 0
 154 654 174 712 204 760 c 1
 128 838 l 1
 230 920 l 1
 290 858 l 1
 346 904 414 930 476 930 c 0
 552 930 616 908 666 870 c 1
 740 940 l 1
 818 834 l 1
 750 770 l 1
 780 718 794 656 794 594 c 0
 794 530 774 468 738 414 c 1
 826 328 l 1
 722 244 l 1
 650 320 l 1
 598 286 532 262 466 262 c 0
 406 262 350 280 304 308 c 1
 234 234 l 1
 142 330 l 1
 212 398 l 1
470 812 m 0
 356 812 284 714 284 598 c 0
 284 470 356 380 472 380 c 0
 592 380 666 466 666 590 c 0
 666 704 610 812 470 812 c 0
EndSplineSet
EndChar

StartChar: yen
Encoding: 165 165 165
Width: 1220
VWidth: 0
Flags: HMW
LayerCount: 3
Back
SplineSet
574 386 m 1
 372 372 l 1
 400 494 l 1
 590 508 l 1
 602 612 l 1
 340 1364 l 1
 208 1414 l 1
 232 1506 l 1
 742 1506 l 1
 720 1414 l 1
 554 1368 l 1
 760 776 l 1
 1098 1364 l 1
 920 1414 l 1
 942 1506 l 1
 1388 1506 l 1
 1366 1414 l 1
 1236 1368 l 1
 800 640 l 1
 786 518 l 1
 992 532 l 1
 964 410 l 1
 770 396 l 1
 738 138 l 1
 898 98 l 1
 876 0 l 1
 366 0 l 1
 388 90 l 1
 546 146 l 1
 574 386 l 1
EndSplineSet
Fore
SplineSet
574 386 m 1
 372 372 l 1
 400 494 l 1
 590 508 l 1
 602 612 l 1
 340 1364 l 1
 208 1414 l 1
 232 1506 l 1
 742 1506 l 1
 720 1414 l 1
 554 1368 l 1
 760 776 l 1
 1098 1364 l 1
 920 1414 l 1
 942 1506 l 1
 1388 1506 l 1
 1366 1414 l 1
 1236 1368 l 1
 800 640 l 1
 786 518 l 1
 992 532 l 1
 964 410 l 1
 770 396 l 1
 738 138 l 1
 898 98 l 1
 876 0 l 1
 366 0 l 1
 388 90 l 1
 546 146 l 1
 574 386 l 1
EndSplineSet
EndChar

StartChar: brokenbar
Encoding: 166 166 166
Width: 690
VWidth: 0
Flags: HMW
LayerCount: 3
Back
SplineSet
282 654 m 1
 282 1520 l 1
 416 1506 l 1
 410 640 l 1
 282 654 l 1
282 -424 m 1
 282 522 l 1
 416 508 l 1
 416 -440 l 1
 282 -424 l 1
EndSplineSet
Fore
SplineSet
282 654 m 1
 282 1520 l 1
 416 1506 l 1
 410 640 l 1
 282 654 l 1
282 -424 m 1
 282 522 l 1
 416 508 l 1
 416 -440 l 1
 282 -424 l 1
EndSplineSet
EndChar

StartChar: section
Encoding: 167 167 167
Width: 890
VWidth: 0
Flags: HMW
LayerCount: 3
Back
SplineSet
830 570 m 1
 440 794 l 1
 284 886 100 980 100 1190 c 0
 100 1418 282 1520 472 1520 c 0
 556 1520 668 1498 756 1418 c 1
 756 1410 740 1142 740 1142 c 1
 656 1158 l 1
 610 1348 l 1
 602 1370 528 1436 444 1436 c 0
 346 1436 278 1386 278 1260 c 0
 278 982 838 960 838 632 c 0
 838 606 836 592 830 570 c 1
100 958 m 1
 552 690 l 2
 692 607 836 512 836 348 c 0
 836 122 618 -20 394 -20 c 0
 254 -20 140 34 62 124 c 1
 76 386 l 1
 166 374 l 1
 212 186 l 1
 258 122 332 76 408 76 c 0
 510 76 654 122 654 286 c 0
 654 494 98 538 98 904 c 0
 98 918 98 948 100 958 c 1
EndSplineSet
Fore
SplineSet
830 570 m 1
 440 794 l 1
 284 886 100 980 100 1190 c 0
 100 1418 282 1520 472 1520 c 0
 556 1520 668 1498 756 1418 c 1
 756 1410 740 1142 740 1142 c 1
 656 1158 l 1
 610 1348 l 1
 602 1370 528 1436 444 1436 c 0
 346 1436 278 1386 278 1260 c 0
 278 982 838 960 838 632 c 0
 838 606 836 592 830 570 c 1
100 958 m 1
 552 690 l 2
 692 607 836 512 836 348 c 0
 836 122 618 -20 394 -20 c 0
 254 -20 140 34 62 124 c 1
 76 386 l 1
 166 374 l 1
 212 186 l 1
 258 122 332 76 408 76 c 0
 510 76 654 122 654 286 c 0
 654 494 98 538 98 904 c 0
 98 918 98 948 100 958 c 1
EndSplineSet
EndChar

StartChar: dieresis
Encoding: 168 168 168
Width: 490
VWidth: 0
Flags: HMW
LayerCount: 3
Back
SplineSet
266 234 m 0
 338 234 398 180 398 110 c 0
 398 36 338 -24 266 -24 c 0
 194 -24 136 38 136 112 c 0
 136 182 196 234 266 234 c 0
738 234 m 0
 810 234 870 180 870 110 c 0
 870 36 810 -24 738 -24 c 0
 666 -24 608 38 608 112 c 0
 608 182 668 234 738 234 c 0
EndSplineSet
Fore
SplineSet
266 234 m 0
 338 234 398 180 398 110 c 0
 398 36 338 -24 266 -24 c 0
 194 -24 136 38 136 112 c 0
 136 182 196 234 266 234 c 0
738 234 m 0
 810 234 870 180 870 110 c 0
 870 36 810 -24 738 -24 c 0
 666 -24 608 38 608 112 c 0
 608 182 668 234 738 234 c 0
EndSplineSet
EndChar

StartChar: copyright
Encoding: 169 169 169
Width: 1674
VWidth: 0
Flags: HMW
LayerCount: 3
Back
SplineSet
572 802 m 0
 572 520 726 408 902 408 c 0
 986 408 1078 432 1152 492 c 1
 1166 480 1178 454 1186 436 c 1
 1086 340 962 300 842 300 c 0
 616 300 398 458 398 752 c 0
 398 970 542 1252 878 1252 c 0
 976 1252 1070 1232 1140 1178 c 1
 1122 942 l 1
 1058 950 l 1
 1030 1106 l 1
 996 1150 930 1168 836 1168 c 0
 682 1168 572 1040 572 802 c 0
1594 754 m 0
 1594 336 1258 -32 818 -32 c 0
 378 -32 80 312 80 750 c 0
 80 1216 438 1552 830 1552 c 0
 1326 1552 1594 1180 1594 754 c 0
830 1430 m 0
 482 1430 226 1120 226 764 c 0
 226 376 476 94 828 94 c 0
 1164 94 1448 364 1448 742 c 0
 1448 1090 1258 1430 830 1430 c 0
EndSplineSet
Fore
SplineSet
572 802 m 0
 572 520 726 408 902 408 c 0
 986 408 1078 432 1152 492 c 1
 1166 480 1178 454 1186 436 c 1
 1086 340 962 300 842 300 c 0
 616 300 398 458 398 752 c 0
 398 970 542 1252 878 1252 c 0
 976 1252 1070 1232 1140 1178 c 1
 1122 942 l 1
 1058 950 l 1
 1030 1106 l 1
 996 1150 930 1168 836 1168 c 0
 682 1168 572 1040 572 802 c 0
1594 754 m 0
 1594 336 1258 -32 818 -32 c 0
 378 -32 80 312 80 750 c 0
 80 1216 438 1552 830 1552 c 0
 1326 1552 1594 1180 1594 754 c 0
830 1430 m 0
 482 1430 226 1120 226 764 c 0
 226 376 476 94 828 94 c 0
 1164 94 1448 364 1448 742 c 0
 1448 1090 1258 1430 830 1430 c 0
EndSplineSet
EndChar

StartChar: ordfeminine
Encoding: 170 170 170
Width: 490
VWidth: 0
Flags: HMW
LayerCount: 3
Back
SplineSet
366 494 m 0
 310 494 290 530 290 560 c 2
 290 566 l 1
 284 566 l 1
 268 532 216 492 152 492 c 0
 102 492 58 520 58 580 c 0
 58 650 106 700 280 732 c 1
 280 764 l 2
 280 830 264 892 200 892 c 0
 154 892 152 858 144 798 c 1
 118 798 78 800 78 848 c 0
 78 900 172 940 240 940 c 0
 326 940 360 892 360 790 c 2
 360 614 l 2
 360 570 368 556 414 550 c 1
 438 546 l 1
 432 504 l 1
 408 500 394 494 366 494 c 0
280 698 m 1
 160 680 142 648 142 602 c 0
 142 562 162 544 196 544 c 0
 236 544 268 576 280 596 c 1
 280 698 l 1
42 418 m 1
 452 418 l 1
 444 348 l 1
 34 348 l 1
 42 418 l 1
EndSplineSet
Fore
SplineSet
366 494 m 0
 310 494 290 530 290 560 c 2
 290 566 l 1
 284 566 l 1
 268 532 216 492 152 492 c 0
 102 492 58 520 58 580 c 0
 58 650 106 700 280 732 c 1
 280 764 l 2
 280 830 264 892 200 892 c 0
 154 892 152 858 144 798 c 1
 118 798 78 800 78 848 c 0
 78 900 172 940 240 940 c 0
 326 940 360 892 360 790 c 2
 360 614 l 2
 360 570 368 556 414 550 c 1
 438 546 l 1
 432 504 l 1
 408 500 394 494 366 494 c 0
280 698 m 1
 160 680 142 648 142 602 c 0
 142 562 162 544 196 544 c 0
 236 544 268 576 280 596 c 1
 280 698 l 1
42 418 m 1
 452 418 l 1
 444 348 l 1
 34 348 l 1
 42 418 l 1
EndSplineSet
EndChar

StartChar: guillemotleft
Encoding: 171 171 171
Width: 1244
VWidth: 0
Flags: HMW
LayerCount: 3
Back
SplineSet
196 574 m 1
 668 994 l 1
 712 914 l 1
 332 572 l 1
 716 178 l 1
 660 94 l 1
 198 550 l 1
 196 574 l 1
464 574 m 1
 934 994 l 1
 980 914 l 1
 600 572 l 1
 984 178 l 1
 928 94 l 1
 466 550 l 1
 464 574 l 1
EndSplineSet
Fore
SplineSet
196 574 m 1
 668 994 l 1
 712 914 l 1
 332 572 l 1
 716 178 l 1
 660 94 l 1
 198 550 l 1
 196 574 l 1
464 574 m 1
 934 994 l 1
 980 914 l 1
 600 572 l 1
 984 178 l 1
 928 94 l 1
 466 550 l 1
 464 574 l 1
EndSplineSet
EndChar

StartChar: logicalnot
Encoding: 172 172 172
Width: 886
VWidth: 0
Flags: HMW
LayerCount: 3
Back
SplineSet
70 804 m 1
 812 804 l 1
 814 464 l 1
 686 442 l 1
 686 676 l 1
 56 676 l 1
 70 804 l 1
EndSplineSet
Fore
SplineSet
70 804 m 1
 812 804 l 1
 814 464 l 1
 686 442 l 1
 686 676 l 1
 56 676 l 1
 70 804 l 1
EndSplineSet
EndChar

StartChar: uni00AD
Encoding: 173 173 173
Width: 690
VWidth: 0
Flags: HMW
LayerCount: 3
Back
SplineSet
110 622 m 1
 604 622 l 1
 590 500 l 1
 96 500 l 1
 110 622 l 1
EndSplineSet
Fore
SplineSet
110 622 m 1
 604 622 l 1
 590 500 l 1
 96 500 l 1
 110 622 l 1
EndSplineSet
EndChar

